<ttFont>
          <CharString index="0">
            rmoveto
            -76 callsubr
            38 -152 -44 callgsubr
            27 hlineto
            27 12 7 11 5 -1 4 -2 6 hvcurveto
            -173 649 rlineto
            15 -3 -15 7 -28 hhcurveto
            -42 hlineto
            -26 -15 -7 -15 -5 hvcurveto
            -173 -649 rlineto
            -1 -6 -1 -4 -5 vvcurveto
            -11 12 -7 28 vhcurveto
            125 259 rmoveto
            63 256 5 20 3 24 4 21 rlinecurve
            5 hlineto
            3 -21 3 -24 5 -20 64 -256 rcurveline
            return
          </CharString>
          <CharString index="1">
            -1 4 3 -1 4 hhcurveto
            8 6 -25 callsubr
            12 9 5 11 33 52 -37 41 hhcurveto
            39 28 23 46 18 hvcurveto
            2 5 2 -34 callsubr
            -11 4 vhcurveto
            -8 3 rlineto
            2 -5 -12 callsubr
            -8 -7 -5 -11 -7 hvcurveto
            -18 -12 -10 -9 callsubr
            -33 -51 36 -40 hhcurveto
            -39 -28 -22 -47 -18 hvcurveto
            -2 -5 -1 -5 -4 vvcurveto
            -6 3 -6 11 -4 vhcurveto
            return
          </CharString>
          <CharString index="2">
            rmoveto
            -105 callgsubr
            return
          </CharString>
          <CharString index="3">
            -106 callgsubr
            endchar
          </CharString>
          <CharString index="4">
            290 hlineto
            -16 callsubr
            -211 220 189 hlineto
            15 7 11 25 hvcurveto
            20 -5 callgsubr
            -189 204 211 hlineto
            15 7 11 25 hvcurveto
            20 -5 callgsubr
            -290 hlineto
            -21 -9 -20 callgsubr
            -634 54 callgsubr
            21 vhcurveto
            return
          </CharString>
          <CharString index="5">
            -103 callsubr
            endchar
          </CharString>
          <CharString index="6">
            rmoveto
            -102 callsubr
          </CharString>
          <CharString index="7">
            rmoveto
            -3 callgsubr
            415 vlineto
            22 -3 22 -5 23 vhcurveto
            5 2 7 -21 8 -22 11 -20 rlinecurve
            225 -427 rlineto
            -14 6 14 -5 21 hhcurveto
            20 hlineto
            30 14 22 callgsubr
            -14 9 -30 vhcurveto
            -15 -84 callgsubr
            -405 vlineto
            -23 3 -24 5 -23 vhcurveto
            -5 -2 -8 23 -8 22 -12 23 rlinecurve
            -217 412 rlineto
            18 -9 -14 4 -20 -49 callsubr
            return
          </CharString>
          <CharString index="8">
            rmoveto
            70 50 44 69 14 -10 6 -14 -14 -3 -8 -14 -6 hvcurveto
            -23 -9 -20 -15 -44 hhcurveto
            -43 -20 14 23 -10 hvcurveto
            15 -7 -3 8 -14 hhcurveto
            -15 -9 -6 -14 -69 50 -44 71 hvcurveto
            return
          </CharString>
          <CharString index="9">
            rmoveto
            18 5 3 9 10 -11 22 -39 80 hvcurveto
            20 -10 -23 7 -30 hhcurveto
            -31 -15 -3 -11 -11 7 -7 75 -99 hvcurveto
            -12 8 15 -8 31 hhcurveto
            return
          </CharString>
          <CharString index="10">
            hlineto
            -30 -32 callgsubr
            -478 vlineto
            -66 -48 -48 -71 -71 -49 47 67 vhcurveto
            478 -61 callgsubr
            -479 vlineto
            -129 83 -76 146 return
          </CharString>
          <CharString index="11">
            rmoveto
            -17 hlineto
            -22 -17 -4 -13 -3 hvcurveto
            -63 -252 -6 -27 -6 -34 -6 -29 rlinecurve
            -5 hlineto
            -6 30 -6 32 -7 28 -63 251 rcurveline
            14 -3 -16 4 -21 hhcurveto
            -23 hlineto
            -29 -13 -7 -12 -4 2 -6 2 -9 hvcurveto
            127 -415 4 -12 8 -3 9 -1 rlinecurve
            -69 -229 rlineto
            -3 -11 0 -3 -3 vvcurveto
            -11 12 -6 27 vhcurveto
            20 hlineto
            23 17 5 16 5 hvcurveto
            188 675 rlineto
            2 9 1 4 53 callsubr
            7 -30 vhcurveto
            return
          </CharString>
          <CharString index="12">
            -68 callgsubr
            -360 vlineto
            -36 -19 -30 -23 -33 hhcurveto
            -42 -22 28 50 hvcurveto
            341 -59 callsubr
            -352 vlineto
            -97 39 -59 87 vhcurveto
            53 1 44 29 28 47 rrcurveto
            -36 vlineto
            -110 -38 -50 -70 vhcurveto
            -76 -45 43 -11 hhcurveto
            -9 -4 -19 -21 -9 2 -12 3 -11 hvcurveto
            -27 10 65 -29 79 hhcurveto
            135 59 84 201 -1 hvcurveto
            return
          </CharString>
          <CharString index="13">
            298 hlineto
            15 2 callsubr
            -15 vhcurveto
            -192 hlineto
            209 367 rlineto
            1 3 1 3 6 vvcurveto
            21 -12 38 -8 vhcurveto
            -283 hlineto
            -15 -7 -11 -45 callsubr
            15 vhcurveto
            176 hlineto
            -210 -368 rlineto
            -1 -3 -1 -4 -5 vvcurveto
            -22 13 -36 9 vhcurveto
            return
          </CharString>
          <CharString index="14">
            rmoveto
            34 hlineto
            21 13 5 12 3 hvcurveto
            62 286 4 23 6 39 3 24 rlinecurve
            4 hlineto
            3 -24 5 -39 5 -23 61 -286 rcurveline
            -12 2 13 -5 22 hhcurveto
            34 hlineto
            21 14 5 12 2 hvcurveto
            106 474 rlineto
            1 6 1 6 4 vvcurveto
            12 -14 8 -31 -32 -18 -5 -12 -2 vhcurveto
            -47 -299 -5 -27 -8 -50 -4 -29 rlinecurve
            -5 hlineto
            -4 30 -8 41 -7 37 -56 296 rcurveline
            13 -3 -16 5 -22 hhcurveto
            -21 5 callsubr
            -5 -13 -2 hvcurveto
            -56 -296 -6 -29 -9 -50 -4 -30 rlinecurve
            -5 hlineto
            -4 29 -9 53 -4 25 -47 299 rcurveline
            12 -2 -17 5 -35 hhcurveto
            -33 -13 -8 -12 -4 1 -8 1 -6 hvcurveto
            106 -472 rlineto
            -12 2 14 -5 22 hhcurveto
            endchar
          </CharString>
          <CharString index="15">
            582 -105 callsubr
            return
          </CharString>
          <CharString index="16">
            rmoveto
            47 hlineto
            21 15 5 12 3 hvcurveto
            82 402 15 120 15 -120 82 -402 rlineto
            -12 2 15 -5 21 hhcurveto
            48 hlineto
            22 15 5 12 2 hvcurveto
            138 653 rlineto
            1 5 1 5 3 vvcurveto
            13 -13 8 -33 vhcurveto
            -14 hlineto
            -27 -18 -6 -14 -2 hvcurveto
            -77 -450 -8 -49 -4 -31 -8 -44 rlinecurve
            -4 33 -6 50 -8 41 -84 452 rcurveline
            14 -3 -14 4 -22 hhcurveto
            -29 hlineto
            -23 -13 -4 -14 -3 hvcurveto
            -84 -450 -21 -125 -5 36 -3 40 -8 47 rlinecurve
            -79 450 rlineto
            14 -3 -16 6 -28 hhcurveto
            -17 hlineto
            -33 -13 -8 -13 -3 1 -5 1 -5 hvcurveto
            136 -653 rlineto
            -12 3 14 -5 23 hhcurveto
            endchar
          </CharString>
          <CharString index="17">
            -99 callsubr
            -50 -82 callgsubr
            return
          </CharString>
          <CharString index="18">
            388 hlineto
            15 7 11 28 hvcurveto
            14 vlineto
            27 -7 12 -15 vhcurveto
            -279 hlineto
            300 533 rlineto
            1 3 0 3 5 vvcurveto
            22 -15 42 -12 vhcurveto
            -365 hlineto
            -15 -6 -11 -28 hvcurveto
            -14 vlineto
            -27 6 -12 15 vhcurveto
            257 hlineto
            -301 -533 rlineto
            -1 -3 -1 -4 -5 vvcurveto
            -22 15 -41 13 vhcurveto
            return
          </CharString>
          <CharString index="19">
            rmoveto
            30 -20 47 -24 -4 -5 -1 -3 -4 vhcurveto
            -26 -18 rlineto
            -7 -4 -3 -7 -6 vvcurveto
            2 -12 25 -19 -29 vvcurveto
            -16 -11 -17 -32 vhcurveto
            -35 -97 callsubr
            145 83 76 129 vhcurveto
            471 vlineto
            55 7 24 34 47 vvcurveto
            return
          </CharString>
          <CharString index="20">
            rmoveto
            93 67 62 93 83 -42 40 -67 32 hvcurveto
            -40 22 -35 22 46 vvcurveto
            35 27 18 34 vhcurveto
            39 25 -23 7 hhcurveto
            13 21 44 18 29 -64 18 -52 -88 -64 -57 -90 -80 42 -37 62 -29 hvcurveto
            49 -25 32 -25 -45 vvcurveto
            -42 -24 -21 -42 vhcurveto
            -50 -31 35 -9 hhcurveto
            -14 -26 -42 -18 -28 64 -35 73 hvcurveto
            return
          </CharString>
          <CharString index="21">
            22 callsubr
            88 -18 68 -35 46 hvcurveto
            61 6 29 35 49 vvcurveto
            -74 callgsubr
            -10 -17 -27 -14 -12 4 6 -12 vhcurveto
            15 -27 -28 8 -35 hhcurveto
            -57 callsubr
          </CharString>
          <CharString index="22">
            rmoveto
            -35 callsubr
            477 -59 callgsubr
            -33 vhcurveto
            -10 hlineto
            -32 -32 callgsubr
            -477 vlineto
            -26 callsubr
            return
          </CharString>
          <CharString index="23">
            rmoveto
            45 40 11 9 20 hvcurveto
            22 9 4 13 13 vvcurveto
            30 -13 43 -28 -12 vhcurveto
            -11 -21 -27 -10 -38 hhcurveto
            -106 -48 85 178 179 49 82 105 35 26 -9 -9 19 hvcurveto
            24 -12 11 53 1 22 rrcurveto
            17 -5 10 -16 6 vhcurveto
            9 -23 -37 8 -37 hhcurveto
            -179 -85 -116 -240 -245 81 -113 181 hvcurveto
            endchar
          </CharString>
          <CharString index="24">
            -15 callgsubr
            287 vlineto
            166 354 rlineto
            4 8 2 7 53 callsubr
            6 -32 1 vhcurveto
            -22 hlineto
            -22 -17 -2 -13 -5 hvcurveto
            -113 -273 -112 272 rlineto
            13 -6 -16 3 -22 hhcurveto
            -27 hlineto
            -33 -14 -7 -11 -5 3 -7 4 -8 hvcurveto
            165 -351 rlineto
            -290 15 callgsubr
            return
          </CharString>
          <CharString index="25">
            rmoveto
            3 callsubr
            16 6 10 23 hvcurveto
            11 vlineto
            23 -6 10 -16 vhcurveto
            -197 hlineto
            -15 -7 -20 callgsubr
            -11 vlineto
            -23 31 callsubr
            return
          </CharString>
          <CharString index="26">
            rmoveto
            31 15 8 12 9 hvcurveto
            73 100 8 6 11 vvcurveto
            11 -16 3 -30 -30 -24 -21 callgsubr
            18 vhcurveto
            138 hmoveto
            33 13 8 12 9 hvcurveto
            76 99 5 7 11 vvcurveto
            11 -15 3 -30 -31 -23 -21 callgsubr
            17 vhcurveto
            return
          </CharString>
          <CharString index="27">
            rmoveto
            27 58 65 87 20 -12 13 -26 hvcurveto
            -13 hlineto
            -30 -13 -14 -21 hvcurveto
            -78 -24 -34 -21 vvcurveto
            -14 20 -3 13 vhcurveto
            return
          </CharString>
          <CharString index="28">
            rmoveto
            23 hlineto
            30 13 9 16 hvcurveto
            -67 callsubr
            31 vhcurveto
            return
          </CharString>
          <CharString index="29">
            599 -104 callgsubr
            return
          </CharString>
          <CharString index="30">
            582 -99 callsubr
            return
          </CharString>
          <CharString index="31">
            26 hlineto
            20 17 4 13 3 hvcurveto
            37 152 -8 callgsubr
            return
          </CharString>
          <CharString index="32">
            38 callgsubr
            12 1 14 8 4 callsubr
            -3 6 -3 6 hvcurveto
            -50 92 rlineto
            16 -9 -15 5 -21 23 callgsubr
            -10 hvcurveto
            -50 -92 rlineto
            -2 -6 -3 40 callsubr
            7 -5 13 vhcurveto
            -49 -65 callsubr
          </CharString>
          <CharString index="33">
            hlineto
            -30 -13 -8 -17 1 callsubr
            -34 -18 -29 -25 -34 hhcurveto
            -41 -20 27 47 hvcurveto
            345 -61 callsubr
            -17 hlineto
            -31 -11 callgsubr
            -363 vlineto
            -91 45 -53 81 53 44 31 45 29 vhcurveto
            -30 callgsubr
            return
          </CharString>
          <CharString index="34">
            3 callgsubr
            7 4 callsubr
            -2 6 -4 callsubr
            -50 92 rlineto
            16 -9 -15 5 -21 23 callgsubr
            -10 hvcurveto
            -50 -92 rlineto
            -2 -6 -3 40 callsubr
            7 -5 13 vhcurveto
            121 -62 callgsubr
          </CharString>
          <CharString index="35">
            rmoveto
            29 47 9 26 12 -8 43 -16 hvcurveto
            -6 -7 -5 -16 hhcurveto
            -19 -14 11 39 hvcurveto
            600 vlineto
            16 -14 18 callgsubr
            -66 callgsubr
            -605 vlineto
            -102 59 -28 53 vhcurveto
            return
          </CharString>
          <CharString index="36">
            9 16 hvcurveto
            return
          </CharString>
          <CharString index="37">
            11 -48 callgsubr
            return
          </CharString>
          <CharString index="38">
            13 -71 callsubr
            return
          </CharString>
          <CharString index="39">
            rmoveto
            11 hlineto
            -2 callgsubr
            351 vlineto
            19 7 30 39 36 27 9 -10 12 hhcurveto
            14 8 45 19 22 -14 22 -38 -40 -32 -31 -45 -26 hvcurveto
            26 -6 -4 42 -26 hhcurveto
            -17 -54 -5 -21 hvcurveto
            -9 12 -34 -87 vvcurveto
            -343 vlineto
            -26 callsubr
            return
          </CharString>
          <CharString index="40">
            654 vlineto
            16 -13 -64 callsubr
            return
          </CharString>
          <CharString index="41">
            -9 -16 hvcurveto
            return
          </CharString>
          <CharString index="42">
            -752 -101 callsubr
          </CharString>
          <CharString index="43">
            9 -30 vhcurveto
            -23 -75 callgsubr
            return
          </CharString>
          <CharString index="44">
            174 hlineto
            156 96 98 252 251 -96 99 -156 hvcurveto
            -174 hlineto
            -21 -9 -20 callgsubr
            -634 54 callgsubr
            21 vhcurveto
            80 92 rmoveto
            516 91 vlineto
            87 56 -70 -188 -189 -56 -69 -87 hvcurveto
            return
          </CharString>
          <CharString index="45">
            270 hlineto
            16 7 -70 callsubr
            -7 11 -16 vhcurveto
            -191 585 hlineto
            -43 callgsubr
            return
          </CharString>
          <CharString index="46">
            vlineto
            28 callgsubr
            return
          </CharString>
          <CharString index="47">
            rmoveto
            126 51 83 128 hvcurveto
            473 vlineto
            16 -14 9 -30 19 callsubr
            -473 vlineto
            -81 -23 -36 -59 vhcurveto
            -26 -19 8 -9 hhcurveto
            -16 -12 -46 -20 -23 55 -13 42 hvcurveto
            endchar
          </CharString>
          <CharString index="48">
            vlineto
            -68 callgsubr
            return
          </CharString>
          <CharString index="49">
            -162 -91 -110 -246 -245 91 -113 162 hvcurveto
            1 92 rmoveto
            -93 -49 78 188 189 49 74 93 92 50 -74 -189 -188 -50 -78 -92 hvcurveto
            endchar
          </CharString>
          <CharString index="50">
            -97 callgsubr
            endchar
          </CharString>
          <CharString index="51">
            rmoveto
            21 hlineto
            32 12 -71 callsubr
            585 134 vlineto
            -16 callsubr
            -378 hlineto
            -15 -6 -11 -25 hvcurveto
            -20 vlineto
            -25 6 -11 15 vhcurveto
            135 -585 hlineto
            -2 callsubr
            31 vhcurveto
            return
          </CharString>
          <CharString index="52">
            rmoveto
            60 51 25 34 30 hvcurveto
            -39 35 51 -20 69 hhcurveto
            78 75 36 30 15 -24 43 -15 hvcurveto
            -11 -33 -39 -68 hhcurveto
            -69 -33 44 104 -4 hvcurveto
            231 hlineto
            12 26 32 14 167 -57 91 -121 -50 -41 -14 -27 -32 hvcurveto
            26 -28 -45 15 -54 hhcurveto
            -83 -78 -32 -29 -14 23 -43 17 hvcurveto
            12 39 33 66 hhcurveto
            42 23 -20 -28 9 hvcurveto
            -8 -21 -5 -22 -3 -26 rrcurveto
            -141 -3 -96 -52 -123 vvcurveto
            -100 59 -57 91 vhcurveto
            191 312 rmoveto
            98 5 30 42 55 hhcurveto
            50 26 -45 -95 hvcurveto
            -342 -222 rmoveto
            -41 -20 26 45 71 59 21 70 2 hvcurveto
            1 -48 6 -42 12 -34 rrcurveto
            -27 -22 -30 -14 -35 hhcurveto
            endchar
          </CharString>
          <CharString index="53">
            rmoveto
            202 hlineto
            9 4 6 15 hvcurveto
            7 vlineto
            15 -4 6 -9 vhcurveto
            -139 hlineto
            84 125 rlineto
            53 70 14 25 40 vvcurveto
            61 -46 39 -69 -44 -59 -20 -26 -11 13 -22 10 vhcurveto
            9 21 29 45 hhcurveto
            36 23 -19 -34 -23 -7 -16 -24 -35 hvcurveto
            -133 -190 rlineto
            -2 -2 0 -3 -4 vvcurveto
            -13 5 -20 8 vhcurveto
            return
          </CharString>
          <CharString index="54">
            -16 -7 -11 -45 callsubr
            16 vhcurveto
            return
          </CharString>
          <CharString index="55">
            -21 callsubr
            9 26 callsubr
            -57 -65 -27 -110 hvcurveto
            -97 -24 vlineto
            -53 callsubr
            24 -415 hlineto
            -26 callsubr
            return
          </CharString>
          <CharString index="56">
            rmoveto
            32 46 rlineto
            4 7 2 4 5 vvcurveto
            12 -23 14 -10 -6 -5 -3 -6 -5 vhcurveto
            -25 -36 rlineto
            27 -30 -40 14 -49 hhcurveto
            -127 -69 -97 -173 -74 12 -60 25 -44 hvcurveto
            -34 -49 rlineto
            -5 -7 -2 -3 -5 vvcurveto
            -13 22 -14 11 6 5 2 7 4 vhcurveto
            26 38 rlineto
            -30 32 42 -15 52 hhcurveto
            -40 callsubr
            78 -14 63 -26 45 hvcurveto
            -244 -185 rmoveto
            128 26 56 62 29 21 -12 -25 15 vhcurveto
            -149 -218 rlineto
            -3 21 -1 23 27 vvcurveto
            88 -183 rmoveto
            -31 -22 14 30 -14 hvcurveto
            152 220 rlineto
            3 -23 2 -27 -31 vvcurveto
            -127 -28 -56 -62 vhcurveto
            endchar
          </CharString>
          <CharString index="57">
            -55 137 575 -107 callgsubr
            120 -582 -102 callgsubr
            return
          </CharString>
          <CharString index="58">
            hhcurveto
            -24 -55 callgsubr
            return
          </CharString>
          <CharString index="59">
            -5 -16 -9 hvcurveto
            -50 -92 rlineto
            -3 -6 -2 40 callsubr
            6 -5 14 vhcurveto
            return
          </CharString>
          <CharString index="60">
            172 378 rmoveto
            59 69 28 135 137 -68 29 -60 -61 -67 -29 -137 -135 69 -28 59 hvcurveto
            9 -384 rmoveto
            21 hlineto
            17 12 7 15 7 hvcurveto
            289 665 rlineto
            1 5 2 3 4 vvcurveto
            7 -7 5 -13 vhcurveto
            -21 hlineto
            -17 -12 -6 -16 -6 hvcurveto
            -289 -662 rlineto
            -4 -8 -1 -3 -3 vvcurveto
            -7 8 -6 13 vhcurveto
            -8 448 rmoveto
            -46 -7 49 50 49 6 53 47 46 6 -53 -49 -50 -7 -49 -45 hvcurveto
            342 -448 rmoveto
            59 70 28 135 136 -70 29 -59 -61 -67 -29 -136 -135 69 -28 59 hvcurveto
            return
          </CharString>
          <CharString index="61">
            rmoveto
            21 hlineto
            18 8 5 10 8 hvcurveto
            32 52 34 -53 rlineto
            -9 8 9 -5 16 14 callsubr
            3 -2 8 -5 8 hvcurveto
            -48 68 rlineto
            14 -10 -13 7 -23 13 callsubr
            -47 -68 rlineto
            -4 -8 -4 -8 -3 vvcurveto
            -9 7 -4 13 vhcurveto
            return
          </CharString>
          <CharString index="62">
            -25 hvcurveto
            -13 -36 callsubr
            return
          </CharString>
          <CharString index="63">
            229 -92 callsubr
            return
          </CharString>
          <CharString index="64">
            -72 202 -6 -94 callgsubr
            return
          </CharString>
          <CharString index="65">
            5 8 5 -3 6 -3 6 hvcurveto
            -50 92 rlineto
            16 -9 -15 5 return
          </CharString>
          <CharString index="66">
            -85 callgsubr
            endchar
          </CharString>
          <CharString index="67">
            128 67 94 173 return
          </CharString>
          <CharString index="68">
            1 502 30 rmoveto
            -215 327 198 311 rlineto
            6 8 48 callgsubr
            8 -12 6 -29 vhcurveto
            -28 hlineto
            -22 -18 -2 -13 -8 hvcurveto
            -189 -318 rlineto
            -4 308 hlineto
            -34 callgsubr
            -32 vhcurveto
            -20 -55 callgsubr
            20 hlineto
            -2 callgsubr
            312 3 vlineto
            195 -322 rlineto
            -14 9 19 -1 22 hhcurveto
            34 hlineto
            30 13 4 10 5 -1 4 -5 9 hvcurveto
            return
          </CharString>
          <CharString index="69">
            vlineto
            -2 callsubr
            return
          </CharString>
          <CharString index="70">
            68 276 700 rmoveto
            -174 hlineto
            -21 -9 -20 callgsubr
            -264 -41 vlineto
            -3 callsubr
            -20 vlineto
            -25 31 callsubr
            41 -279 hlineto
            -23 9 -10 21 vhcurveto
            174 hlineto
            156 96 98 252 251 -96 99 -156 hvcurveto
            -3 -608 rmoveto
            -91 220 63 hlineto
            16 6 10 25 hvcurveto
            20 27 callsubr
            vhcurveto
            -63 205 91 hlineto
            87 56 -70 -188 -189 -56 -69 -87 hvcurveto
            endchar
          </CharString>
          <CharString index="71">
            -15 callsubr
            -11 return
          </CharString>
          <CharString index="72">
            10 hlineto
            33 -69 callsubr
            return
          </CharString>
          <CharString index="73">
            4 5 vvcurveto
            8 -4 4 return
          </CharString>
          <CharString index="74">
            -15 -12 -13 -18 -18 12 -13 15 hvcurveto
            return
          </CharString>
          <CharString index="75">
            -14 -15 -4 -9 -13 -5 hvcurveto
            -16 -7 -20 -24 -46 hhcurveto
            -44 -21 23 16 -8 hvcurveto
            15 -7 -4 8 -14 hhcurveto
            -15 -8 return
          </CharString>
          <CharString index="76">
            23 hlineto
            30 12 -71 callsubr
            289 237 -289 vlineto
            -16 12 -9 32 20 callgsubr
            return
          </CharString>
          <CharString index="77">
            92 116 -2 rmoveto
            -31 callsubr
            654 46 callsubr
            -32 -11 callgsubr
            -272 -237 272 vlineto
            16 -12 28 callsubr
            return
          </CharString>
          <CharString index="78">
            58 hmoveto
            462 hlineto
            18 10 11 20 hvcurveto
            17 vlineto
            14 -3 10 -3 13 vhcurveto
            -200 601 rlineto
            17 -6 -11 7 -14 hhcurveto
            -41 hlineto
            -16 -11 -7 -17 -5 hvcurveto
            -199 -601 rlineto
            -5 -14 -2 -10 -15 vvcurveto
            -16 vlineto
            -19 10 -11 16 vhcurveto
            80 86 rmoveto
            147 490 rlineto
            8 hlineto
            147 -490 rlineto
            endchar
          </CharString>
          <CharString index="79">
            rmoveto
            -37 -15 -10 -15 hvcurveto
            51 callsubr
            36 16 9 16 vhcurveto
            51 callgsubr
            vhcurveto
            endchar
          </CharString>
          <CharString index="80">
            10 15 32 hhcurveto
            17 15 -9 -16 -14 -11 -10 -20 -10 hvcurveto
            -14 -8 -9 -5 -7 vvcurveto
            -10 16 -11 23 vhcurveto
            return
          </CharString>
          <CharString index="81">
            -16 14 -9 32 vhcurveto
            return
          </CharString>
          <CharString index="82">
            4 -4 callgsubr
            return
          </CharString>
          <CharString index="83">
            -36 callsubr
            15 vhcurveto
            return
          </CharString>
          <CharString index="84">
            hlineto
            -53 callsubr
            return
          </CharString>
          <CharString index="85">
            65 34 -66 6 callgsubr
            return
          </CharString>
          <CharString index="86">
            48 16 9 22 vhcurveto
            18 8 -6 8 hhcurveto
            16 return
          </CharString>
          <CharString index="87">
            68 -18 callsubr
            return
          </CharString>
          <CharString index="88">
            -59 callgsubr
            -30 return
          </CharString>
          <CharString index="89">
            102 hmoveto
            -63 callsubr
            return
          </CharString>
          <CharString index="90">
            17 callgsubr
            13 27 callsubr
            vhcurveto
            return
          </CharString>
          <CharString index="91">
            16 6 -70 callsubr
            -6 11 -16 vhcurveto
            return
          </CharString>
          <CharString index="92">
            vlineto
            -25 7 return
          </CharString>
          <CharString index="93">
            -26 56 127 return
          </CharString>
          <CharString index="94">
            -23 -7 -20 return
          </CharString>
          <CharString index="95">
            -3 1 -4 hhcurveto
            return
          </CharString>
          <CharString index="96">
            -128 -127 return
          </CharString>
          <CharString index="97">
            15 7 11 25 hvcurveto
            return
          </CharString>
          <CharString index="98">
            -5 -12 hhcurveto
            1 return
          </CharString>
          <CharString index="99">
            -72 callsubr
            endchar
          </CharString>
          <CharString index="100">
            41 callsubr
            8 5 8 3 -3 8 -5 8 hvcurveto
            -47 68 rlineto
            14 -10 -14 7 -23 13 callsubr
            -46 43 callgsubr
            return
          </CharString>
          <CharString index="101">
            rmoveto
            -27 callgsubr
            return
          </CharString>
          <CharString index="102">
            vlineto
            25 -7 11 return
          </CharString>
          <CharString index="103">
            -4 6 hvcurveto
            return
          </CharString>
          <CharString index="104">
            -15 5 callgsubr
            return
          </CharString>
          <CharString index="105">
            -16 13 -9 return
          </CharString>
          <CharString index="106">
            90 290 -92 callgsubr
            return
          </CharString>
          <CharString index="107">
            749 rmoveto
            -1 4 4 -1 3 hhcurveto
            7 5 -25 callsubr
            10 8 5 11 30 30 callsubr
            return
          </CharString>
          <CharString index="108">
            hvcurveto
            -360 vlineto
            return
          </CharString>
          <CharString index="109">
            7 11 25 hvcurveto
            13 -5 callsubr
            return
          </CharString>
          <CharString index="110">
            197 hlineto
            return
          </CharString>
          <CharString index="111">
            hvcurveto
            33 -22 callsubr
            13 -4 14 14 callsubr
            5 return
          </CharString>
          <CharString index="112">
            hlineto
            -21 -16 return
          </CharString>
          <CharString index="113">
            rmoveto
            -58 callgsubr
            return
          </CharString>
          <CharString index="114">
            rmoveto
            14 26 callgsubr
            -14 -33 callsubr
            return
          </CharString>
          <CharString index="115">
            -45 -7 49 50 49 7 52 45 47 6 -52 -49 -50 -8 -49 -45 hvcurveto
            return
          </CharString>
          <CharString index="116">
            48 callsubr
            5 4 vvcurveto
            8 -4 4 21 callsubr
            -3 1 return
          </CharString>
          <CharString index="117">
            -24 callsubr
            endchar
          </CharString>
          <CharString index="118">
            -27 callgsubr
            20 7 30 16 29 hvcurveto
            return
          </CharString>
          <CharString index="119">
            41 callgsubr
            -32 -71 -8 -19 -9 vvcurveto
            -9 6 -3 16 vhcurveto
            return
          </CharString>
          <CharString index="120">
            hhcurveto
            -12 hlineto
            -23 -13 -7 -14 -11 hvcurveto
            return
          </CharString>
          <CharString index="121">
            41 callsubr
            7 5 8 return
          </CharString>
          <CharString index="122">
            vlineto
            16 -14 9 -32 vhcurveto
            return
          </CharString>
          <CharString index="123">
            rmoveto
            63 256 5 20 3 24 4 21 rlinecurve
            5 hlineto
            3 -21 3 -24 5 -20 64 -256 rcurveline
            endchar
          </CharString>
          <CharString index="124">
            146 rlineto
            4 7 3 7 7 vvcurveto
            18 -30 15 -14 -8 -7 -3 -9 -6 vhcurveto
            -103 -155 rlineto
            -8 return
          </CharString>
          <CharString index="125">
            35 callsubr
            7 5 -25 callsubr
            11 8 5 11 29 47 -37 38 hhcurveto
            return
          </CharString>
          <CharString index="126">
            vhcurveto
            -22 -84 callgsubr
            return
          </CharString>
          <CharString index="127">
            vhcurveto
            -17 -84 callgsubr
            return
          </CharString>
          <CharString index="128">
            -10 4 37 callgsubr
            return
          </CharString>
          <CharString index="129">
            rmoveto
            -40 callsubr
            return
          </CharString>
          <CharString index="130">
            hhcurveto
            1 -30 -46 36 -37 40 callgsubr
            4 -6 return
          </CharString>
          <CharString index="131">
            vhcurveto
            -103 155 rlineto
            9 -6 -7 3 -7 hhcurveto
            -14 -31 -15 -18 -7 3 -7 4 -7 hvcurveto
            return
          </CharString>
          <CharString index="132">
            rmoveto
            9 21 12 10 13 hvcurveto
            18 15 return
          </CharString>
          <CharString index="133">
            47 8 26 -47 10 -30 return
          </CharString>
          <CharString index="134">
            47 callsubr
            -16 return
          </CharString>
          <CharString index="135">
            -64 callsubr
            31 vhcurveto
            return
          </CharString>
          <CharString index="136">
            35 callsubr
            8 return
          </CharString>
          <CharString index="137">
            47 -37 38 hhcurveto
            35 25 13 callgsubr
            return
          </CharString>
          <CharString index="138">
            7 -10 15 vhcurveto
            return
          </CharString>
          <CharString index="139">
            hlineto
            31 13 8 16 hvcurveto
            221 vlineto
            -25 24 29 -20 46 hhcurveto
            100 return
          </CharString>
          <CharString index="140">
            52 callgsubr
            132 287 rmoveto
            -29 -24 13 23 return
          </CharString>
          <CharString index="141">
            hlineto
            -16 -8 -12 -24 hvcurveto
            -11 vlineto
            -25 8 -11 16 vhcurveto
            endchar
          </CharString>
          <CharString index="142">
            47 callgsubr
            3 hhcurveto
            return
          </CharString>
          <CharString index="143">
            hlineto
            17 callgsubr
            return
          </CharString>
          <CharString index="144">
            6 11 25 hvcurveto
            return
          </CharString>
          <CharString index="145">
            22 hlineto
            -2 callgsubr
            73 -59 callgsubr
            -32 vhcurveto
            return
          </CharString>
          <CharString index="146">
            -22 hlineto
            -32 -66 callgsubr
            -73 -38 callsubr
            32 vhcurveto
            return
          </CharString>
          <CharString index="147">
            -7 -5 vvcurveto
            -7 return
          </CharString>
          <CharString index="148">
            -18 callgsubr
            12 return
          </CharString>
          <CharString index="149">
            hlineto
            -16 -6 -9 -22 hvcurveto
            -7 vlineto
            -22 6 -9 16 vhcurveto
            return
          </CharString>
          <CharString index="150">
            hlineto
            16 7 11 25 hvcurveto
            15 -5 callsubr
            -16 vhcurveto
            return
          </CharString>
          <CharString index="151">
            -81 209 -140 rmoveto
            10 hlineto
            26 12 -71 callsubr
            return
          </CharString>
          <CharString index="152">
            -9 59 -86 hvcurveto
            -11 8 13 -7 return
          </CharString>
          <CharString index="153">
            -61 callsubr
            -21 hlineto
            return
          </CharString>
          <CharString index="154">
            vlineto
            25 -6 11 return
          </CharString>
          <CharString index="155">
            -37 38 hhcurveto
            34 26 23 46 17 hvcurveto
            2 5 1 return
          </CharString>
          <CharString index="156">
            -15 -7 -9 -21 hvcurveto
            -10 vlineto
            -21 7 -9 15 vhcurveto
            return
          </CharString>
          <CharString index="157">
            1 5 1 5 4 vvcurveto
            7 -4 3 -11 5 vhcurveto
            return
          </CharString>
          <CharString index="158">
            -53 vlineto
            -16 15 -9 37 return
          </CharString>
          <CharString index="159">
            -71 callsubr
            355 vlineto
            return
          </CharString>
          <CharString index="160">
            5 vvcurveto
            11 -13 return
          </CharString>
          <CharString index="161">
            vhcurveto
            103 -155 rlineto
            -9 6 7 -3 8 hhcurveto
            return
          </CharString>
          <CharString index="162">
            -84 callgsubr
            -57 return
          </CharString>
          <CharString index="163">
            13 -4 14 41 callsubr
            return
          </CharString>
        <CharString name=".notdef">
          5 7 hmoveto
          500 700 -500 hlineto
          250 -305 rmoveto
          -171 255 rlineto
          340 hlineto
          -370 -555 rmoveto
          510 vlineto
          171 -255 rlineto
          229 -255 rmoveto
          -169 255 169 255 rlineto
          -369 -555 rmoveto
          169 255 171 -255 rlineto
          endchar
        </CharString>
        <CharString name="A">
          -4 50 -2 -107 callsubr
          endchar
        </CharString>
        <CharString name="AE">
          237 46 -2 -49 callgsubr
        </CharString>
        <CharString name="AEacute">
          237 380 -92 callgsubr
          -334 -761 -49 callgsubr
        </CharString>
        <CharString name="Aacute">
          -4 243 -92 callgsubr
          -193 -761 -107 callsubr
          endchar
        </CharString>
        <CharString name="Abreve">
          -4 253 759 -99 callsubr
          -203 -761 -107 callsubr
          endchar
        </CharString>
        <CharString name="Acircumflex">
          -4 159 752 -107 callgsubr
          -109 -754 -107 callsubr
          endchar
        </CharString>
        <CharString name="Adieresis">
          -4 185 776 -100 callgsubr
          -272 -778 -107 callsubr
          endchar
        </CharString>
        <CharString name="Agrave">
          -4 274 759 -98 callsubr
          -224 -761 -107 callsubr
          endchar
        </CharString>
        <CharString name="Amacron">
          -4 157 785 -82 callsubr
          -107 -787 -107 callsubr
          endchar
        </CharString>
        <CharString name="Aogonek">
          -4 502 -101 -6 callsubr
          16 5 23 10 23 hvcurveto
          24 hlineto
          27 12 7 11 5 -1 4 -2 6 hvcurveto
          -173 649 rlineto
          15 -3 -15 7 -28 hhcurveto
          -42 hlineto
          -26 -15 -7 -15 -5 hvcurveto
          -173 -649 rlineto
          -1 -6 -1 -4 -5 vvcurveto
          -11 12 -7 28 vhcurveto
          -76 callsubr
          37 -147 rlineto
          -26 -37 -7 -41 -24 -60 callgsubr
          -327 358 16 callsubr
        </CharString>
        <CharString name="Aring">
          -4 251 737 rmoveto
          -67 callgsubr
          -201 -782 -107 callsubr
          endchar
        </CharString>
        <CharString name="Aringacute">
          -4 245 871 rmoveto
          22 11 7 10 9 hvcurveto
          60 84 9 11 10 vvcurveto
          12 -10 4 -23 -27 -24 -7 -19 -9 vhcurveto
          -32 -72 -8 -19 -9 vvcurveto
          -8 6 -4 16 vhcurveto
          247 -840 rmoveto
          -173 649 -1 5 -2 4 -4 3 rlinecurve
          18 16 10 23 28 vvcurveto
          53 -34 37 -54 -53 -34 -37 -53 -28 10 -24 18 -15 vhcurveto
          -4 -3 -2 -4 -2 -5 -173 -649 rcurveline
          -1 -6 -1 -4 -5 vvcurveto
          -11 12 -7 28 vhcurveto
          -76 callsubr
          38 -152 -44 callgsubr
          27 hlineto
          27 12 7 11 5 -1 4 -2 6 hvcurveto
          -240 774 rmoveto
          28 16 -17 -29 -29 -16 -16 -28 -28 -15 16 29 -1 hvcurveto
          29 1 15 17 28 hhcurveto
          -77 -548 16 callsubr
        </CharString>
        <CharString name="Atilde">
          -4 126 766 rmoveto
          -106 callsubr
          -66 -771 -107 callsubr
          endchar
        </CharString>
        <CharString name="B">
          30 103 hmoveto
          175 hlineto
          144 73 68 132 114 -76 40 -36 12 hvcurveto
          -1 4 rlineto
          49 20 41 64 71 vvcurveto
          106 -61 69 -134 vhcurveto
          -174 hlineto
          -22 -9 -20 callgsubr
          -634 54 callgsubr
          22 vhcurveto
          76 403 rmoveto
          208 93 vlineto
          63 29 -31 -69 -64 -35 -44 -56 hvcurveto
          -94 -314 rmoveto
          226 103 vlineto
          69 35 -38 -70 -75 -34 -43 -60 hvcurveto
          endchar
        </CharString>
        <CharString name="C">
          -50 308 -7 -84 callsubr
        </CharString>
        <CharString name="CR">
          -269 endchar
        </CharString>
        <CharString name="Cacute">
          -50 287 -92 callgsubr
          21 -766 -84 callsubr
        </CharString>
        <CharString name="Cacute.loclPLK">
          -50 287 759 -79 callgsubr
          21 -766 -84 callsubr
        </CharString>
        <CharString name="Ccaron">
          -50 291 757 -103 callgsubr
          17 -764 -84 callsubr
        </CharString>
        <CharString name="Ccedilla">
          -50 398 109 rmoveto
          -11 -21 -27 -10 -38 hhcurveto
          -106 -48 85 178 179 49 82 105 35 26 -9 -9 19 hvcurveto
          24 -12 11 53 1 22 rrcurveto
          17 -5 10 -16 6 vhcurveto
          9 -23 -37 8 -37 hhcurveto
          -179 -85 -116 -240 -232 72 -113 161 -12 hvcurveto
          -18 -55 -3 -10 -8 -65 callgsubr
          14 50 37 2 32 9 17 8 rlinecurve
          22 9 4 13 13 vvcurveto
          30 -13 43 -28 -12 vhcurveto
          endchar
        </CharString>
        <CharString name="Ccircumflex">
          -50 203 752 -107 callgsubr
          105 -759 -84 callsubr
        </CharString>
        <CharString name="Cdotaccent">
          -50 298 776 -104 callgsubr
          10 -783 -84 callsubr
        </CharString>
        <CharString name="D">
          -20 callsubr
          endchar
        </CharString>
        <CharString name="Dcaron">
          68 269 757 -103 callgsubr
          -167 -757 rmoveto
          -63 callsubr
          endchar
        </CharString>
        <CharString name="Dcroat">
          -37 callsubr
        </CharString>
        <CharString name="E">
          -52 102 hmoveto
          -102 callsubr
        </CharString>
        <CharString name="Eacute">
          -52 236 -92 callgsubr
          -134 -759 -101 callsubr
        </CharString>
        <CharString name="Ebreve">
          -52 246 759 -99 callsubr
          -144 -759 -101 callsubr
        </CharString>
        <CharString name="Ecaron">
          -52 240 757 -103 callgsubr
          -138 -757 -101 callsubr
        </CharString>
        <CharString name="Ecircumflex">
          -52 callgsubr
          endchar
        </CharString>
        <CharString name="Edieresis">
          -52 178 776 -100 callgsubr
          -213 -776 -101 callsubr
        </CharString>
        <CharString name="Edotaccent">
          -52 247 776 -104 callgsubr
          -145 -776 -101 callsubr
        </CharString>
        <CharString name="Egrave">
          -52 267 759 -98 callsubr
          -165 -759 -101 callsubr
        </CharString>
        <CharString name="Emacron">
          -52 150 785 -82 callsubr
          -48 -785 -101 callsubr
        </CharString>
        <CharString name="Eng">
          81 479 702 rmoveto
          -15 -84 callgsubr
          -405 vlineto
          -23 3 -24 5 -23 vhcurveto
          -5 -2 -8 23 -8 22 -12 23 rlinecurve
          -217 412 rlineto
          18 -9 -14 4 -20 -49 callsubr
          -3 callgsubr
          415 vlineto
          22 -3 22 -5 23 vhcurveto
          5 2 7 -21 8 -22 11 -20 rlinecurve
          230 -438 rlineto
          -72 vlineto
          -48 -15 -13 -21 vhcurveto
          -21 -7 5 -7 hhcurveto
          -16 -8 -42 -12 -30 42 -6 37 52 64 30 111 hvcurveto
          748 vlineto
          16 -14 9 -30 vhcurveto
          endchar
        </CharString>
        <CharString name="Eogonek">
          -52 472 -106 rmoveto
          11 callsubr
          3 6 1 8 12 vvcurveto
          20 27 callsubr
          vhcurveto
          -211 220 189 hlineto
          15 7 11 25 hvcurveto
          20 -5 callgsubr
          -189 204 211 hlineto
          15 7 11 25 hvcurveto
          20 -5 callgsubr
          -290 hlineto
          -21 -9 -20 callgsubr
          -634 54 callgsubr
          21 vhcurveto
          246 hlineto
          -18 -33 -6 -33 -21 -60 callgsubr
          endchar
        </CharString>
        <CharString name="Eth">
          -37 callsubr
        </CharString>
        <CharString name="Euro">
          -6 311 -7 rmoveto
          90 76 45 31 14 -20 47 -22 hvcurveto
          -13 -38 -43 -72 hhcurveto
          -68 -47 46 102 -17 hvcurveto
          212 44 callgsubr
          -220 hlineto
          -1 15 0 16 16 vvcurveto
          14 0 14 1 14 vhcurveto
          220 44 callgsubr
          -213 hlineto
          105 17 46 46 72 67 33 -37 12 hhcurveto
          18 25 46 20 26 -72 39 -84 -139 -84 -80 -165 -22 hvcurveto
          -42 42 callsubr
          35 hlineto
          -1 -14 0 -14 -14 vvcurveto
          -16 0 -16 1 -15 vhcurveto
          -35 42 callsubr
          41 hlineto
          -165 22 80 -77 142 hhcurveto
          endchar
        </CharString>
        <CharString name="F">
          -86 116 35 callgsubr
          289 170 vlineto
          15 7 11 25 hvcurveto
          20 -5 callgsubr
          -170 204 185 hlineto
          15 7 11 25 hvcurveto
          20 -5 callgsubr
          -264 hlineto
          -21 -9 14 callgsubr
          31 vhcurveto
          endchar
        </CharString>
        <CharString name="G">
          43 459 390 -77 callgsubr
          endchar
        </CharString>
        <CharString name="Gbreve">
          43 294 759 -99 callsubr
          165 -369 -77 callgsubr
          endchar
        </CharString>
        <CharString name="Gcircumflex">
          43 200 752 -107 callgsubr
          259 -362 -77 callgsubr
          endchar
        </CharString>
        <CharString name="Gcommaaccent">
          43 459 390 -77 callgsubr
          -142 -441 rmoveto
          -13 hlineto
          -30 -13 -14 -21 hvcurveto
          -78 -24 -34 -21 vvcurveto
          -14 20 -3 13 27 58 65 87 20 -12 13 -26 vhcurveto
          endchar
        </CharString>
        <CharString name="Gdotaccent">
          43 295 776 -104 callgsubr
          164 -386 -77 callgsubr
          endchar
        </CharString>
        <CharString name="H">
          -30 callsubr
          endchar
        </CharString>
        <CharString name="Hbar">
          77 535 564 rmoveto
          -8 113 hlineto
          28 callgsubr
          -21 hlineto
          -32 -11 callgsubr
          -113 -237 113 vlineto
          16 -12 9 -30 vhcurveto
          -23 -84 callgsubr
          -113 -22 vlineto
          -15 -7 -20 callgsubr
          -11 vlineto
          -23 31 callsubr
          22 -464 hlineto
          -2 callsubr
          31 vhcurveto
          -31 callsubr
          464 8 vlineto
          16 6 10 23 hvcurveto
          11 vlineto
          23 -6 10 -16 vhcurveto
          -117 -159 rmoveto
          -237 82 237 hlineto
          endchar
        </CharString>
        <CharString name="Hcircumflex">
          92 206 752 -107 callgsubr
          -90 -754 rmoveto
          -31 callsubr
          654 46 callsubr
          -32 -11 callgsubr
          -272 -237 272 vlineto
          16 -12 28 callsubr
          endchar
        </CharString>
        <CharString name="I">
          -247 120 -2 -79 callsubr
          endchar
        </CharString>
        <CharString name="IJ">
          108 120 -2 -79 callsubr
          248 -5 -60 callsubr
        </CharString>
        <CharString name="Iacute">
          -247 121 -92 callgsubr
          -1 -761 -79 callsubr
          endchar
        </CharString>
        <CharString name="Iacute_J.loclNLD">
          108 121 -92 callgsubr
          358 hmoveto
          -105 callgsubr
          -359 -761 -79 callsubr
          248 -5 -60 callsubr
        </CharString>
        <CharString name="Ibreve">
          -247 131 759 -99 callsubr
          -11 -761 -79 callsubr
          endchar
        </CharString>
        <CharString name="Icircumflex">
          -247 37 752 -107 callgsubr
          83 -754 -79 callsubr
          endchar
        </CharString>
        <CharString name="Idieresis">
          -247 63 776 -100 callgsubr
          -80 -778 -79 callsubr
          endchar
        </CharString>
        <CharString name="Idotaccent">
          -247 132 776 -104 callgsubr
          -12 -778 -79 callsubr
          endchar
        </CharString>
        <CharString name="Igrave">
          -247 152 759 -98 callsubr
          -32 -761 -79 callsubr
          endchar
        </CharString>
        <CharString name="Imacron">
          -247 35 785 -82 callsubr
          85 -787 -79 callsubr
          endchar
        </CharString>
        <CharString name="Iogonek">
          -247 245 -104 -6 callsubr
          19 7 29 15 29 hvcurveto
          3 3 1 5 5 vvcurveto
          -67 callsubr
          30 vhcurveto
          -17 -32 -5 -31 -20 -60 callgsubr
          endchar
        </CharString>
        <CharString name="Itilde">
          -247 4 766 rmoveto
          -106 callsubr
          126 -771 -79 callsubr
          endchar
        </CharString>
        <CharString name="J">
          -154 106 -7 -60 callsubr
        </CharString>
        <CharString name="Jcircumflex">
          -154 133 752 -107 callgsubr
          -27 -759 -60 callsubr
        </CharString>
        <CharString name="K">
          -39 callsubr
          endchar
        </CharString>
        <CharString name="Kcommaaccent">
          -39 callsubr
          -281 -266 -80 callsubr
          endchar
        </CharString>
        <CharString name="L">
          -101 102 hmoveto
          -62 callsubr
          endchar
        </CharString>
        <CharString name="Lacute">
          -101 118 760 -105 callsubr
          -16 -760 rmoveto
          -62 callsubr
          endchar
        </CharString>
        <CharString name="Lcaron">
          -101 102 hmoveto
          -62 callsubr
          182 522 -41 callgsubr
          endchar
        </CharString>
        <CharString name="Lcommaaccent">
          -101 102 hmoveto
          -62 callsubr
          89 -236 -80 callsubr
          endchar
        </CharString>
        <CharString name="Ldot">
          -101 102 hmoveto
          -62 callsubr
          195 303 2 callgsubr
        </CharString>
        <CharString name="Lslash">
          -101 372 92 rmoveto
          -191 322 hlineto
          13 8 rlineto
          4 1 2 3 3 vvcurveto
          2 -2 2 -1 -1 -1 -1 -1 -1 vhcurveto
          -13 -8 rlineto
          254 vlineto
          -43 callgsubr
          270 hlineto
          16 7 -70 callsubr
          -7 11 -16 vhcurveto
          -172 338 rmoveto
          0 0 0 -1 vvcurveto
          -104 -58 rmoveto
          0 0 -1 0 vhcurveto
          -1 vlineto
          endchar
        </CharString>
        <CharString name="M">
          180 331 234 rmoveto
          29 hlineto
          14 8 5 12 5 hvcurveto
          105 203 10 20 9 22 8 21 rlinecurve
          4 -2 rlineto
          -3 -22 -2 -22 -22 vvcurveto
          -426 vlineto
          -16 12 -9 32 vhcurveto
          18 hlineto
          31 13 22 callgsubr
          -13 9 -31 vhcurveto
          -24 hlineto
          -23 -14 -7 -14 -7 hvcurveto
          -150 -290 -8 -16 -5 -16 -4 -16 rlinecurve
          -3 16 -5 16 -8 16 -150 290 rcurveline
          14 -7 -14 7 -23 -49 callsubr
          18 -57 callgsubr
          426 vlineto
          22 -2 22 -3 22 vhcurveto
          4 2 8 -21 9 -22 10 -20 rlinecurve
          105 -203 rlineto
          -12 5 8 -5 14 hhcurveto
          endchar
        </CharString>
        <CharString name="N">
          81 -64 callgsubr
          endchar
        </CharString>
        <CharString name="Nacute">
          81 285 -92 callgsubr
          -174 -761 -100 callsubr
          endchar
        </CharString>
        <CharString name="Nacute.loclPLK">
          81 285 759 -79 callgsubr
          -174 -761 -100 callsubr
          endchar
        </CharString>
        <CharString name="Ncaron">
          81 289 757 -103 callgsubr
          -178 -759 -100 callsubr
          endchar
        </CharString>
        <CharString name="Ncommaaccent">
          81 -64 callgsubr
          145 -234 -80 callsubr
          endchar
        </CharString>
        <CharString name="Ntilde">
          81 168 766 rmoveto
          -106 callsubr
          -47 -771 -100 callsubr
          endchar
        </CharString>
        <CharString name="O">
          90 299 -7 -101 callgsubr
          endchar
        </CharString>
        <CharString name="OE">
          314 763 92 rmoveto
          -215 220 192 hlineto
          15 7 11 25 hvcurveto
          20 -5 callgsubr
          -192 204 214 hlineto
          15 7 11 25 hvcurveto
          20 -5 callgsubr
          -293 hlineto
          -21 -9 -10 -22 hvcurveto
          -24 vlineto
          45 -41 -48 18 -61 hhcurveto
          -152 -91 -105 -250 -251 92 -108 149 62 49 20 44 41 hvcurveto
          -24 54 callgsubr
          21 vhcurveto
          294 hlineto
          15 7 11 25 hvcurveto
          20 -5 callgsubr
          -467 -7 rmoveto
          -90 -48 77 189 194 48 69 90 93 49 -69 -194 -189 -49 -77 -93 hvcurveto
          endchar
        </CharString>
        <CharString name="Oacute">
          -1 callsubr
          9 -766 -101 callgsubr
          endchar
        </CharString>
        <CharString name="Oacute.loclPLK">
          90 290 759 -79 callgsubr
          9 -766 -101 callgsubr
          endchar
        </CharString>
        <CharString name="Obreve">
          90 300 759 -99 callsubr
          -1 -766 -101 callgsubr
          endchar
        </CharString>
        <CharString name="Ocircumflex">
          90 206 752 -107 callgsubr
          93 -759 -101 callgsubr
          endchar
        </CharString>
        <CharString name="Odieresis">
          90 232 776 -100 callgsubr
          -70 -783 -101 callgsubr
          endchar
        </CharString>
        <CharString name="Ograve">
          90 321 759 -98 callsubr
          -22 -766 -101 callgsubr
          endchar
        </CharString>
        <CharString name="Ohorn">
          90 299 -7 -86 callgsubr
        </CharString>
        <CharString name="Ohungarumlaut">
          90 207 759 -81 callsubr
          -46 -766 -101 callgsubr
          endchar
        </CharString>
        <CharString name="Omacron">
          90 204 785 -82 callsubr
          95 -792 -101 callgsubr
          endchar
        </CharString>
        <CharString name="Oslash">
          90 491 616 -53 callgsubr
        </CharString>
        <CharString name="Oslashacute">
          -1 callsubr
          201 -143 -53 callgsubr
        </CharString>
        <CharString name="Otilde">
          90 173 766 rmoveto
          -106 callsubr
          136 -776 -101 callgsubr
          endchar
        </CharString>
        <CharString name="P">
          112 -2 rmoveto
          20 -57 callgsubr
          265 98 vlineto
          43 136 23 186 176 -116 27 -71 hvcurveto
          -167 hlineto
          -22 -9 14 callgsubr
          31 vhcurveto
          64 381 rmoveto
          229 85 vlineto
          36 47 -19 -92 -99 -48 -19 -30 hvcurveto
          endchar
        </CharString>
        <CharString name="Q">
          90 535 -166 rmoveto
          25 27 62 13 2 hvcurveto
          7 -4 5 -8 4 vhcurveto
          -178 83 rlineto
          4 vlineto
          100 38 54 110 190 vvcurveto
          244 -90 113 -164 -162 -91 -112 -245 -181 49 -107 95 -48 vhcurveto
          -67 129 202 -113 14 hhcurveto
          -235 250 rmoveto
          -92 -50 77 189 188 50 76 92 92 50 -76 -188 -188 -50 -78 -92 hvcurveto
          endchar
        </CharString>
        <CharString name="R">
          4 115 -2 -41 callsubr
        </CharString>
        <CharString name="Racute">
          4 243 -92 callgsubr
          -128 -761 -41 callsubr
        </CharString>
        <CharString name="Rcaron">
          4 247 757 -103 callgsubr
          -132 -759 -41 callsubr
        </CharString>
        <CharString name="Rcommaaccent">
          4 115 -2 -85 callgsubr
          -49 -625 -80 callsubr
          endchar
        </CharString>
        <CharString name="S">
          -43 callsubr
          endchar
        </CharString>
        <CharString name="Sacute">
          -72 224 -92 callgsubr
          -22 -765 -94 callgsubr
          endchar
        </CharString>
        <CharString name="Sacute.loclPLK">
          -72 224 759 -79 callgsubr
          -22 -765 -94 callgsubr
          endchar
        </CharString>
        <CharString name="Scaron">
          -72 228 757 -103 callgsubr
          -26 -763 -94 callgsubr
          endchar
        </CharString>
        <CharString name="Scedilla">
          -72 413 196 rmoveto
          114 -68 44 -81 43 vhcurveto
          -66 36 -47 26 65 vvcurveto
          58 42 34 59 29 29 -6 -12 27 vhcurveto
          -3 7 6 -3 5 hhcurveto
          16 15 48 20 6 -2 7 -8 5 hvcurveto
          21 -32 -47 11 -46 hhcurveto
          -121 -86 -72 -123 -116 72 -45 89 -46 hvcurveto
          54 -28 46 -27 -65 vvcurveto
          -67 -47 -33 -58 -47 -40 14 23 -31 vhcurveto
          4 -9 -6 5 -7 hhcurveto
          -18 -12 -42 -24 -13 5 -6 7 -7 hvcurveto
          38 -30 56 -17 59 -1 rrcurveto
          -18 -55 -3 -10 -8 -65 callgsubr
          15 53 rlineto
          104 16 65 75 108 vvcurveto
          endchar
        </CharString>
        <CharString name="Scircumflex">
          -72 140 752 -107 callgsubr
          62 -758 -94 callgsubr
          endchar
        </CharString>
        <CharString name="Scommaaccent">
          -43 callsubr
          -22 -230 -80 callsubr
          endchar
        </CharString>
        <CharString name="T">
          -55 217 -2 -56 callsubr
          endchar
        </CharString>
        <CharString name="Tbar">
          -70 416 700 rmoveto
          -378 hlineto
          -15 -6 -11 -25 hvcurveto
          -20 vlineto
          -25 6 -11 15 vhcurveto
          135 -217 -95 hlineto
          -15 -7 -20 callgsubr
          -11 vlineto
          -23 31 callsubr
          95 -291 hlineto
          -2 callsubr
          31 vhcurveto
          21 hlineto
          32 12 -71 callsubr
          291 82 vlineto
          16 6 10 23 hvcurveto
          11 vlineto
          23 -6 10 -16 vhcurveto
          -82 217 134 hlineto
          -16 callsubr
          endchar
        </CharString>
        <CharString name="Tcaron">
          -55 221 757 -103 callgsubr
          -4 -759 -56 callsubr
          endchar
        </CharString>
        <CharString name="Thorn">
          112 35 callgsubr
          147 97 vlineto
          43 136 24 186 176 -116 26 -71 hvcurveto
          -89 95 hlineto
          16 -13 9 -31 vhcurveto
          -21 -55 callgsubr
          65 263 rmoveto
          230 83 vlineto
          38 46 -20 -91 -99 -48 -20 -30 hvcurveto
          endchar
        </CharString>
        <CharString name="U">
          74 292 -7 rmoveto
          145 83 76 129 hvcurveto
          479 vlineto
          16 -13 9 -31 vhcurveto
          -21 -97 callsubr
          vhcurveto
          endchar
        </CharString>
        <CharString name="Uacute">
          74 282 -92 callgsubr
          10 -766 rmoveto
          145 83 76 129 hvcurveto
          479 vlineto
          16 -13 9 -31 vhcurveto
          -21 -97 callsubr
          vhcurveto
          endchar
        </CharString>
        <CharString name="Ubreve">
          74 292 759 -99 callsubr
          -766 vmoveto
          145 83 76 129 hvcurveto
          479 vlineto
          16 -13 9 -31 vhcurveto
          -21 -97 callsubr
          vhcurveto
          endchar
        </CharString>
        <CharString name="Ucircumflex">
          74 198 752 -107 callgsubr
          94 -759 rmoveto
          145 83 76 129 hvcurveto
          479 vlineto
          16 -13 9 -31 vhcurveto
          -21 -97 callsubr
          vhcurveto
          endchar
        </CharString>
        <CharString name="Udieresis">
          74 224 776 -100 callgsubr
          -69 -783 rmoveto
          145 83 76 129 hvcurveto
          479 vlineto
          16 -13 9 -31 vhcurveto
          -21 -97 callsubr
          vhcurveto
          endchar
        </CharString>
        <CharString name="Ugrave">
          74 313 759 -98 callsubr
          -21 -766 rmoveto
          145 83 76 129 hvcurveto
          479 vlineto
          16 -13 9 -31 vhcurveto
          -21 -97 callsubr
          vhcurveto
          endchar
        </CharString>
        <CharString name="Uhorn">
          61 592 757 -88 callsubr
          endchar
        </CharString>
        <CharString name="Uhungarumlaut">
          74 199 759 -81 callsubr
          -45 -766 rmoveto
          145 83 76 129 hvcurveto
          479 vlineto
          16 -13 9 -31 vhcurveto
          -21 -97 callsubr
          vhcurveto
          endchar
        </CharString>
        <CharString name="Umacron">
          74 196 785 -82 callsubr
          96 -792 rmoveto
          145 83 76 129 hvcurveto
          479 vlineto
          16 -13 9 -31 vhcurveto
          -21 -97 callsubr
          vhcurveto
          endchar
        </CharString>
        <CharString name="Uogonek">
          74 520 198 rmoveto
          479 vlineto
          16 -13 9 -31 vhcurveto
          -21 -97 callsubr
          22 21 2 3 19 vhcurveto
          -12 -28 -4 -27 -17 -60 callgsubr
          -27 callgsubr
          20 7 29 15 28 hvcurveto
          63 33 34 61 83 vvcurveto
          endchar
        </CharString>
        <CharString name="Uring">
          74 290 737 rmoveto
          -67 callgsubr
          2 -787 rmoveto
          145 83 76 129 hvcurveto
          479 vlineto
          16 -13 9 -31 vhcurveto
          -21 -97 callsubr
          vhcurveto
          endchar
        </CharString>
        <CharString name="Utilde">
          74 165 766 rmoveto
          -106 callsubr
          137 -776 rmoveto
          145 83 76 129 hvcurveto
          479 vlineto
          16 -13 9 -31 vhcurveto
          -21 -97 callsubr
          vhcurveto
          endchar
        </CharString>
        <CharString name="V">
          -1 227 -2 rmoveto
          52 hlineto
          22 17 4 13 3 hvcurveto
          168 653 rlineto
          2 7 1 4 5 vvcurveto
          11 -15 7 -30 vhcurveto
          -19 hlineto
          -22 -17 -5 -15 -4 hvcurveto
          -122 -508 -9 -58 rlineto
          -3 hlineto
          -8 57 -120 509 rlineto
          15 -4 -17 5 -21 hhcurveto
          -21 hlineto
          -31 -14 -7 -11 -5 2 -4 1 -6 hvcurveto
          168 -654 -44 callgsubr
          endchar
        </CharString>
        <CharString name="W">
          243 193 -2 -91 callsubr
        </CharString>
        <CharString name="Wacute">
          243 366 -92 callgsubr
          -173 -761 -91 callsubr
        </CharString>
        <CharString name="Wcircumflex">
          243 282 752 -107 callgsubr
          -89 -754 -91 callsubr
        </CharString>
        <CharString name="Wdieresis">
          243 308 776 -100 callgsubr
          -252 -778 -91 callsubr
        </CharString>
        <CharString name="Wgrave">
          243 397 759 -98 callsubr
          -204 -761 -91 callsubr
        </CharString>
        <CharString name="X">
          -3 64 -2 rmoveto
          24 hlineto
          21 16 1 15 6 hvcurveto
          123 277 118 -277 rlineto
          -13 5 17 -3 21 hhcurveto
          27 hlineto
          33 14 6 12 5 -3 6 -4 9 hvcurveto
          -159 332 147 296 rlineto
          4 9 3 6 5 vvcurveto
          12 -15 6 -32 vhcurveto
          -23 hlineto
          -21 -17 -2 -14 -6 hvcurveto
          -107 -247 -102 247 rlineto
          14 -6 -17 2 -20 hhcurveto
          -28 hlineto
          -33 -14 -7 -11 -5 3 -7 5 -8 hvcurveto
          142 -299 -161 -329 rlineto
          -5 -10 -3 -5 -5 vvcurveto
          -12 14 -6 33 vhcurveto
          endchar
        </CharString>
        <CharString name="Y">
          -25 232 -2 rmoveto
          -88 callgsubr
        </CharString>
        <CharString name="Y.loclGUA">
          -11 395 702 -95 callgsubr
          endchar
        </CharString>
        <CharString name="Yacute">
          -25 232 -92 callgsubr
          -761 vmoveto
          -88 callgsubr
        </CharString>
        <CharString name="Yacute.loclGUA">
          -11 238 -92 callgsubr
          157 -57 -95 callgsubr
          endchar
        </CharString>
        <CharString name="Ycircumflex">
          -25 148 752 -107 callgsubr
          84 -754 rmoveto
          -88 callgsubr
        </CharString>
        <CharString name="Ycircumflex.loclGUA">
          -11 154 752 -107 callgsubr
          241 -50 -95 callgsubr
          endchar
        </CharString>
        <CharString name="Ydieresis">
          -25 174 776 -100 callgsubr
          -79 -778 rmoveto
          -88 callgsubr
        </CharString>
        <CharString name="Ydieresis.loclGUA">
          -11 180 776 -100 callgsubr
          78 -74 -95 callgsubr
          endchar
        </CharString>
        <CharString name="Ygrave">
          -25 263 759 -98 callsubr
          -31 -761 rmoveto
          -88 callgsubr
        </CharString>
        <CharString name="Ygrave.loclGUA">
          -11 269 759 -98 callsubr
          126 -57 -95 callgsubr
          endchar
        </CharString>
        <CharString name="Z">
          -2 59 -50 callgsubr
          endchar
        </CharString>
        <CharString name="Zacute">
          -2 247 -92 callgsubr
          -188 -759 rmoveto
          -89 callsubr
          endchar
        </CharString>
        <CharString name="Zacute.loclPLK">
          -2 247 759 -79 callgsubr
          -188 -759 rmoveto
          -89 callsubr
          endchar
        </CharString>
        <CharString name="Zcaron">
          -2 251 757 -103 callgsubr
          -192 -757 rmoveto
          -89 callsubr
          endchar
        </CharString>
        <CharString name="Zdotaccent">
          -2 258 776 -104 callgsubr
          -199 -776 rmoveto
          -89 callsubr
          endchar
        </CharString>
        <CharString name="a">
          -28 191 -7 -104 callsubr
        </CharString>
        <CharString name="aacute">
          -28 231 -92 callsubr
          -40 -36 callgsubr
        </CharString>
        <CharString name="abreve">
          -28 241 582 -90 callgsubr
        </CharString>
        <CharString name="acircumflex">
          -28 147 575 -107 callgsubr
          44 -582 -104 callsubr
        </CharString>
        <CharString name="acute">
          -253 71 -92 callsubr
          endchar
        </CharString>
        <CharString name="acute.loclPLK">
          -253 80 582 -79 callgsubr
          endchar
        </CharString>
        <CharString name="acutecomb">
          -509 -105 -92 callsubr
          endchar
        </CharString>
        <CharString name="adieresis">
          -28 173 599 -100 callgsubr
          -119 -606 -104 callsubr
        </CharString>
        <CharString name="ae">
          155 177 -7 -55 callsubr
        </CharString>
        <CharString name="aeacute">
          155 330 -92 callsubr
          -153 -589 -55 callsubr
        </CharString>
        <CharString name="agrave">
          -28 262 582 -98 callsubr
          -71 -36 callgsubr
        </CharString>
        <CharString name="amacron">
          -28 145 608 -82 callsubr
          46 -615 -104 callsubr
        </CharString>
        <CharString name="ampersand">
          11 480 83 rmoveto
          -5 -6 -5 -14 hhcurveto
          -20 -12 14 51 hvcurveto
          185 47 vlineto
          15 2 callsubr
          -15 vhcurveto
          -47 102 hlineto
          16 -11 9 -25 vhcurveto
          -20 hlineto
          -24 -13 -9 -16 -1 hvcurveto
          -12 -102 rlineto
          -80 hlineto
          -58 -31 60 50 41 16 58 57 hvcurveto
          21 16 -9 6 hhcurveto
          13 11 42 17 27 -48 8 -34 -98 -66 -59 -111 -73 32 -52 45 -22 hvcurveto
          -4 vlineto
          -59 -20 -36 -64 -99 vvcurveto
          -148 81 -62 100 62 39 20 23 39 vhcurveto
          -33 21 30 -10 35 hhcurveto
          24 48 3 33 8 -8 46 -15 hvcurveto
          -350 122 rmoveto
          91 33 32 69 vhcurveto
          85 -197 hlineto
          -7 1 -7 1 -7 vhcurveto
          -18 -36 -31 -14 -33 hhcurveto
          -47 -42 31 96 hvcurveto
          endchar
        </CharString>
        <CharString name="aogonek">
          -28 481 -93 -6 callsubr
          18 6 26 13 27 hvcurveto
          3 2 2 4 4 9 -12 34 88 vvcurveto
          216 vlineto
          97 -59 61 -119 -84 -80 -33 -28 -14 24 -44 16 vhcurveto
          12 40 34 68 hhcurveto
          59 21 -33 -41 hvcurveto
          -38 vlineto
          -146 -1 -113 -46 -137 vvcurveto
          -99 55 -57 89 56 40 28 35 27 vhcurveto
          -28 7 6 -29 23 hhcurveto
          -13 -28 -4 -27 -18 -60 callgsubr
          -175 224 rmoveto
          -32 -22 -31 -18 -37 hhcurveto
          -46 -22 26 46 87 77 15 81 1 hvcurveto
          endchar
        </CharString>
        <CharString name="approxequal">
          -71 376 250 rmoveto
          6 8 4 11 3 11 rrcurveto
          50 callsubr
          -7 3 rlineto
          2 -4 -3 1 -3 hhcurveto
          -5 -7 -5 -11 -6 hvcurveto
          -20 -12 -15 -5 -12 -39 -76 39 -42 hhcurveto
          -45 -31 -23 -48 -13 hvcurveto
          50 callgsubr
          -5 -9 -5 -10 -3 -12 rrcurveto
          50 callgsubr
          8 -4 rlineto
          -2 3 3 0 2 hhcurveto
          7 5 4 11 7 hvcurveto
          21 11 15 5 11 40 76 -39 43 hhcurveto
          45 31 23 47 13 hvcurveto
          50 callsubr
          endchar
        </CharString>
        <CharString name="aring">
          -28 239 -6 callgsubr
          -48 -610 -104 callsubr
        </CharString>
        <CharString name="aringacute">
          -28 232 764 -105 callsubr
          7 -204 rmoveto
          -67 callgsubr
          -48 -610 -104 callsubr
        </CharString>
        <CharString name="arrowdown">
          -4 252 1 rmoveto
          8 5 2 5 5 hvcurveto
          213 215 rlineto
          12 11 4 12 16 vvcurveto
          63 vlineto
          12 -2 7 -5 -3 -5 -4 -6 -6 vhcurveto
          -186 -189 rlineto
          537 vlineto
          16 -10 9 -24 vhcurveto
          -12 hlineto
          -24 -10 -66 callsubr
          -537 vlineto
          -186 190 rlineto
          6 -6 -5 4 -3 hhcurveto
          -5 -2 -7 -12 hvcurveto
          -64 vlineto
          -16 5 -12 11 -11 vhcurveto
          213 -215 rlineto
          -5 5 6 -2 7 hhcurveto
          endchar
        </CharString>
        <CharString name="arrowleft">
          91 230 hmoveto
          52 hlineto
          12 7 2 6 4 -3 6 -7 8 hvcurveto
          -161 198 rlineto
          443 hlineto
          15 9 10 24 hvcurveto
          13 vlineto
          24 -9 10 -15 vhcurveto
          -443 hlineto
          160 198 rlineto
          7 9 3 6 3 vvcurveto
          6 -6 2 -13 vhcurveto
          -52 hlineto
          -17 -10 -4 -12 -10 hvcurveto
          -185 -230 rlineto
          -5 -6 -2 -4 -8 vvcurveto
          -8 2 -5 5 -5 vhcurveto
          186 -230 rlineto
          -12 10 10 -5 17 hhcurveto
          endchar
        </CharString>
        <CharString name="arrowright">
          91 319 hmoveto
          52 hlineto
          16 11 5 12 10 hvcurveto
          185 230 rlineto
          5 5 2 5 6 vvcurveto
          10 -2 4 -5 6 vhcurveto
          -185 230 rlineto
          12 -10 -11 4 -16 hhcurveto
          -52 hlineto
          -13 -6 -2 -6 -3 3 -6 7 -9 hvcurveto
          160 -198 rlineto
          -442 hlineto
          -16 -8 -10 -24 hvcurveto
          -13 vlineto
          -24 8 -10 16 vhcurveto
          442 hlineto
          -161 -198 rlineto
          -6 -8 -4 -6 -4 vvcurveto
          -6 7 -2 13 vhcurveto
          endchar
        </CharString>
        <CharString name="arrowup">
          -4 246 -3 rmoveto
          12 hlineto
          24 10 8 16 hvcurveto
          544 vlineto
          186 -190 rlineto
          -6 6 5 -4 3 hhcurveto
          5 2 7 12 hvcurveto
          64 vlineto
          16 -5 12 -11 11 vhcurveto
          -213 214 rlineto
          6 -6 -4 1 -8 hhcurveto
          -9 -4 -2 -5 -5 hvcurveto
          -213 -214 rlineto
          -11 -11 -5 -12 -16 vvcurveto
          -64 vlineto
          -12 2 -7 5 3 5 4 6 6 vhcurveto
          186 190 rlineto
          -544 vlineto
          -16 10 -8 24 vhcurveto
          endchar
        </CharString>
        <CharString name="asciicircum">
          -149 56 319 rmoveto
          14 hlineto
          19 11 8 17 6 hvcurveto
          74 246 74 -246 rlineto
          -17 5 14 -8 18 hhcurveto
          13 hlineto
          17 7 8 12 4 -1 5 -1 5 hvcurveto
          -103 309 rlineto
          17 -6 -9 6 -16 hhcurveto
          -23 hlineto
          -16 -10 -6 -17 -6 hvcurveto
          -103 -309 rlineto
          -1 -5 -1 -5 -4 vvcurveto
          -12 8 -8 16 vhcurveto
          endchar
        </CharString>
        <CharString name="asciitilde">
          -72 74 224 rmoveto
          -1 5 5 -1 4 hhcurveto
          10 6 4 10 8 hvcurveto
          19 14 11 5 14 39 61 -37 49 hhcurveto
          45 33 23 46 22 hvcurveto
          3 5 1 4 5 vvcurveto
          8 -5 4 -13 4 vhcurveto
          -9 3 rlineto
          2 -5 -4 1 -5 hhcurveto
          -10 -8 -5 -11 -8 hvcurveto
          -18 -14 -11 -5 -15 hhcurveto
          1 -39 -61 36 -47 hhcurveto
          -46 -33 -22 -47 -21 hvcurveto
          -3 -5 -1 -5 -4 vvcurveto
          -6 4 -6 12 -4 vhcurveto
          endchar
        </CharString>
        <CharString name="asterisk">
          -210 78 429 rmoveto
          5 7 4 7 5 hvcurveto
          53 82 52 -82 rlineto
          -7 5 6 -4 6 hhcurveto
          11 15 11 10 5 -2 5 -4 callsubr
          -55 88 77 29 rlineto
          11 5 5 4 9 vvcurveto
          16 -9 11 -12 -3 -5 0 -3 -5 vhcurveto
          -70 -26 rlineto
          87 vlineto
          16 -7 7 -16 -16 -7 -7 -16 vhcurveto
          -87 vlineto
          -71 26 rlineto
          3 -5 -5 0 -4 hhcurveto
          -12 -8 -13 -14 -9 5 -4 11 -5 hvcurveto
          76 -29 -54 -88 rlineto
          -5 -6 -2 -5 -5 vvcurveto
          -10 15 -11 12 vhcurveto
          endchar
        </CharString>
        <CharString name="at">
          283 442 706 rmoveto
          -219 -168 -206 -262 -215 112 -148 165 44 99 11 39 18 -5 8 -9 hvcurveto
          -18 -32 -29 -74 hhcurveto
          -136 -89 127 187 238 144 185 183 138 93 -109 -171 -137 -55 -125 -59 -10 -22 4 33 hvcurveto
          28 27 288 10 vvcurveto
          13 -8 9 -21 vhcurveto
          -8 hlineto
          -25 -4 -8 -32 -10 hvcurveto
          18 -15 -31 26 -43 hhcurveto
          -103 -68 -111 -158 -139 65 -43 52 44 38 24 48 26 hvcurveto
          -46 7 32 -26 50 hhcurveto
          116 82 144 178 201 -114 128 -171 hvcurveto
          -491 vmoveto
          -66 -23 -33 -21 -25 hhcurveto
          -33 -25 27 88 102 23 88 75 27 20 -14 -12 12 hvcurveto
          -8 -36 -8 -105 -2 -51 rrcurveto
          endchar
        </CharString>
        <CharString name="atilde">
          -28 114 589 rmoveto
          -106 callsubr
          87 -599 -104 callsubr
        </CharString>
        <CharString name="b">
          283 -7 rmoveto
          93 62 106 165 171 -65 95 -100 -47 -29 -20 -25 -23 hvcurveto
          243 vlineto
          16 -13 9 -31 10 callgsubr
          -705 vlineto
          -16 12 -9 29 vhcurveto
          7 hlineto
          20 14 3 13 4 hvcurveto
          10 53 rlineto
          -48 29 42 -26 46 hhcurveto
          -29 87 rmoveto
          -30 -28 22 37 -22 hvcurveto
          268 vlineto
          23 19 25 13 28 hhcurveto
          58 27 -57 -121 -121 -26 -64 -51 hvcurveto
          endchar
        </CharString>
        <CharString name="backslash">
          -220 236 -21 rmoveto
          20 hlineto
          17 10 8 12 4 -1 5 -2 10 hvcurveto
          -200 660 rlineto
          17 -5 -11 7 -18 hhcurveto
          -18 hlineto
          -18 -9 -8 -11 -4 0 -3 3 -13 hvcurveto
          199 -660 rlineto
          -16 4 12 -8 17 hhcurveto
          endchar
        </CharString>
        <CharString name="bar">
          -309 95 -139 rmoveto
          11 hlineto
          25 9 8 16 hvcurveto
          860 vlineto
          16 -9 8 -25 vhcurveto
          -11 hlineto
          -24 -10 -8 -16 hvcurveto
          -860 vlineto
          -16 10 -8 24 vhcurveto
          endchar
        </CharString>
        <CharString name="braceleft">
          -260 168 -138 rmoveto
          43 hlineto
          16 7 9 23 hvcurveto
          7 vlineto
          23 -7 9 -15 vhcurveto
          -12 hlineto
          -25 -6 20 35 hvcurveto
          186 vlineto
          86 -48 44 -20 10 vhcurveto
          22 14 46 44 84 vvcurveto
          187 vlineto
          35 6 19 26 vhcurveto
          12 hlineto
          15 6 10 22 hvcurveto
          7 vlineto
          23 -7 9 -16 vhcurveto
          -43 hlineto
          -35 -49 -29 -87 hvcurveto
          -180 vlineto
          -60 -7 -35 -35 -17 vhcurveto
          -17 -8 -9 -10 -20 vvcurveto
          -14 vlineto
          -20 9 -10 17 -8 vhcurveto
          35 -17 7 -36 -59 vvcurveto
          -180 vlineto
          -89 49 -27 35 vhcurveto
          endchar
        </CharString>
        <CharString name="braceright">
          -260 42 -138 rmoveto
          42 hlineto
          35 49 27 89 hvcurveto
          180 vlineto
          59 8 36 35 17 vhcurveto
          17 8 9 10 20 vvcurveto
          14 vlineto
          20 -9 10 -17 8 vhcurveto
          -35 17 -8 35 60 vvcurveto
          180 vlineto
          87 -49 29 -35 vhcurveto
          -42 hlineto
          -16 -7 -9 -23 hvcurveto
          -7 vlineto
          -22 6 -10 15 vhcurveto
          12 hlineto
          26 6 -19 -35 hvcurveto
          -187 vlineto
          -84 46 -44 22 -14 vhcurveto
          -20 -10 -48 -44 -86 vvcurveto
          -186 vlineto
          -35 -6 -20 -25 vhcurveto
          -12 hlineto
          -15 -7 -9 -23 hvcurveto
          -7 vlineto
          -23 7 -9 16 vhcurveto
          endchar
        </CharString>
        <CharString name="bracketleft">
          -270 91 -138 rmoveto
          104 hlineto
          16 5 9 23 hvcurveto
          7 vlineto
          23 -5 10 -16 vhcurveto
          -50 762 50 hlineto
          16 5 9 23 hvcurveto
          8 vlineto
          23 -5 9 -16 vhcurveto
          -104 hlineto
          -21 -8 -20 callgsubr
          -840 vlineto
          -23 8 -10 21 vhcurveto
          endchar
        </CharString>
        <CharString name="bracketright">
          -270 45 -138 rmoveto
          104 hlineto
          20 9 10 23 hvcurveto
          840 vlineto
          23 -9 10 -20 vhcurveto
          -104 hlineto
          -15 -7 -9 -23 hvcurveto
          -8 vlineto
          -23 7 -9 15 vhcurveto
          50 -762 -50 hlineto
          -15 -7 -20 callgsubr
          -7 vlineto
          -23 7 -9 15 vhcurveto
          endchar
        </CharString>
        <CharString name="breve">
          -253 127 -77 callsubr
          endchar
        </CharString>
        <CharString name="brokenbar">
          -309 95 396 rmoveto
          11 hlineto
          25 9 -71 callsubr
          324 42 callgsubr
          -324 vlineto
          -16 10 -9 24 vhcurveto
          -536 vmoveto
          11 hlineto
          25 9 -71 callsubr
          323 42 callgsubr
          -323 vlineto
          -16 10 -9 24 vhcurveto
          endchar
        </CharString>
        <CharString name="bullet">
          -211 148 200 rmoveto
          64 53 40 86 86 -53 41 -64 -64 -52 -41 -86 -86 52 -40 64 hvcurveto
          endchar
        </CharString>
        <CharString name="c">
          -101 253 -7 -78 callgsubr
        </CharString>
        <CharString name="cacute">
          -101 225 -92 callsubr
          28 -589 -78 callgsubr
        </CharString>
        <CharString name="cacute.loclPLK">
          -101 225 582 -79 callgsubr
          28 -589 -78 callgsubr
        </CharString>
        <CharString name="caron">
          -253 119 580 -103 callgsubr
          endchar
        </CharString>
        <CharString name="caron.alt">
          -253 77 522 -41 callgsubr
          endchar
        </CharString>
        <CharString name="ccaron">
          -101 229 580 -103 callgsubr
          24 -587 -78 callgsubr
        </CharString>
        <CharString name="ccedilla">
          -101 390 50 rmoveto
          16 -20 42 -17 -2 -5 -5 -3 -7 vhcurveto
          -9 -16 -24 -13 -40 hhcurveto
          -77 -31 55 132 131 37 49 70 36 26 -15 -8 15 hvcurveto
          -3 5 4 -2 4 hhcurveto
          13 22 43 17 28 -67 25 -64 -127 -82 -67 -200 -175 60 -82 119 -12 hvcurveto
          -18 -55 -3 -10 -8 -65 callgsubr
          14 50 rlineto
          53 5 67 25 26 vvcurveto
          endchar
        </CharString>
        <CharString name="ccircumflex">
          -101 141 575 -107 callgsubr
          112 -582 -78 callgsubr
        </CharString>
        <CharString name="cdotaccent">
          -101 236 -78 callsubr
          17 -606 -78 callgsubr
        </CharString>
        <CharString name="cedilla">
          -253 151 -56 rmoveto
          17 59 rlineto
          -48 hlineto
          -21 -63 -3 -11 -8 -65 callgsubr
          endchar
        </CharString>
        <CharString name="cent">
          -69 390 50 rmoveto
          16 -20 42 -17 -2 -5 -5 -3 -7 vhcurveto
          -9 -16 -24 -13 -40 hhcurveto
          -5 367 4 hlineto
          36 26 -15 -8 15 hvcurveto
          -3 5 4 -2 4 hhcurveto
          13 22 43 17 28 -66 24 -63 1 hvcurveto
          34 vlineto
          14 -7 6 -15 -14 -7 -6 -14 vhcurveto
          -37 vlineto
          -103 -14 -65 -72 -178 vvcurveto
          -170 56 -82 112 -15 vhcurveto
          -52 vlineto
          -14 7 -6 15 14 7 6 14 vhcurveto
          49 vlineto
          54 82 28 29 hvcurveto
          -239 215 rmoveto
          98 21 52 39 20 vhcurveto
          -347 vlineto
          -42 21 -18 56 100 vvcurveto
          endchar
        </CharString>
        <CharString name="circumflex">
          -253 32 575 -107 callgsubr
          endchar
        </CharString>
        <CharString name="colon">
          -321 83 402 rmoveto
          -42 callgsubr
          -404 vmoveto
          -42 callgsubr
          endchar
        </CharString>
        <CharString name="comma">
          -321 45 -119 4 callgsubr
        </CharString>
        <CharString name="copyright">
          -25 callgsubr
          11 94 rmoveto
          41 59 23 21 8 -12 29 -13 hvcurveto
          -6 -24 -28 -45 hhcurveto
          -58 -28 50 106 107 28 49 59 hvcurveto
          44 19 -25 5 hhcurveto
          10 16 29 12 18 -51 19 -42 -100 -51 -69 -140 -143 48 -66 101 hvcurveto
          endchar
        </CharString>
        <CharString name="currency">
          -47 91 123 rmoveto
          8 7 3 7 7 hvcurveto
          24 24 rlineto
          -19 26 31 -12 34 hhcurveto
          36 31 12 20 26 hvcurveto
          23 -24 rlineto
          -8 8 7 -3 8 hhcurveto
          7 7 4 5 6 hvcurveto
          9 10 rlineto
          6 6 5 9 5 vvcurveto
          8 -4 7 -8 8 vhcurveto
          -29 29 rlineto
          15 29 9 33 36 vvcurveto
          36 -9 34 -15 29 vhcurveto
          30 31 rlineto
          8 8 3 8 7 vvcurveto
          7 -3 6 -6 6 vhcurveto
          -11 10 rlineto
          7 -6 -8 3 -6 hhcurveto
          -8 -7 -4 -7 -7 hvcurveto
          -25 -25 rlineto
          19 -26 -31 13 -35 hhcurveto
          -34 -31 -13 -20 -25 hvcurveto
          -26 26 rlineto
          8 -7 -8 4 -7 hhcurveto
          -7 -7 -4 -5 -5 hvcurveto
          -11 -13 rlineto
          -6 -5 -2 -8 -5 vvcurveto
          -8 3 -8 7 -7 vhcurveto
          31 -29 rlineto
          -16 -29 -9 -35 -37 vvcurveto
          -36 9 -34 15 -28 vhcurveto
          -29 -29 rlineto
          -7 -8 -4 -8 -7 vvcurveto
          -8 3 -6 6 -6 vhcurveto
          10 -10 rlineto
          -6 7 7 -3 6 hhcurveto
          137 79 rmoveto
          -46 -38 38 72 73 38 39 46 48 37 -39 -73 -72 -37 -38 -48 hvcurveto
          endchar
        </CharString>
        <CharString name="d">
          -28 -69 callgsubr
          29 87 -19 callgsubr
        </CharString>
        <CharString name="dagger">
          44 callsubr
          534 111 vlineto
          -12 callgsubr
          -534 hlineto
          -16 11 -9 26 vhcurveto
          endchar
        </CharString>
        <CharString name="daggerdbl">
          44 callsubr
          170 111 vlineto
          17 callgsubr
          16 27 callsubr
          vhcurveto
          -111 276 111 hlineto
          -12 callgsubr
          -276 -113 1 callgsubr
          -16 -24 callsubr
          113 -170 hlineto
          -16 11 -9 26 vhcurveto
          endchar
        </CharString>
        <CharString name="dcaron">
          -28 -69 callgsubr
          276 529 -41 callgsubr
          -247 -442 -19 callgsubr
        </CharString>
        <CharString name="dcroat">
          -42 453 671 rmoveto
          -41 57 hlineto
          16 -14 9 -30 10 callgsubr
          -57 -81 vlineto
          -17 -8 -20 callgsubr
          -11 vlineto
          -23 8 -10 17 vhcurveto
          81 -109 hlineto
          25 -23 -30 20 -46 hhcurveto
          -100 -65 -96 -170 -165 61 -106 94 46 41 26 48 28 hvcurveto
          -32 5 4 -36 26 hhcurveto
          15 59 6 19 hvcurveto
          11 -11 33 88 vvcurveto
          438 41 vlineto
          18 7 10 23 hvcurveto
          11 vlineto
          23 -7 10 -18 vhcurveto
          -145 -530 rmoveto
          -38 -21 -29 -23 -30 hhcurveto
          -52 -26 65 119 120 28 59 59 28 24 -13 -23 19 hvcurveto
          endchar
        </CharString>
        <CharString name="degree">
          -233 137 442 rmoveto
          61 45 47 85 85 -45 48 -61 -61 -45 -48 -85 -85 45 -47 61 hvcurveto
          -1 49 rmoveto
          -32 -21 29 54 53 21 30 32 32 21 -30 -53 -54 -21 -29 -32 hvcurveto
          endchar
        </CharString>
        <CharString name="dieresis">
          -253 60 599 -100 callgsubr
          endchar
        </CharString>
        <CharString name="divide">
          -61 220 354 rmoveto
          7 hlineto
          31 13 8 16 hvcurveto
          57 -61 callsubr
          -7 55 callsubr
          52 callgsubr
          -169 -164 rmoveto
          347 hlineto
          17 7 12 24 hvcurveto
          7 vlineto
          24 -7 11 -17 vhcurveto
          -347 hlineto
          -16 -8 -11 -24 hvcurveto
          -7 vlineto
          -24 8 -12 16 vhcurveto
          169 -192 rmoveto
          7 -57 callgsubr
          57 -61 callsubr
          -7 55 callsubr
          -38 callsubr
          31 vhcurveto
          endchar
        </CharString>
        <CharString name="dollar">
          -69 223 -72 rmoveto
          6 hlineto
          13 5 5 12 hvcurveto
          53 vlineto
          100 18 64 71 110 vvcurveto
          122 -81 41 -76 38 vhcurveto
          -7 4 1 214 rlineto
          31 29 -7 -11 24 hvcurveto
          -2 6 7 -3 6 hhcurveto
          17 14 50 19 -1 hvcurveto
          -1 6 -2 7 -10 6 -32 19 -41 9 -48 1 rrcurveto
          33 vlineto
          12 -5 5 -13 vhcurveto
          -6 hlineto
          -12 -7 -5 -12 1 hvcurveto
          -36 vlineto
          -100 -14 -66 -72 -107 vvcurveto
          -121 80 -44 86 -40 vhcurveto
          -221 vlineto
          -53 -42 12 28 -39 hvcurveto
          2 -4 -3 3 -5 hhcurveto
          -19 -11 -44 -24 2 hvcurveto
          -18 14 -9 14 -7 vhcurveto
          -25 39 47 -12 60 hhcurveto
          -49 vlineto
          -12 5 -5 13 vhcurveto
          -18 496 rmoveto
          -39 24 -25 28 -1 44 rrcurveto
          45 24 32 41 13 vhcurveto
          42 -514 rmoveto
          190 vlineto
          35 -20 28 -25 -51 vvcurveto
          -47 -25 -34 -38 -13 vhcurveto
          endchar
        </CharString>
        <CharString name="dotaccent">
          -253 130 -78 callsubr
          endchar
        </CharString>
        <CharString name="dotbelowcomb">
          -509 4 -183 -104 callgsubr
          endchar
        </CharString>
        <CharString name="dotlessi">
          -255 122 -2 -70 callgsubr
        </CharString>
        <CharString name="e">
          -55 257 -7 -98 callgsubr
        </CharString>
        <CharString name="eacute">
          -55 221 -92 callsubr
          36 -589 -98 callgsubr
        </CharString>
        <CharString name="ebreve">
          -55 231 -77 callsubr
          26 -589 -98 callgsubr
        </CharString>
        <CharString name="ecaron">
          -55 225 580 -103 callgsubr
          32 -587 -98 callgsubr
        </CharString>
        <CharString name="ecircumflex">
          -50 callsubr
          endchar
        </CharString>
        <CharString name="edieresis">
          -55 163 599 -100 callgsubr
          -43 -606 -98 callgsubr
        </CharString>
        <CharString name="edotaccent">
          -55 232 -78 callsubr
          25 -606 -98 callgsubr
        </CharString>
        <CharString name="egrave">
          -55 252 582 -98 callsubr
          5 -589 -98 callgsubr
        </CharString>
        <CharString name="eight">
          -50 230 -7 rmoveto
          121 74 82 121 103 -49 46 -56 32 hvcurveto
          48 26 41 48 85 vvcurveto
          113 -80 58 -96 -103 -74 -64 -114 -81 35 -44 43 -31 vhcurveto
          -52 -27 -46 -52 -100 vvcurveto
          -128 78 -73 116 vhcurveto
          15 425 rmoveto
          -49 25 -41 27 64 vvcurveto
          60 35 28 42 43 36 -28 -62 -53 -26 -35 -40 -26 vhcurveto
          -15 -340 rmoveto
          -51 -41 37 84 67 27 37 41 28 hvcurveto
          60 -29 57 -26 -82 vvcurveto
          -68 -38 -48 -55 vhcurveto
          endchar
        </CharString>
        <CharString name="ellipsis">
          43 83 -2 rmoveto
          20 -57 callgsubr
          73 -61 callsubr
          -20 -84 callgsubr
          -73 -38 callsubr
          31 vhcurveto
          183 hmoveto
          20 -57 callgsubr
          73 -61 callsubr
          -20 -84 callgsubr
          -73 -38 callsubr
          31 vhcurveto
          182 hmoveto
          -15 callgsubr
          73 vlineto
          16 -13 9 -31 vhcurveto
          -21 34 callgsubr
        </CharString>
        <CharString name="emacron">
          -55 135 608 -82 callsubr
          122 -615 -98 callgsubr
        </CharString>
        <CharString name="emdash">
          377 22 225 rmoveto
          842 19 callgsubr
          -842 0 callgsubr
        </CharString>
        <CharString name="endash">
          -66 22 225 rmoveto
          399 19 callgsubr
          -399 0 callgsubr
        </CharString>
        <CharString name="eng">
          302 -212 rmoveto
          53 65 30 111 hvcurveto
          449 vlineto
          96 -44 56 -80 -54 -45 -31 -45 -29 vhcurveto
          33 -6 0 35 -28 hhcurveto
          -14 -60 -6 -20 hvcurveto
          -9 10 -34 -87 vvcurveto
          -343 -38 callsubr
          30 vhcurveto
          -7 callgsubr
          360 vlineto
          34 18 29 25 33 hhcurveto
          43 18 -28 -51 hvcurveto
          -429 vlineto
          -48 -14 -13 -19 vhcurveto
          -21 -7 5 -7 hhcurveto
          -15 -8 -42 -12 -30 41 -6 37 hvcurveto
          endchar
        </CharString>
        <CharString name="eogonek">
          -55 426 -100 rmoveto
          11 callsubr
          27 12 18 16 15 vvcurveto
          14 -23 44 -17 vhcurveto
          -10 -32 -39 -69 hhcurveto
          -69 -32 42 100 -6 hvcurveto
          232 hlineto
          13 26 33 13 170 -57 94 -122 -127 -73 -86 -186 -177 69 -88 145 13 14 1 2 13 hvcurveto
          -14 -29 -5 -30 -18 -60 callgsubr
          -185 547 rmoveto
          53 25 -48 -102 hvcurveto
          -169 hlineto
          105 5 30 45 56 hhcurveto
          endchar
        </CharString>
        <CharString name="equal">
          55 callgsubr
          -332 11 callgsubr
          332 24 callgsubr
        </CharString>
        <CharString name="estimated">
          106 155 355 rmoveto
          438 hlineto
          227 -127 125 -154 -159 -131 -125 -227 -232 135 -130 163 81 77 39 65 55 vhcurveto
          6 8 4 7 6 vvcurveto
          12 -14 16 -16 -8 -7 -6 -9 -6 vhcurveto
          -52 -38 -74 -31 -60 hhcurveto
          -64 -58 23 45 -43 hvcurveto
          157 541 rmoveto
          57 54 -23 -45 41 hvcurveto
          -184 -309 185 vlineto
          44 41 55 23 61 hhcurveto
          endchar
        </CharString>
        <CharString name="eth">
          -32 332 615 rmoveto
          56 7 rlineto
          12 1 5 5 8 vvcurveto
          9 -10 26 -18 -4 -42 -6 -5 -29 vhcurveto
          -14 18 -10 13 -11 12 rrcurveto
          7 -8 -9 4 -13 hhcurveto
          -14 -12 -2 -1 -11 hvcurveto
          -12 -2 -5 -5 -7 vvcurveto
          -9 15 -19 15 -20 vhcurveto
          -64 -9 rlineto
          -11 -2 -6 -5 -7 vvcurveto
          -16 14 -19 16 2 3 1 10 74 vhcurveto
          15 -26 14 -27 11 -27 rrcurveto
          3 -14 -14 1 -14 hhcurveto
          -127 -69 -95 -171 -173 68 -94 128 128 67 94 174 130 -40 117 -62 107 hvcurveto
          -94 -537 rmoveto
          -62 -27 56 127 126 27 54 62 62 28 -55 -125 -127 -28 -56 -62 hvcurveto
          endchar
        </CharString>
        <CharString name="exclam">
          -263 117 208 rmoveto
          8 hlineto
          29 6 9 16 2 hvcurveto
          11 148 12 149 11 148 rrcurveto
          15 -15 9 -28 vhcurveto
          -29 -84 callgsubr
          -444 vlineto
          -16 8 -9 29 vhcurveto
          -8 -210 rmoveto
          23 hlineto
          31 12 -71 callsubr
          73 vlineto
          16 -12 9 -31 vhcurveto
          -23 34 callgsubr
        </CharString>
        <CharString name="exclamdown">
          -263 116 402 rmoveto
          -42 callgsubr
          -22 -581 rmoveto
          30 hlineto
          31 12 -71 callsubr
          444 vlineto
          16 -7 9 -29 vhcurveto
          -9 hlineto
          -28 -6 -9 -16 -1 hvcurveto
          -13 -148 -23 -274 -24 vvcurveto
          -15 15 -8 28 vhcurveto
          endchar
        </CharString>
        <CharString name="f">
          -223 134 -2 rmoveto
          -35 callsubr
          415 57 vlineto
          -16 callgsubr
          -57 -56 callgsubr
          endchar
        </CharString>
        <CharString name="f_f">
          63 533 523 rmoveto
          -57 92 hlineto
          -21 callsubr
          9 26 callsubr
          -57 -65 -27 -110 hvcurveto
          -97 -184 92 vlineto
          -52 callsubr
          -35 callsubr
          415 184 -415 vlineto
          -26 callsubr
          -35 callsubr
          415 57 vlineto
          -16 callgsubr
          endchar
        </CharString>
        <CharString name="f_t">
          75 537 83 rmoveto
          -14 callgsubr
          305 58 vlineto
          -17 callsubr
          -58 102 hlineto
          16 -11 9 -25 vhcurveto
          -16 hlineto
          -24 -13 -9 -16 -1 hvcurveto
          -13 -102 rlineto
          -177 -56 callgsubr
          -35 callsubr
          415 177 -313 vlineto
          -104 62 -28 54 21 callgsubr
          vhcurveto
          endchar
        </CharString>
        <CharString name="fi">
          31 418 523 rmoveto
          -228 -56 callgsubr
          -35 callsubr
          415 172 -415 vlineto
          -26 callsubr
          -35 callsubr
          477 vlineto
          15 -13 8 -33 vhcurveto
          -4 179 -28 callsubr
        </CharString>
        <CharString name="five">
          -50 201 -7 rmoveto
          103 115 50 169 168 -112 47 -108 hvcurveto
          -36 hlineto
          12 188 rlineto
          192 hlineto
          16 7 10 23 hvcurveto
          16 -5 callsubr
          -16 vhcurveto
          -254 hlineto
          -23 -10 -10 -23 -1 hvcurveto
          -18 -292 rlineto
          -23 7 -10 24 vhcurveto
          80 hlineto
          95 48 -45 -85 -88 -55 -46 -63 hvcurveto
          -72 -39 37 -14 hhcurveto
          -14 -26 -39 -19 -29 69 -35 100 hvcurveto
          endchar
        </CharString>
        <CharString name="fl">
          47 134 -2 rmoveto
          -35 callsubr
          415 57 vlineto
          -16 callgsubr
          -57 -56 callgsubr
          333 -5 -8 callsubr
        </CharString>
        <CharString name="florin">
          -180 50 -207 rmoveto
          16 hlineto
          33 12 8 16 2 hvcurveto
          66 614 rlineto
          71 hlineto
          29 2 51 11 16 -6 7 -13 hvcurveto
          -74 hlineto
          11 91 rlineto
          56 6 24 9 28 23 7 -5 8 hhcurveto
          16 15 44 11 1 hvcurveto
          32 -45 3 -31 -62 -79 -27 -118 -13 vhcurveto
          -11 -96 rlineto
          -36 hlineto
          -29 -2 -45 -18 -15 6 -7 13 hvcurveto
          39 hlineto
          -34 -339 -33 -267 -8 vvcurveto
          -16 9 -8 31 vhcurveto
          endchar
        </CharString>
        <CharString name="four">
          -50 311 -2 rmoveto
          25 hlineto
          27 11 -71 callsubr
          137 48 vlineto
          -16 callgsubr
          -48 432 hlineto
          16 -11 9 -27 vhcurveto
          -29 hlineto
          -19 -16 -3 -13 -8 hvcurveto
          -252 -452 rlineto
          -1 -3 -1 -3 -5 vvcurveto
          -21 15 -42 12 vhcurveto
          236 -137 hlineto
          -16 11 -9 27 vhcurveto
          -197 247 rmoveto
          164 298 4 -2 rlineto
          -6 -38 -4 -34 -54 vvcurveto
          -170 vlineto
          endchar
        </CharString>
        <CharString name="fraction">
          -298 -50 -2 rmoveto
          11 hlineto
          15 10 8 16 8 hvcurveto
          288 648 rlineto
          3 5 1 5 5 vvcurveto
          10 -6 7 -11 vhcurveto
          -12 hlineto
          -14 -12 -8 -16 -7 hvcurveto
          -288 -648 rlineto
          -2 -5 -2 -5 -5 vvcurveto
          -11 7 -6 11 vhcurveto
          endchar
        </CharString>
        <CharString name="g">
          -38 222 -212 -93 callgsubr
        </CharString>
        <CharString name="g.ss01">
          -38 366 525 -87 callgsubr
        </CharString>
        <CharString name="gbreve">
          -38 230 -77 callsubr
          -8 -794 -93 callgsubr
        </CharString>
        <CharString name="gbreve.ss01">
          -38 233 -77 callsubr
          133 -57 -87 callgsubr
        </CharString>
        <CharString name="gcircumflex">
          -38 136 575 -107 callgsubr
          86 -787 -93 callgsubr
        </CharString>
        <CharString name="gcircumflex.ss01">
          -38 139 575 -107 callgsubr
          227 -50 -87 callgsubr
        </CharString>
        <CharString name="gcommaaccent">
          -72 258 767 rmoveto
          -27 -58 -65 -87 -20 12 -13 26 hvcurveto
          32 callgsubr
          vhcurveto
          -36 -979 -93 callgsubr
        </CharString>
        <CharString name="gcommaaccent.ss01">
          -52 224 582 rmoveto
          32 callgsubr
          -27 -58 -65 -87 -20 12 -13 26 vhcurveto
          142 -57 -87 callgsubr
        </CharString>
        <CharString name="gdotaccent">
          -38 231 -78 callsubr
          -9 -811 -93 callgsubr
        </CharString>
        <CharString name="gdotaccent.ss01">
          -38 234 -78 callsubr
          132 -74 -87 callgsubr
        </CharString>
        <CharString name="germandbls">
          -29 115 -2 rmoveto
          16 hlineto
          30 -69 callsubr
          505 vlineto
          58 26 33 46 40 30 -24 -71 -68 -32 -43 -41 vhcurveto
          -5 hlineto
          -14 -6 -11 -24 hvcurveto
          -14 vlineto
          -25 6 -11 16 vhcurveto
          12 hlineto
          50 35 -42 -81 -79 -34 -41 -46 hvcurveto
          -17 hlineto
          -16 -6 -11 -25 hvcurveto
          -13 vlineto
          -25 6 -11 16 vhcurveto
          21 hlineto
          108 73 72 132 90 -33 64 -69 23 hvcurveto
          3 vlineto
          51 25 32 58 69 vvcurveto
          124 -81 47 -94 -114 -64 -75 -109 vhcurveto
          -500 15 callgsubr
          endchar
        </CharString>
        <CharString name="grave">
          -253 183 582 -98 callsubr
          endchar
        </CharString>
        <CharString name="gravecomb">
          -509 22 582 -98 callsubr
          endchar
        </CharString>
        <CharString name="greater">
          -61 60 11 rmoveto
          332 175 rlineto
          15 8 6 11 18 vvcurveto
          18 vlineto
          18 -6 11 -15 8 vhcurveto
          -329 173 rlineto
          -22 11 -7 -12 -24 vvcurveto
          -15 vlineto
          -23 6 -11 15 -9 vhcurveto
          248 -136 -248 -136 rlineto
          -17 -10 -5 -10 -24 vvcurveto
          -14 vlineto
          -22 5 -16 22 11 vhcurveto
          endchar
        </CharString>
        <CharString name="greaterequal">
          -56 35 147 rmoveto
          -25 5 -12 21 11 vhcurveto
          332 169 rlineto
          15 8 7 10 18 vvcurveto
          18 vlineto
          18 -7 11 -15 8 vhcurveto
          -331 168 rlineto
          -20 10 -5 -10 -26 vvcurveto
          -11 vlineto
          -25 5 -10 15 -8 vhcurveto
          248 -134 -249 -133 rlineto
          -14 -9 -7 -11 -18 vvcurveto
          24 -164 rmoveto
          332 hlineto
          16 8 11 25 hvcurveto
          11 vlineto
          24 -8 12 -16 vhcurveto
          -332 hlineto
          -17 -7 -12 -24 hvcurveto
          -11 -36 callsubr
          17 vhcurveto
          endchar
        </CharString>
        <CharString name="guillemotleft">
          -104 163 58 rmoveto
          15 29 16 17 7 -3 7 -4 callsubr
          -92 147 92 17 callsubr
          -12 -4 -9 -12 vvcurveto
          -12 4 -9 8 -12 54 callsubr
          162 hmoveto
          15 29 16 17 7 -3 7 -4 callsubr
          -91 147 91 17 callsubr
          -13 -4 -8 -12 vvcurveto
          -12 4 -8 8 -13 54 callsubr
          endchar
        </CharString>
        <CharString name="guillemotright">
          -104 78 58 rmoveto
          6 8 3 9 6 hvcurveto
          103 155 rlineto
          7 13 5 8 12 vvcurveto
          12 -5 8 -7 13 24 callsubr
          92 -146 -92 39 callgsubr
          161 hmoveto
          7 7 3 9 6 hvcurveto
          103 155 rlineto
          8 12 4 9 12 vvcurveto
          12 -4 9 -8 12 24 callsubr
          93 -146 -93 39 callgsubr
          endchar
        </CharString>
        <CharString name="guilsinglleft">
          -262 163 58 rmoveto
          15 31 17 16 7 -3 7 -4 7 hvcurveto
          -92 146 92 146 rlineto
          4 7 3 7 6 vvcurveto
          19 -32 15 -14 -7 -7 -3 -9 -7 vhcurveto
          -102 -155 rlineto
          -8 -13 -4 -8 -12 vvcurveto
          -12 4 -8 8 -13 vhcurveto
          102 -155 rlineto
          -9 7 7 -3 7 hhcurveto
          endchar
        </CharString>
        <CharString name="guilsinglright">
          -262 78 58 rmoveto
          7 7 3 9 7 hvcurveto
          102 155 rlineto
          8 13 4 8 12 vvcurveto
          12 -4 8 -8 13 vhcurveto
          -102 155 rlineto
          9 -7 -7 3 -7 hhcurveto
          -14 -32 -15 -19 -6 3 -7 4 -7 hvcurveto
          93 -146 -93 -146 rlineto
          -4 -7 -3 -7 -7 vvcurveto
          -16 31 -17 15 vhcurveto
          endchar
        </CharString>
        <CharString name="h">
          -24 116 -2 -54 callgsubr
          endchar
        </CharString>
        <CharString name="hbar">
          -38 300 530 rmoveto
          -54 -42 -30 -38 -27 hvcurveto
          132 76 vlineto
          18 7 10 23 hvcurveto
          11 vlineto
          23 -7 10 -18 vhcurveto
          -76 57 hlineto
          -34 callgsubr
          -30 vhcurveto
          -18 55 callsubr
          -45 vlineto
          -17 -8 -20 callgsubr
          -11 vlineto
          -23 8 -10 17 vhcurveto
          45 -571 hlineto
          29 callgsubr
          13 9 16 hvcurveto
          360 vlineto
          21 8 29 38 43 hhcurveto
          43 19 -29 -50 hvcurveto
          -340 vlineto
          29 callgsubr
          12 52 callsubr
          106 -55 46 -68 vhcurveto
          endchar
        </CharString>
        <CharString name="hcircumflex">
          -24 31 783 -107 callgsubr
          85 -785 -54 callgsubr
          endchar
        </CharString>
        <CharString name="hookabovecomb">
          -509 -228 565 -96 callgsubr
          endchar
        </CharString>
        <CharString name="hungarumlaut">
          -202 32 582 -81 callsubr
          endchar
        </CharString>
        <CharString name="hyphen">
          -253 47 225 rmoveto
          161 hlineto
          15 37 callsubr
          9 vlineto
          25 -6 10 -15 vhcurveto
          -161 0 callgsubr
        </CharString>
        <CharString name="i">
          -47 callgsubr
          endchar
        </CharString>
        <CharString name="i.loclTRK">
          -47 callgsubr
          endchar
        </CharString>
        <CharString name="iacute">
          -255 117 -92 callsubr
          5 -584 -70 callgsubr
        </CharString>
        <CharString name="iacute_j.loclNLD">
          -6 117 -92 callsubr
          254 hmoveto
          -105 callgsubr
          -249 -584 -85 callsubr
          194 -210 -81 callgsubr
        </CharString>
        <CharString name="ibreve">
          -255 127 -77 callsubr
          -5 -584 -70 callgsubr
        </CharString>
        <CharString name="icircumflex">
          -255 33 575 -107 callgsubr
          89 -577 -70 callgsubr
        </CharString>
        <CharString name="idieresis">
          -255 59 599 -100 callgsubr
          -74 -37 callgsubr
          endchar
        </CharString>
        <CharString name="igrave">
          -255 148 582 -98 callsubr
          -26 -584 -70 callgsubr
        </CharString>
        <CharString name="ij">
          -6 128 -78 callsubr
          254 hmoveto
          36 16 -71 callsubr
          51 callgsubr
          -37 -15 -10 -15 vhcurveto
          51 callsubr
          vhcurveto
          -260 -37 callgsubr
          194 -210 -81 callgsubr
        </CharString>
        <CharString name="imacron">
          -255 31 608 -82 callsubr
          91 -610 -70 callgsubr
        </CharString>
        <CharString name="infinity">
          121 458 445 rmoveto
          -64 -49 -45 -66 -28 hvcurveto
          74 -29 -47 37 -59 hhcurveto
          -84 -60 -69 -98 -94 56 -70 79 64 50 45 66 28 hvcurveto
          -74 28 48 -37 58 hhcurveto
          84 60 69 98 94 -55 70 -80 hvcurveto
          -276 -256 rmoveto
          -40 -23 40 51 53 26 40 39 32 30 -29 -68 23 hvcurveto
          -42 -17 -29 -45 -41 hhcurveto
          266 -3 rmoveto
          -33 -29 29 68 -23 hvcurveto
          42 16 30 45 41 hhcurveto
          40 22 -40 -51 -53 -26 -40 -38 hvcurveto
          endchar
        </CharString>
        <CharString name="integral">
          -211 67 -162 rmoveto
          88 48 78 175 hvcurveto
          169 -11 189 161 vvcurveto
          134 16 56 42 vhcurveto
          17 10 -7 4 hhcurveto
          13 10 18 25 32 -50 7 -22 -89 -47 -79 -175 hvcurveto
          -168 11 -187 -164 vvcurveto
          -134 -16 -56 -42 vhcurveto
          -18 -9 7 -5 hhcurveto
          -12 -11 -18 -24 -33 51 -6 22 hvcurveto
          endchar
        </CharString>
        <CharString name="iogonek">
          -33 callgsubr
          103 -708 -6 callsubr
          19 7 29 15 29 hvcurveto
          7 4 3 6 8 vvcurveto
          477 -59 callgsubr
          -33 vhcurveto
          -10 hlineto
          -32 -32 callgsubr
          -477 vlineto
          -13 10 -9 22 -2 vhcurveto
          -19 -34 -6 -34 -21 -60 callgsubr
          endchar
        </CharString>
        <CharString name="itilde">
          -281 2 589 18 callsubr
          35 25 23 46 17 hvcurveto
          2 5 1 4 5 vvcurveto
          8 -3 4 -10 4 vhcurveto
          -7 12 callgsubr
          -11 -8 -5 -12 16 callgsubr
          130 -594 -70 callgsubr
        </CharString>
        <CharString name="j">
          -260 128 -78 callsubr
          -66 -811 -81 callgsubr
        </CharString>
        <CharString name="jcircumflex">
          -260 33 575 -107 callgsubr
          29 -787 -81 callgsubr
        </CharString>
        <CharString name="k">
          -38 callgsubr
          endchar
        </CharString>
        <CharString name="kcommaaccent">
          -38 callgsubr
          -182 -81 rmoveto
          -13 hlineto
          -30 -13 -14 -21 hvcurveto
          -78 -24 -34 -21 vvcurveto
          -14 20 -3 13 27 58 65 87 20 -12 13 -26 vhcurveto
          endchar
        </CharString>
        <CharString name="kgreenlandic">
          -57 120 -2 rmoveto
          -13 callgsubr
          224 6 vlineto
          133 -234 rlineto
          -14 7 16 -1 22 hhcurveto
          26 hlineto
          30 13 4 11 4 -2 4 -5 9 hvcurveto
          -148 248 130 209 rlineto
          7 12 48 callgsubr
          8 -11 6 -28 vhcurveto
          -23 hlineto
          -21 -17 -2 -13 -7 hvcurveto
          -125 -215 rlineto
          -5 205 hlineto
          25 callgsubr
          -477 -38 callsubr
          31 vhcurveto
          endchar
        </CharString>
        <CharString name="l">
          -239 181 -7 -8 callsubr
        </CharString>
        <CharString name="lacute">
          -239 110 779 -105 callsubr
          71 -786 -8 callsubr
        </CharString>
        <CharString name="lcaron">
          -239 181 -7 -72 callsubr
          73 530 -41 callgsubr
          endchar
        </CharString>
        <CharString name="lcommaaccent">
          -239 181 -7 -72 callsubr
          -65 -229 -80 callsubr
          endchar
        </CharString>
        <CharString name="ldot">
          -200 181 -7 -72 callsubr
          86 310 2 callgsubr
        </CharString>
        <CharString name="less">
          -61 384 11 rmoveto
          22 -11 5 16 22 vvcurveto
          14 vlineto
          24 -5 10 -17 10 vhcurveto
          -248 136 248 136 rlineto
          15 9 6 11 23 vvcurveto
          15 vlineto
          24 -7 12 -22 -11 vhcurveto
          -329 -173 rlineto
          -15 -8 -6 -11 -18 vvcurveto
          -18 vlineto
          -18 6 -11 15 -8 vhcurveto
          endchar
        </CharString>
        <CharString name="lessequal">
          -56 387 121 rmoveto
          26 26 rlineto
          17 vlineto
          18 -7 11 -14 9 vhcurveto
          -249 133 248 134 rlineto
          15 8 5 10 25 vvcurveto
          11 vlineto
          26 -5 10 -20 -10 vhcurveto
          -331 -168 rlineto
          -15 -8 -7 -11 -18 vvcurveto
          -18 vlineto
          -18 7 -10 15 -8 vhcurveto
          334 -290 rmoveto
          17 7 11 25 hvcurveto
          11 vlineto
          24 -7 12 -17 vhcurveto
          -332 34 callsubr
        </CharString>
        <CharString name="logicalnot">
          -60 365 76 rmoveto
          27 hlineto
          21 9 8 16 hvcurveto
          208 vlineto
          23 -9 10 -21 vhcurveto
          -344 1 callgsubr
          -11 -24 callsubr
          288 -158 hlineto
          -16 9 -8 20 vhcurveto
          endchar
        </CharString>
        <CharString name="longs">
          -236 128 -2 rmoveto
          11 hlineto
          32 14 -71 callsubr
          592 vlineto
          -21 callsubr
          8 26 callsubr
          -56 -66 -27 -110 hvcurveto
          -97 -24 vlineto
          -53 callsubr
          24 -415 hlineto
          -26 callsubr
          endchar
        </CharString>
        <CharString name="lozenge">
          -63 215 -20 rmoveto
          18 hlineto
          22 15 6 16 7 hvcurveto
          131 323 rlineto
          3 9 2 6 7 vvcurveto
          8 -2 6 -3 7 vhcurveto
          -134 326 rlineto
          17 -6 -15 5 -22 hhcurveto
          -13 hlineto
          -20 -17 -5 -17 -5 hvcurveto
          -135 -326 rlineto
          -4 -7 -1 -6 -8 vvcurveto
          -6 1 -7 4 -8 vhcurveto
          132 -324 rlineto
          -16 6 15 -6 21 hhcurveto
          9 109 rmoveto
          -94 258 94 257 94 -257 rlineto
          endchar
        </CharString>
        <CharString name="lslash">
          -233 239 83 rmoveto
          -6 -7 -5 -16 hhcurveto
          -19 -14 11 39 hvcurveto
          270 vlineto
          39 23 rlineto
          14 8 7 10 17 vvcurveto
          10 vlineto
          10 -4 5 -6 -3 -3 -1 -3 -5 vhcurveto
          -39 -23 rlineto
          274 vlineto
          16 -14 18 callgsubr
          -66 callgsubr
          -334 vlineto
          -25 -15 rlineto
          -13 -9 -8 -10 -16 vvcurveto
          -10 vlineto
          -10 4 -6 6 2 5 2 3 4 vhcurveto
          25 15 rlineto
          -215 vlineto
          -102 59 -28 53 29 47 9 26 12 -8 43 -16 vhcurveto
          endchar
        </CharString>
        <CharString name="m">
          211 535 530 rmoveto
          -55 -47 -33 -42 -29 hvcurveto
          53 -20 -42 22 -49 hhcurveto
          -55 -44 -34 -42 -26 hvcurveto
          33 -6 0 35 -28 hhcurveto
          -14 -60 -6 -20 hvcurveto
          -9 10 -34 -87 vvcurveto
          -343 -38 callsubr
          30 vhcurveto
          -7 callgsubr
          360 vlineto
          21 8 28 38 42 hhcurveto
          41 18 -30 -53 hvcurveto
          -336 -38 callsubr
          31 vhcurveto
          -7 callgsubr
          350 vlineto
          12 vlineto
          28 14 28 29 36 hhcurveto
          41 18 -30 -53 hvcurveto
          -336 -38 callsubr
          31 vhcurveto
          -13 callgsubr
          351 vlineto
          108 -53 48 -69 vhcurveto
          endchar
        </CharString>
        <CharString name="macron">
          -254 28 608 -82 callsubr
          endchar
        </CharString>
        <CharString name="minus">
          -60 47 182 rmoveto
          355 36 callsubr
          11 27 callsubr
          vhcurveto
          -355 1 callgsubr
          -11 10 callsubr
        </CharString>
        <CharString name="multiply">
          -61 274 232 rmoveto
          122 163 14 19 -2 8 -13 11 rlinecurve
          -19 15 -11 10 -12 8 -13 -17 rlinecurve
          -120 -163 -123 165 -12 15 -10 -8 -14 -11 rlinecurve
          -15 -13 -16 -14 1 -10 12 -15 rlinecurve
          123 -164 -123 -164 -12 -14 -1 -10 16 -14 rlinecurve
          15 -13 14 -12 10 -7 12 14 rlinecurve
          123 166 120 -164 13 -16 12 8 11 9 rlinecurve
          19 16 13 11 2 7 -14 19 rlinecurve
          endchar
        </CharString>
        <CharString name="n">
          113 -2 -91 callgsubr
          endchar
        </CharString>
        <CharString name="nacute">
          233 -92 callsubr
          -120 -584 -91 callgsubr
          endchar
        </CharString>
        <CharString name="nacute.loclPLK">
          233 582 -79 callgsubr
          -120 -584 -91 callgsubr
          endchar
        </CharString>
        <CharString name="napostrophe">
          29 536 -80 callsubr
          84 -538 -91 callgsubr
          endchar
        </CharString>
        <CharString name="ncaron">
          237 580 -103 callgsubr
          -124 -582 -91 callgsubr
          endchar
        </CharString>
        <CharString name="ncommaaccent">
          113 -2 -91 callgsubr
          91 -234 -80 callsubr
          endchar
        </CharString>
        <CharString name="nine">
          -50 113 -5 rmoveto
          49 264 135 322 164 -76 88 -118 -106 -92 -75 -139 -133 80 -71 87 40 36 11 19 29 hvcurveto
          -30 -108 -72 -89 -120 -48 rrcurveto
          -8 -3 -1 -5 -6 vvcurveto
          -15 13 -47 25 vhcurveto
          121 376 rmoveto
          -52 -47 37 86 84 50 41 44 45 49 -33 -129 -19 -1 -20 -2 -19 hvcurveto
          -13 -21 -30 -15 -35 hhcurveto
          endchar
        </CharString>
        <CharString name="notequal">
          55 callgsubr
          -81 hlineto
          67 104 rlineto
          25 15 -4 14 -35 hhcurveto
          -12 hlineto
          -21 -9 -9 -14 -9 hvcurveto
          -77 -120 rlineto
          -166 11 callgsubr
          75 hlineto
          -71 -111 rlineto
          -22 -13 3 -13 37 hhcurveto
          10 hlineto
          22 7 7 16 10 hvcurveto
          79 123 rlineto
          173 24 callgsubr
        </CharString>
        <CharString name="ntilde">
          116 589 rmoveto
          -106 callsubr
          7 -594 -91 callgsubr
          endchar
        </CharString>
        <CharString name="numbersign">
          5 113 -2 rmoveto
          10 hlineto
          28 11 8 16 2 hvcurveto
          25 170 rlineto
          92 hlineto
          -17 -120 -6 -46 -6 vvcurveto
          -15 11 -7 22 vhcurveto
          11 hlineto
          27 12 8 16 2 hvcurveto
          24 170 rlineto
          78 43 callsubr
          -65 hlineto
          19 136 rlineto
          72 43 callsubr
          -59 hlineto
          22 161 rlineto
          15 2 -12 8 -23 hhcurveto
          -12 hlineto
          -28 -11 -8 -16 -2 hvcurveto
          -23 -160 rlineto
          -93 hlineto
          23 161 rlineto
          15 2 -11 8 -24 hhcurveto
          -10 hlineto
          -29 -10 -8 -16 -3 hvcurveto
          -23 -160 33 callgsubr
          63 hlineto
          -18 -136 33 callgsubr
          61 hlineto
          -16 -115 -8 -52 -6 vvcurveto
          -14 11 -7 23 vhcurveto
          89 281 rmoveto
          19 136 rlineto
          93 hlineto
          -19 -136 rlineto
          endchar
        </CharString>
        <CharString name="o">
          -32 239 -7 22 callsubr
          174 -67 96 -128 -57 callsubr
        </CharString>
        <CharString name="oacute">
          -1 callgsubr
          10 -589 22 callsubr
          174 -67 96 -128 -57 callsubr
        </CharString>
        <CharString name="oacute.loclPLK">
          -32 229 582 -79 callgsubr
          10 -589 22 callsubr
          174 -67 96 -128 -57 callsubr
        </CharString>
        <CharString name="obreve">
          -32 239 -77 callsubr
          -589 vmoveto
          -40 callsubr
          174 -67 96 -128 -57 callsubr
        </CharString>
        <CharString name="ocircumflex">
          -32 145 575 -107 callgsubr
          94 -582 22 callsubr
          174 -67 96 -128 -57 callsubr
        </CharString>
        <CharString name="odieresis">
          -32 171 599 -100 callgsubr
          -69 -606 22 callsubr
          174 -67 96 -128 -57 callsubr
        </CharString>
        <CharString name="oe">
          213 636 117 rmoveto
          -10 -32 -39 -69 hhcurveto
          -69 -32 42 100 -6 hvcurveto
          232 hlineto
          13 26 33 13 170 -57 94 -122 -60 -48 -19 -40 -33 hvcurveto
          38 -32 -43 21 -55 hhcurveto
          -133 -63 -97 -173 -173 62 -94 134 56 44 20 37 31 hvcurveto
          -38 35 51 -19 68 hhcurveto
          74 78 35 31 14 -23 44 -17 hvcurveto
          -128 330 rmoveto
          53 25 -48 -102 hvcurveto
          -169 hlineto
          105 5 30 45 56 hhcurveto
          -269 -369 rmoveto
          -63 -14 callsubr
          128 26 56 63 42 27 -23 -51 14 hvcurveto
          -8 -32 -4 -38 -43 vvcurveto
          -41 4 -36 7 -31 vhcurveto
          -49 -14 -27 -23 -41 hhcurveto
          endchar
        </CharString>
        <CharString name="ogonek">
          -253 136 -183 rmoveto
          23 22 5 12 19 hvcurveto
          9 6 5 10 12 vvcurveto
          18 -8 8 -15 vhcurveto
          11 callsubr
          -45 16 rlineto
          -32 -40 -9 -47 -26 vvcurveto
          -26 9 -64 84 vhcurveto
          endchar
        </CharString>
        <CharString name="ograve">
          -32 260 582 -98 callsubr
          -21 -589 22 callsubr
          174 -67 96 -128 -57 callsubr
        </CharString>
        <CharString name="ohorn">
          -32 239 -7 -86 callsubr
        </CharString>
        <CharString name="ohungarumlaut">
          -32 146 582 -81 callsubr
          -45 -589 22 callsubr
          174 -67 96 -128 -57 callsubr
        </CharString>
        <CharString name="omacron">
          -32 143 608 -82 callsubr
          96 -615 22 callsubr
          174 -67 96 -128 -57 callsubr
        </CharString>
        <CharString name="one">
          -50 63 hmoveto
          332 hlineto
          -16 callgsubr
          -104 596 hlineto
          12 -19 10 -15 vhcurveto
          -208 -44 rlineto
          -13 -3 -7 -7 -12 vvcurveto
          -21 6 -39 18 vhcurveto
          135 21 rlineto
          -513 -125 vlineto
          -53 callsubr
          endchar
        </CharString>
        <CharString name="oneeighth">
          119 140 296 rmoveto
          12 hlineto
          16 8 5 10 hvcurveto
          379 vlineto
          7 -10 6 -7 vhcurveto
          -111 -26 rlineto
          -8 -2 -3 -4 -7 vvcurveto
          -12 3 -24 11 vhcurveto
          64 14 rlineto
          -331 vlineto
          -10 10 -5 15 vhcurveto
          -20 -297 rmoveto
          14 hlineto
          14 11 5 14 7 hvcurveto
          299 665 rlineto
          1 4 2 4 3 vvcurveto
          6 -5 2 -10 vhcurveto
          -13 hlineto
          -14 -12 -5 -14 -6 hvcurveto
          -298 -665 rlineto
          -2 -4 -3 -5 -2 vvcurveto
          -6 6 -2 9 vhcurveto
          360 -3 rmoveto
          71 44 48 72 60 -29 28 -33 18 hvcurveto
          28 16 24 28 50 vvcurveto
          67 -47 34 -57 -60 -44 -38 -67 -48 21 -26 25 -18 vhcurveto
          -31 -16 -27 -31 -59 vvcurveto
          -75 46 -43 69 vhcurveto
          9 251 rmoveto
          -29 14 -25 16 38 vvcurveto
          35 21 17 25 25 21 -17 -36 -31 -15 -21 -23 -15 vhcurveto
          -9 -201 rmoveto
          -30 -25 22 49 40 16 22 25 16 hvcurveto
          35 -17 34 -15 -49 vvcurveto
          -40 -23 -28 -32 vhcurveto
          endchar
        </CharString>
        <CharString name="onehalf">
          132 -63 callgsubr
          268 1 -54 callsubr
          endchar
        </CharString>
        <CharString name="onequarter">
          77 -63 callgsubr
          350 -35 callgsubr
        </CharString>
        <CharString name="ordfeminine">
          -228 103 440 rmoveto
          32 23 13 16 16 hvcurveto
          -17 3 3 -9 13 hhcurveto
          8 45 2 11 hvcurveto
          4 -6 17 44 vvcurveto
          92 vlineto
          58 -34 37 -75 -49 -48 -16 -16 -9 12 -36 8 vhcurveto
          7 32 16 34 hhcurveto
          32 10 -15 -21 hvcurveto
          -3 vlineto
          -82 -1 -61 -22 -67 vvcurveto
          -48 29 -30 48 vhcurveto
          21 54 rmoveto
          -18 -9 10 17 34 36 4 36 1 hvcurveto
          -42 vlineto
          -15 -11 -16 -9 -18 hhcurveto
          endchar
        </CharString>
        <CharString name="ordmasculine">
          -217 147 440 rmoveto
          74 42 47 86 86 -41 49 -75 -75 -42 -49 -86 -85 41 -48 76 hvcurveto
          -1 62 rmoveto
          -29 -13 22 50 50 13 22 29 30 13 -23 -49 -50 -13 -22 -30 hvcurveto
          endchar
        </CharString>
        <CharString name="oslash">
          -32 394 446 -51 callsubr
        </CharString>
        <CharString name="oslashacute">
          -1 callgsubr
          165 -136 -51 callsubr
        </CharString>
        <CharString name="otilde">
          -32 112 589 rmoveto
          -106 callsubr
          137 -599 22 callsubr
          174 -67 96 -128 -57 callsubr
        </CharString>
        <CharString name="p">
          -25 115 -207 rmoveto
          15 32 callsubr
          66 96 170 164 -61 107 -95 -46 -41 -26 -48 -28 hvcurveto
          31 -6 -2 35 -26 hhcurveto
          -16 -58 -5 -20 hvcurveto
          -10 11 -34 -87 vvcurveto
          -549 33 callsubr
          -20 hvcurveto
          266 vlineto
          38 22 29 23 30 hhcurveto
          51 26 -65 -119 -120 -28 -59 -57 hvcurveto
          endchar
        </CharString>
        <CharString name="paragraph">
          -43 232 -172 rmoveto
          11 hlineto
          18 7 8 16 hvcurveto
          786 78 -786 vlineto
          -16 8 -8 18 vhcurveto
          11 hlineto
          18 7 8 16 hvcurveto
          786 28 vlineto
          16 7 8 17 hvcurveto
          11 vlineto
          18 -7 8 -16 vhcurveto
          -205 hlineto
          -111 -91 -98 -142 -130 78 -95 99 -14 hvcurveto
          -369 vlineto
          -16 8 -8 18 vhcurveto
          endchar
        </CharString>
        <CharString name="parenleft">
          -260 225 -211 rmoveto
          17 20 20 13 6 -3 7 -5 7 hvcurveto
          -85 114 -35 158 172 vvcurveto
          173 36 158 85 114 vhcurveto
          6 7 1 7 7 vvcurveto
          17 -23 14 -14 -8 -8 -4 -8 -7 vhcurveto
          -101 -110 -58 -179 -196 vvcurveto
          -196 57 -179 102 -109 vhcurveto
          -9 7 8 -4 8 hhcurveto
          endchar
        </CharString>
        <CharString name="parenright">
          -260 24 -211 rmoveto
          8 8 4 9 7 hvcurveto
          101 110 58 178 196 vvcurveto
          196 -57 179 -102 110 vhcurveto
          8 -7 -8 4 -8 hhcurveto
          -15 -22 -17 -15 -6 2 -7 5 -7 hvcurveto
          86 -114 34 -158 -173 vvcurveto
          -174 -36 -158 -84 -114 vhcurveto
          -5 -6 -2 -6 -6 vvcurveto
          -14 21 -19 16 vhcurveto
          endchar
        </CharString>
        <CharString name="partialdiff">
          -98 188 -7 rmoveto
          114 90 94 249 255 -90 146 -133 -74 -47 -32 -31 -16 24 -37 15 hvcurveto
          11 19 28 42 hhcurveto
          64 55 -96 -174 6 hvcurveto
          27 -27 -35 12 -35 hhcurveto
          -89 -77 -86 -140 -140 78 -59 89 hvcurveto
          2 83 rmoveto
          -50 -17 55 61 73 33 67 50 32 21 -15 -29 23 hvcurveto
          -116 -34 -96 -58 vhcurveto
          endchar
        </CharString>
        <CharString name="percent">
          177 -47 callsubr
          64 vmoveto
          8 callsubr
          endchar
        </CharString>
        <CharString name="period">
          -321 83 -2 rmoveto
          -42 callgsubr
          endchar
        </CharString>
        <CharString name="periodcentered">
          -295 113 303 2 callgsubr
        </CharString>
        <CharString name="perthousand">
          477 -47 callsubr
          300 hmoveto
          59 70 28 135 136 -70 29 -59 -61 -67 -29 -136 -135 69 -28 59 hvcurveto
          -300 64 rmoveto
          8 callsubr
          300 hmoveto
          8 callsubr
          endchar
        </CharString>
        <CharString name="pi">
          -2 98 -2 rmoveto
          12 hlineto
          24 19 9 17 5 hvcurveto
          28 98 21 190 5 126 rrcurveto
          103 hlineto
          -1 -300 rlineto
          -88 -1 3 -52 44 hhcurveto
          21 hlineto
          28 13 11 15 hvcurveto
          20 -7 37 73 vvcurveto
          284 40 vlineto
          17 8 6 19 2 hvcurveto
          3 21 1 10 7 vvcurveto
          16 -9 6 -17 vhcurveto
          -324 hlineto
          -67 -57 -10 -36 -18 2 -31 24 11 14 9 1 50 hvcurveto
          -5 -128 -23 -173 -28 -108 rrcurveto
          -1 -3 -1 -3 -3 vvcurveto
          -13 16 -9 27 vhcurveto
          endchar
        </CharString>
        <CharString name="plus">
          -60 220 -1 rmoveto
          9 hlineto
          25 10 6 16 hvcurveto
          172 129 vlineto
          15 6 10 25 hvcurveto
          7 47 callsubr
          -15 vhcurveto
          -129 172 hlineto
          16 -10 7 -25 vhcurveto
          -9 hlineto
          -25 -11 -7 -16 hvcurveto
          -172 -127 vlineto
          -15 -7 -13 -25 hvcurveto
          -7 -15 callsubr
          -8 15 vhcurveto
          127 -172 hlineto
          -16 11 -6 25 vhcurveto
          endchar
        </CharString>
        <CharString name="plusminus">
          -60 219 129 rmoveto
          9 hlineto
          25 11 11 19 hvcurveto
          164 126 vlineto
          17 6 12 23 hvcurveto
          7 47 callsubr
          -17 vhcurveto
          -126 165 hlineto
          20 -11 10 -25 vhcurveto
          -9 hlineto
          -25 -11 -10 -20 hvcurveto
          -165 -125 vlineto
          -16 -8 -11 -25 hvcurveto
          -7 vlineto
          -23 8 -12 16 vhcurveto
          125 -164 hlineto
          -19 11 -11 25 vhcurveto
          -163 -129 rmoveto
          335 hlineto
          17 8 11 25 hvcurveto
          11 vlineto
          24 -8 12 -17 vhcurveto
          -335 34 callsubr
        </CharString>
        <CharString name="product">
          91 150 -104 rmoveto
          -3 callgsubr
          690 182 -690 vlineto
          -16 12 -9 31 vhcurveto
          16 hlineto
          30 -69 callsubr
          690 71 vlineto
          17 callgsubr
          17 27 callsubr
          vhcurveto
          -527 1 callgsubr
          -17 -24 callsubr
          69 -690 hlineto
          -2 callsubr
          31 vhcurveto
          endchar
        </CharString>
        <CharString name="q">
          -28 352 -207 rmoveto
          16 hlineto
          31 14 8 16 hvcurveto
          683 -59 callgsubr
          -28 vhcurveto
          -8 hlineto
          -20 -13 -3 -13 -4 hvcurveto
          -4 -18 -4 -17 -3 -18 rrcurveto
          48 -28 -43 26 -45 hhcurveto
          -94 -62 -106 -165 -171 65 -95 101 46 29 20 25 24 hvcurveto
          -221 vlineto
          -16 13 -8 30 vhcurveto
          -116 287 rmoveto
          -58 -28 57 121 121 26 64 53 29 28 -22 -37 22 hvcurveto
          -268 vlineto
          -23 -18 -25 -13 -29 hhcurveto
          endchar
        </CharString>
        <CharString name="question">
          -118 147 208 rmoveto
          17 hlineto
          27 9 6 16 3 hvcurveto
          8 53 34 37 42 46 rrcurveto
          45 49 47 50 76 vvcurveto
          96 -76 70 -120 -69 -88 -25 -39 -16 25 -44 16 vhcurveto
          13 35 33 56 hhcurveto
          62 33 -30 -56 -48 -37 -40 -43 -49 hvcurveto
          -48 -55 -26 -57 -48 vvcurveto
          -17 10 -8 25 vhcurveto
          -3 -210 rmoveto
          38 callsubr
          39 callsubr
          endchar
        </CharString>
        <CharString name="questiondown">
          -118 247 525 rmoveto
          39 callsubr
          38 callsubr
          -3 -210 rmoveto
          -17 hlineto
          -27 -9 -6 -16 -3 hvcurveto
          -8 -53 -34 -37 -42 -46 rrcurveto
          -45 -49 -47 -50 -76 vvcurveto
          -96 76 -70 120 69 88 25 39 16 -25 44 -16 vhcurveto
          -13 -35 -33 -56 hhcurveto
          -62 -33 30 56 48 37 40 43 49 hvcurveto
          48 55 26 57 48 vvcurveto
          17 -10 8 -25 vhcurveto
          endchar
        </CharString>
        <CharString name="quotedbl">
          -200 84 470 rmoveto
          5 hlineto
          16 8 callgsubr
          2 8 -5 16 hhcurveto
          134 hmoveto
          6 hlineto
          15 8 5 12 3 hvcurveto
          8 63 14 118 9 vvcurveto
          -34 callgsubr
          -33 vhcurveto
          -10 hlineto
          -32 -66 callgsubr
          -10 vlineto
          22 -180 rlineto
          -12 2 8 -5 15 hhcurveto
          endchar
        </CharString>
        <CharString name="quotedblbase">
          -161 58 -119 -29 callgsubr
        </CharString>
        <CharString name="quotedblleft">
          -161 76 504 rmoveto
          -24 callgsubr
          148 hmoveto
          -24 callgsubr
          endchar
        </CharString>
        <CharString name="quotedblright">
          -161 64 515 -29 callgsubr
        </CharString>
        <CharString name="quoteleft">
          -299 87 504 rmoveto
          -24 callgsubr
          endchar
        </CharString>
        <CharString name="quoteright">
          -299 66 515 6 callsubr
          endchar
        </CharString>
        <CharString name="quotesinglbase">
          -299 65 -119 6 callsubr
          endchar
        </CharString>
        <CharString name="quotesingle">
          -345 81 470 rmoveto
          6 hlineto
          15 8 callgsubr
          3 7 -5 16 hhcurveto
          endchar
        </CharString>
        <CharString name="quotesingle.loclGUA">
          -338 72 392 rmoveto
          22 1 45 108 166 vvcurveto
          20 -15 13 -28 vhcurveto
          -12 hlineto
          -31 -15 -14 -21 hvcurveto
          -256 vlineto
          -13 21 -4 13 vhcurveto
          endchar
        </CharString>
        <CharString name="r">
          -172 121 -2 -23 callgsubr
        </CharString>
        <CharString name="racute">
          -172 164 580 -105 callsubr
          -43 -582 -23 callgsubr
        </CharString>
        <CharString name="radical">
          -15 261 -152 rmoveto
          23 hlineto
          23 15 9 15 3 hvcurveto
          179 917 rlineto
          9 vlineto
          9 -9 6 -23 vhcurveto
          -19 hlineto
          -24 -15 -8 -16 -2 hvcurveto
          -130 -723 -5 -23 -7 -45 -1 -14 rlinecurve
          -2 hlineto
          -2 14 -8 36 -11 34 -73 294 rcurveline
          15 -3 -8 7 -10 hhcurveto
          -14 -60 -31 -20 -37 hvcurveto
          -13 -6 -5 -5 -9 vvcurveto
          -5 1 -5 10 -24 vhcurveto
          -12 4 7 -5 8 hhcurveto
          6 9 4 18 33 hvcurveto
          118 -412 rlineto
          -17 4 16 -7 22 hhcurveto
          endchar
        </CharString>
        <CharString name="rcaron">
          -172 168 578 -103 callgsubr
          -47 -580 -23 callgsubr
        </CharString>
        <CharString name="rcommaaccent">
          -172 121 -2 -68 callsubr
          -31 -236 -80 callsubr
          endchar
        </CharString>
        <CharString name="registered">
          -25 callgsubr
          -77 101 rmoveto
          12 hlineto
          18 7 5 10 hvcurveto
          160 24 vlineto
          31 10 -12 -39 12 hvcurveto
          35 -114 rlineto
          -6 2 9 -4 13 hhcurveto
          15 hlineto
          16 8 4 6 2 0 3 -2 4 hvcurveto
          -37 119 -11 34 -12 24 -14 8 rlinecurve
          3 vlineto
          31 15 23 33 49 vvcurveto
          72 -36 32 -77 vhcurveto
          -84 hlineto
          -12 -6 -6 -13 hvcurveto
          -374 vlineto
          -10 8 -5 17 vhcurveto
          37 228 rmoveto
          127 44 vlineto
          27 18 -20 -42 -35 -19 -30 -23 hvcurveto
          endchar
        </CharString>
        <CharString name="ring">
          -253 128 -6 callgsubr
          endchar
        </CharString>
        <CharString name="s">
          -31 callgsubr
          endchar
        </CharString>
        <CharString name="sacute">
          -156 169 -92 callsubr
          -5 -591 -87 callsubr
          endchar
        </CharString>
        <CharString name="sacute.loclPLK">
          -156 169 582 -79 callgsubr
          -5 -591 -87 callsubr
          endchar
        </CharString>
        <CharString name="scaron">
          -156 173 580 -103 callgsubr
          -9 -589 -87 callsubr
          endchar
        </CharString>
        <CharString name="scedilla">
          -156 324 146 rmoveto
          83 -42 40 -67 32 vhcurveto
          -40 22 -35 22 46 vvcurveto
          35 27 18 34 vhcurveto
          39 25 -23 7 hhcurveto
          13 21 44 18 29 -64 18 -52 -88 -64 -57 -90 -80 42 -37 62 -29 hvcurveto
          49 -25 32 -25 -45 vvcurveto
          -42 -24 -21 -42 vhcurveto
          -50 -31 35 -9 hhcurveto
          -14 -26 -42 -18 -26 57 -33 68 -4 hvcurveto
          -17 -52 -3 -11 -7 -65 callgsubr
          15 51 rlineto
          73 14 49 57 80 vvcurveto
          endchar
        </CharString>
        <CharString name="scircumflex">
          -156 85 575 -107 callgsubr
          79 -584 -87 callsubr
          endchar
        </CharString>
        <CharString name="scommaaccent">
          -31 callgsubr
          -26 -227 -80 callsubr
          endchar
        </CharString>
        <CharString name="section">
          -154 168 -7 rmoveto
          83 69 51 90 46 -19 33 -25 24 hvcurveto
          33 24 21 37 49 vvcurveto
          86 -54 37 -52 26 vhcurveto
          -39 19 -42 16 41 vvcurveto
          31 22 17 36 vhcurveto
          39 26 -23 7 hhcurveto
          14 20 45 16 30 -67 18 -49 -82 -69 -48 -90 -47 20 -31 25 -23 hvcurveto
          -34 -24 -22 -39 -49 vvcurveto
          -85 51 -34 48 -24 vhcurveto
          53 -28 37 -13 -41 vvcurveto
          -30 -21 -19 -38 vhcurveto
          -46 -27 30 -8 hhcurveto
          -13 -24 -44 -18 -29 65 -27 62 hvcurveto
          29 291 rmoveto
          -39 16 -34 16 46 vvcurveto
          33 18 16 21 8 vhcurveto
          40 -17 33 -16 -44 vvcurveto
          -34 -18 -17 -21 -7 vhcurveto
          endchar
        </CharString>
        <CharString name="semicolon">
          -321 83 402 rmoveto
          -42 callgsubr
          -38 -521 4 callgsubr
        </CharString>
        <CharString name="seven">
          -50 118 -2 rmoveto
          19 hlineto
          23 17 5 12 5 hvcurveto
          244 611 rlineto
          1 3 1 4 5 vvcurveto
          23 -14 39 -9 vhcurveto
          -352 -23 callsubr
          259 hlineto
          -235 -583 rlineto
          -2 -6 -3 -7 -3 vvcurveto
          -13 15 -5 31 vhcurveto
          endchar
        </CharString>
        <CharString name="six">
          -50 228 -6 rmoveto
          107 90 75 138 133 -80 72 -87 -40 -35 -11 -19 -29 hvcurveto
          29 109 73 88 120 48 rrcurveto
          8 3 1 5 6 vvcurveto
          14 -13 48 -24 -50 -264 -136 -321 -164 76 -88 118 vhcurveto
          2 85 rmoveto
          -44 -49 33 129 19 1 20 1 20 hvcurveto
          13 21 31 14 34 hhcurveto
          53 47 -38 -85 -84 -49 -41 -46 hvcurveto
          endchar
        </CharString>
        <CharString name="slash">
          -189 15 -17 callgsubr
        </CharString>
        <CharString name="space">
          -372 endchar
        </CharString>
        <CharString name="sterling">
          -98 39 hmoveto
          329 hlineto
          -17 callsubr
          -222 hlineto
          23 17 29 31 117 vvcurveto
          81 104 vlineto
          -16 callgsubr
          -104 88 hlineto
          83 28 36 63 vhcurveto
          29 25 -9 6 hhcurveto
          17 11 44 13 30 -64 6 -37 -126 -53 -78 -130 hvcurveto
          -83 -49 vlineto
          -53 callsubr
          49 -167 hlineto
          -81 -84 9 -42 vvcurveto
          -17 vlineto
          -23 8 -10 18 vhcurveto
          endchar
        </CharString>
        <CharString name="summation">
          -35 46 -102 rmoveto
          393 hlineto
          16 8 11 25 hvcurveto
          26 vlineto
          24 -8 12 -16 vhcurveto
          -280 hlineto
          -2 3 162 288 rlineto
          4 9 2 6 8 vvcurveto
          7 -2 7 -4 7 vhcurveto
          -152 277 1 3 rlineto
          257 hlineto
          17 7 12 24 hvcurveto
          17 -5 callsubr
          -17 vhcurveto
          -372 hlineto
          -21 -10 -9 -20 hvcurveto
          -12 vlineto
          -14 4 -11 6 -11 vhcurveto
          179 -322 -185 -323 rlineto
          -7 -11 -3 -10 -13 vvcurveto
          -13 vlineto
          -22 10 -11 20 vhcurveto
          endchar
        </CharString>
        <CharString name="t">
          -211 197 -7 rmoveto
          21 callgsubr
          hvcurveto
          -71 callgsubr
          -104 62 -28 54 vhcurveto
          endchar
        </CharString>
        <CharString name="tbar">
          -225 250 256 rmoveto
          18 6 10 23 hvcurveto
          11 vlineto
          23 -6 10 -18 vhcurveto
          -66 105 58 hlineto
          -17 callsubr
          -58 102 hlineto
          16 -11 9 -25 vhcurveto
          -16 hlineto
          -24 -13 -9 -16 -1 hvcurveto
          -13 -102 rlineto
          -26 -23 callsubr
          26 -105 -44 hlineto
          -16 -8 -20 callgsubr
          -11 vlineto
          -23 8 -10 16 vhcurveto
          44 -131 hlineto
          -104 62 -28 54 21 callgsubr
          vhcurveto
          -14 callgsubr
          123 vlineto
          endchar
        </CharString>
        <CharString name="tcaron">
          -211 248 574 -41 callgsubr
          -51 -581 rmoveto
          21 callgsubr
          hvcurveto
          -71 callgsubr
          -104 62 -28 54 vhcurveto
          endchar
        </CharString>
        <CharString name="thorn">
          -26 114 -207 rmoveto
          16 32 callsubr
          65 96 169 166 -62 106 -93 -43 -38 -22 -41 -28 hvcurveto
          261 15 callsubr
          -12 hlineto
          -32 -32 callgsubr
          -911 33 callsubr
          -19 hvcurveto
          266 vlineto
          38 21 29 23 30 hhcurveto
          52 26 -65 -119 -120 -28 -59 -58 hvcurveto
          endchar
        </CharString>
        <CharString name="three">
          -50 206 -7 rmoveto
          118 93 73 135 104 -59 61 -64 20 hvcurveto
          4 vlineto
          54 22 46 45 77 vvcurveto
          108 -74 65 -117 -68 -93 -23 -36 -19 24 -40 14 vhcurveto
          14 28 32 67 hhcurveto
          79 22 -49 -43 -47 -31 -70 -86 hvcurveto
          -33 hlineto
          -16 -7 -10 -45 callsubr
          16 vhcurveto
          39 hlineto
          82 51 -32 -90 -98 -68 -30 -56 hvcurveto
          -72 -40 37 -16 hhcurveto
          -14 -25 -38 -19 -37 98 -28 87 hvcurveto
          endchar
        </CharString>
        <CharString name="threequarters">
          118 130 291 -72 callgsubr
          28 -292 rmoveto
          14 hlineto
          14 11 5 14 6 hvcurveto
          299 665 rlineto
          2 4 2 4 3 vvcurveto
          6 -5 2 -10 vhcurveto
          -13 hlineto
          -14 -12 -5 -14 -6 hvcurveto
          -298 -665 rlineto
          -2 -4 -3 -5 -2 vvcurveto
          -6 6 -2 9 vhcurveto
          348 -35 callgsubr
        </CharString>
        <CharString name="tilde">
          -217 23 589 rmoveto
          -106 callsubr
          endchar
        </CharString>
        <CharString name="tildecomb">
          -509 -125 589 rmoveto
          -106 callsubr
          endchar
        </CharString>
        <CharString name="trademark">
          108 303 305 rmoveto
          10 hlineto
          18 7 5 9 hvcurveto
          251 5 vlineto
          69 -165 rlineto
          -6 3 5 -2 7 hhcurveto
          16 hlineto
          7 5 2 6 2 hvcurveto
          69 163 rlineto
          5 -249 hlineto
          -9 7 -5 18 vhcurveto
          10 hlineto
          17 8 5 9 hvcurveto
          368 vlineto
          9 -8 5 -17 vhcurveto
          -21 hlineto
          -12 -10 -3 -8 -3 hvcurveto
          -74 -176 -12 -32 -13 34 -71 174 rlineto
          8 -3 -10 3 -12 hhcurveto
          -22 hlineto
          -18 -7 -5 -9 hvcurveto
          -368 vlineto
          -9 7 -5 18 vhcurveto
          -171 hmoveto
          13 hlineto
          17 8 5 9 hvcurveto
          329 74 vlineto
          9 4 6 14 hvcurveto
          12 vlineto
          14 -4 6 -9 vhcurveto
          -211 hlineto
          -9 -4 -6 -14 hvcurveto
          -12 vlineto
          -14 4 -6 9 vhcurveto
          75 -329 hlineto
          -9 7 -5 17 vhcurveto
          endchar
        </CharString>
        <CharString name="two">
          -50 46 hmoveto
          350 hlineto
          16 7 11 25 hvcurveto
          13 vlineto
          25 -7 10 -16 vhcurveto
          -241 hlineto
          146 217 rlineto
          92 121 23 44 69 vvcurveto
          105 -78 67 -120 -77 -102 -35 -45 -18 23 -38 17 vhcurveto
          16 36 50 78 hhcurveto
          62 40 -33 -59 -39 -12 -28 -42 -60 hvcurveto
          -230 -329 rlineto
          -2 -3 -1 -6 -7 vvcurveto
          -22 9 -35 13 vhcurveto
          endchar
        </CharString>
        <CharString name="u">
          188 -8 -99 callgsubr
          endchar
        </CharString>
        <CharString name="uacute">
          -44 callsubr
          -41 -590 -99 callgsubr
          endchar
        </CharString>
        <CharString name="ubreve">
          239 -77 callsubr
          -51 -590 -99 callgsubr
          endchar
        </CharString>
        <CharString name="ucircumflex">
          145 575 -107 callgsubr
          43 -583 -99 callgsubr
          endchar
        </CharString>
        <CharString name="udieresis">
          171 599 -100 callgsubr
          -120 -607 -99 callgsubr
          endchar
        </CharString>
        <CharString name="ugrave">
          260 582 -98 callsubr
          -72 -590 -99 callgsubr
          endchar
        </CharString>
        <CharString name="uhorn">
          -41 489 579 -89 callgsubr
          endchar
        </CharString>
        <CharString name="uhungarumlaut">
          146 582 -81 callsubr
          -96 -590 -99 callgsubr
          endchar
        </CharString>
        <CharString name="umacron">
          143 608 -82 callsubr
          45 -616 -99 callgsubr
          endchar
        </CharString>
        <CharString name="underscore">
          -82 5 -139 rmoveto
          417 hlineto
          15 7 8 20 hvcurveto
          8 vlineto
          20 -7 9 -15 vhcurveto
          -417 hlineto
          -15 -7 -9 -20 hvcurveto
          -8 vlineto
          -20 7 -8 15 vhcurveto
          endchar
        </CharString>
        <CharString name="uni00A0">
          -372 endchar
        </CharString>
        <CharString name="uni00AD">
          -253 48 225 rmoveto
          159 19 callgsubr
          -159 0 callgsubr
        </CharString>
        <CharString name="uni00B2">
          -229 35 297 -54 callsubr
          endchar
        </CharString>
        <CharString name="uni00B3">
          -229 130 291 -72 callgsubr
          endchar
        </CharString>
        <CharString name="uni00B5">
          -56 -39 callgsubr
        </CharString>
        <CharString name="uni00B9">
          -229 140 296 rmoveto
          12 hlineto
          16 8 5 10 hvcurveto
          379 vlineto
          7 -10 6 -7 vhcurveto
          -111 -26 rlineto
          -8 -2 -3 -4 -7 vvcurveto
          -12 3 -24 11 vhcurveto
          64 14 rlineto
          -331 vlineto
          -10 10 -5 15 vhcurveto
          endchar
        </CharString>
        <CharString name="uni0162">
          -55 416 700 rmoveto
          -378 hlineto
          -15 -6 -11 -25 hvcurveto
          -20 vlineto
          -25 6 -11 15 vhcurveto
          135 -585 hlineto
          -14 9 -8 23 -2 vhcurveto
          -20 -60 -3 -10 -8 -65 callgsubr
          16 55 rlineto
          21 2 8 9 13 vvcurveto
          585 134 vlineto
          -16 callsubr
          endchar
        </CharString>
        <CharString name="uni0163">
          -211 274 28 rmoveto
          10 -8 45 -15 vhcurveto
          -71 callgsubr
          -80 37 -35 41 -12 vhcurveto
          -19 -59 -3 -10 -8 -65 callgsubr
          14 49 rlineto
          28 2 40 8 25 vvcurveto
          endchar
        </CharString>
        <CharString name="uni018F">
          51 257 -7 rmoveto
          150 85 97 247 260 -80 110 -157 -98 -106 -42 -35 -15 23 -43 15 hvcurveto
          16 55 48 86 hhcurveto
          85 48 -57 -196 4 hvcurveto
          -302 hlineto
          -11 -27 -33 -13 -220 61 -108 153 hvcurveto
          86 vmoveto
          -79 -31 63 145 hvcurveto
          237 hlineto
          -156 -10 -42 -52 -75 hhcurveto
          endchar
        </CharString>
        <CharString name="uni01C4">
          575 828 757 -103 callgsubr
          -726 -757 rmoveto
          174 hlineto
          156 96 98 252 251 -96 99 -156 hvcurveto
          -174 hlineto
          -21 -9 -20 callgsubr
          -634 54 callgsubr
          21 vhcurveto
          534 -50 callgsubr
          -454 92 rmoveto
          516 91 vlineto
          87 56 -70 -188 -189 -56 -69 -87 hvcurveto
          endchar
        </CharString>
        <CharString name="uni01C5">
          473 751 580 -103 callgsubr
          -649 -580 rmoveto
          -63 callsubr
          357 -92 rmoveto
          -94 callsubr
          endchar
        </CharString>
        <CharString name="uni01C6">
          377 -69 callgsubr
          481 587 -103 callgsubr
          -146 -580 rmoveto
          -94 callsubr
          -306 80 -19 callgsubr
        </CharString>
        <CharString name="uni01C7">
          129 95 hmoveto
          238 hlineto
          16 7 -70 callsubr
          -7 11 -16 vhcurveto
          -159 585 hlineto
          -43 callgsubr
          305 -164 rmoveto
          126 52 84 129 hvcurveto
          628 vlineto
          16 -14 9 -31 vhcurveto
          -22 hlineto
          -30 -32 callgsubr
          -630 vlineto
          -82 -23 -35 -58 vhcurveto
          -26 -20 8 -8 hhcurveto
          -16 -13 -46 -20 -23 56 -13 41 hvcurveto
          endchar
        </CharString>
        <CharString name="uni01C8">
          148 102 hmoveto
          -62 callsubr
          434 -78 callsubr
          -66 -811 -81 callgsubr
        </CharString>
        <CharString name="uni01C9">
          10 181 -7 -72 callsubr
          217 606 -104 callgsubr
          -66 -811 -81 callgsubr
        </CharString>
        <CharString name="uni01CA">
          436 -64 callgsubr
          585 -5 -60 callsubr
        </CharString>
        <CharString name="uni01CB">
          330 -64 callgsubr
          607 601 -104 callgsubr
          -66 -811 -81 callgsubr
        </CharString>
        <CharString name="uni01CC">
          222 610 -78 callsubr
          -497 -601 -91 callgsubr
          431 -210 -81 callgsubr
        </CharString>
        <CharString name="uni01EA">
          90 553 351 rmoveto
          245 -90 111 -164 -162 -91 -110 -246 -245 91 -113 162 vhcurveto
          15 hlineto
          -16 -31 -5 -31 -20 -60 callgsubr
          -27 callgsubr
          19 6 28 14 27 hvcurveto
          115 32 62 113 203 vvcurveto
          -395 hmoveto
          189 49 74 93 92 50 -74 -189 -188 -50 -78 -92 -93 -49 78 188 vhcurveto
          endchar
        </CharString>
        <CharString name="uni01EB">
          -32 350 -116 -6 callsubr
          20 7 29 15 28 hvcurveto
          97 21 50 91 150 vvcurveto
          174 -67 96 -11 callsubr
          -69 -97 -173 -168 64 -93 121 -6 vhcurveto
          -20 -34 -6 -35 -21 -60 callgsubr
          -200 377 rmoveto
          128 26 56 62 62 28 -56 -11 callsubr
          -28 -56 -62 -62 -14 callsubr
          vhcurveto
          endchar
        </CharString>
        <CharString name="uni01F1">
          575 102 hmoveto
          174 hlineto
          156 96 98 252 251 -96 99 -156 hvcurveto
          -174 hlineto
          -21 -9 -20 callgsubr
          -634 54 callgsubr
          21 vhcurveto
          534 -50 callgsubr
          -454 92 rmoveto
          516 91 vlineto
          87 56 -70 -188 -189 -56 -69 -87 hvcurveto
          endchar
        </CharString>
        <CharString name="uni01F2">
          473 -18 callsubr
          357 -92 rmoveto
          -94 callsubr
          endchar
        </CharString>
        <CharString name="uni01F3">
          377 -69 callgsubr
          335 7 rmoveto
          -94 callsubr
          -306 80 -19 callgsubr
        </CharString>
        <CharString name="uni021A">
          -55 217 -2 -56 callsubr
          -29 -234 -80 callsubr
          endchar
        </CharString>
        <CharString name="uni021B">
          -211 197 -7 rmoveto
          21 callgsubr
          hvcurveto
          -71 callgsubr
          -104 62 -28 54 vhcurveto
          -54 -229 -80 callsubr
          endchar
        </CharString>
        <CharString name="uni0237">
          -260 62 -212 -81 callgsubr
        </CharString>
        <CharString name="uni0259">
          -69 189 530 rmoveto
          -74 -78 -35 -31 -14 23 -44 17 hvcurveto
          10 32 39 69 hhcurveto
          69 32 -42 -100 6 hvcurveto
          -232 hlineto
          -13 -26 -33 -13 -170 57 -94 122 127 73 86 186 177 -69 88 -145 hvcurveto
          107 -304 rmoveto
          -105 -5 -30 -45 -56 hhcurveto
          -53 -25 48 102 hvcurveto
          endchar
        </CharString>
        <CharString name="uni02BC">
          -419 17 536 -80 callsubr
          endchar
        </CharString>
        <CharString name="uni02C9">
          -253 28 608 -82 callsubr
          endchar
        </CharString>
        <CharString name="uni0302">
          -509 -92 575 -107 callgsubr
          endchar
        </CharString>
        <CharString name="uni0304">
          -509 -100 608 -82 callsubr
          endchar
        </CharString>
        <CharString name="uni0306">
          -509 1 -77 callsubr
          endchar
        </CharString>
        <CharString name="uni0307">
          -509 1 -78 callsubr
          endchar
        </CharString>
        <CharString name="uni0308">
          -509 -70 599 -100 callgsubr
          endchar
        </CharString>
        <CharString name="uni030A">
          -509 560 vmoveto
          -67 callgsubr
          endchar
        </CharString>
        <CharString name="uni030B">
          -509 -114 582 -81 callsubr
          endchar
        </CharString>
        <CharString name="uni030C">
          -509 -1 580 -103 callgsubr
          endchar
        </CharString>
        <CharString name="uni0326">
          -509 -169 -236 -80 callsubr
          endchar
        </CharString>
        <CharString name="uni0327">
          -509 11 -56 rmoveto
          17 59 rlineto
          -48 hlineto
          -21 -63 -3 -11 -8 -65 callgsubr
          endchar
        </CharString>
        <CharString name="uni0394">
          72 -29 callsubr
        </CharString>
        <CharString name="uni03A9">
          90 -45 callgsubr
        </CharString>
        <CharString name="uni03BC">
          -42 -39 callgsubr
        </CharString>
        <CharString name="uni1E0C">
          -20 callsubr
          4 -275 -104 callgsubr
          endchar
        </CharString>
        <CharString name="uni1E0D">
          -28 -69 callgsubr
          29 87 -40 callgsubr
          10 -263 -104 callgsubr
          endchar
        </CharString>
        <CharString name="uni1E24">
          -30 callsubr
          187 -181 -104 callgsubr
          endchar
        </CharString>
        <CharString name="uni1E25">
          -24 116 -2 -54 callgsubr
          132 -181 -104 callgsubr
          endchar
        </CharString>
        <CharString name="uni1E44">
          81 296 776 -104 callgsubr
          -185 -778 -100 callsubr
          endchar
        </CharString>
        <CharString name="uni1E45">
          244 -78 callsubr
          -131 -601 -91 callgsubr
          endchar
        </CharString>
        <CharString name="uni1E5A">
          4 115 -2 -85 callgsubr
          -7 -572 -104 callgsubr
          endchar
        </CharString>
        <CharString name="uni1E5B">
          -172 121 -2 -68 callsubr
          11 -183 -104 callgsubr
          endchar
        </CharString>
        <CharString name="uni1E62">
          -43 callsubr
          20 -177 -104 callgsubr
          endchar
        </CharString>
        <CharString name="uni1E63">
          -31 callgsubr
          16 -174 -104 callgsubr
          endchar
        </CharString>
        <CharString name="uni1E6C">
          -55 217 -2 -56 callsubr
          13 -181 -104 callgsubr
          endchar
        </CharString>
        <CharString name="uni1E6D">
          -211 197 -7 rmoveto
          21 callgsubr
          hvcurveto
          -71 callgsubr
          -104 62 -28 54 vhcurveto
          -12 -176 -104 callgsubr
          endchar
        </CharString>
        <CharString name="uni1E92">
          -2 59 -50 callgsubr
          203 -183 -104 callgsubr
          endchar
        </CharString>
        <CharString name="uni1E93">
          -104 53 hmoveto
          -94 callsubr
          150 -183 -104 callgsubr
          endchar
        </CharString>
        <CharString name="uni1E9E">
          84 364 -7 rmoveto
          97 98 61 151 125 -64 59 -78 22 hvcurveto
          110 190 rlineto
          1 3 1 4 4 vvcurveto
          22 -16 40 -10 2 vhcurveto
          -48 14 -75 15 -77 1 rrcurveto
          -154 1 -81 -87 -177 vvcurveto
          -420 vlineto
          -26 callsubr
          16 hlineto
          32 14 -71 callsubr
          419 vlineto
          120 40 52 90 40 35 -6 -8 26 vhcurveto
          -113 -197 rlineto
          -2 -3 -1 -4 -5 vvcurveto
          -22 17 -41 12 vhcurveto
          29 hlineto
          63 41 -32 -89 -99 -53 -30 -45 hvcurveto
          -50 -22 33 -21 hhcurveto
          -15 -24 -39 -18 -31 74 -30 67 hvcurveto
          endchar
        </CharString>
        <CharString name="uni1EA0">
          -4 50 -2 -107 callsubr
          -73 -440 -104 callgsubr
          endchar
        </CharString>
        <CharString name="uni1EA1">
          -28 191 -7 -106 callgsubr
          21 -264 -104 callgsubr
          endchar
        </CharString>
        <CharString name="uni1EA2">
          -4 265 742 -96 callgsubr
          -215 -744 -107 callsubr
          endchar
        </CharString>
        <CharString name="uni1EA3">
          -28 253 565 -96 callgsubr
          -62 -572 -104 callsubr
        </CharString>
        <CharString name="uni1EA4">
          -18 345 850 9 callgsubr
          -28 -23 12 callsubr
          -187 -98 -80 callgsubr
        </CharString>
        <CharString name="uni1EA5">
          -64 323 718 -105 callsubr
          -189 -143 rmoveto
          20 hlineto
          14 12 1 14 7 56 callgsubr
          5 56 callsubr
          8 5 8 5 -3 6 -4 callsubr
          -50 92 rlineto
          16 -8 -15 5 -22 hhcurveto
          -12 hlineto
          -21 -16 -48 callsubr
          57 -582 -104 callsubr
        </CharString>
        <CharString name="uni1EA6">
          -18 384 850 rmoveto
          16 7 3 9 9 -7 19 -30 45 callgsubr
          -25 -10 -4 -11 -10 7 45 callsubr
          22 hhcurveto
          -226 -98 -80 callgsubr
        </CharString>
        <CharString name="uni1EA7">
          -64 355 718 -98 callsubr
          -221 -143 rmoveto
          20 hlineto
          14 12 1 14 7 56 callgsubr
          5 56 callsubr
          8 5 8 5 -3 6 -4 callsubr
          -50 92 rlineto
          16 -8 -15 5 -22 hhcurveto
          -12 hlineto
          -21 -16 -48 callsubr
          57 -582 -104 callsubr
        </CharString>
        <CharString name="uni1EA8">
          -18 360 857 25 callsubr
          14 18 27 vvcurveto
          48 -47 19 -41 -35 -43 -15 -13 -11 18 -25 8 vhcurveto
          6 -27 callsubr
          -202 -105 -80 callgsubr
        </CharString>
        <CharString name="uni1EA9">
          -64 345 701 -96 callgsubr
          -211 -126 rmoveto
          20 hlineto
          14 12 1 14 7 56 callgsubr
          5 56 callsubr
          8 5 8 5 -3 6 -4 callsubr
          -50 92 rlineto
          16 -8 -15 5 -22 hhcurveto
          -12 hlineto
          -21 -16 -48 callsubr
          57 -582 -104 callsubr
        </CharString>
        <CharString name="uni1EAA">
          -18 132 897 29 callsubr
          4 5 -4 callgsubr
          11 8 5 11 29 48 -37 38 hhcurveto
          34 26 22 47 17 hvcurveto
          1 5 2 4 5 vvcurveto
          7 -4 5 7 callgsubr
          -19 -11 -8 -4 -12 27 callgsubr
          -7 8 -3 vhcurveto
          36 -149 -46 callsubr
          -108 -754 -107 callsubr
          endchar
        </CharString>
        <CharString name="uni1EAB">
          -64 118 0 callsubr
          -3 4 -10 4 vhcurveto
          -7 12 callgsubr
          -12 -8 -9 callsubr
          -29 -47 36 -36 40 callgsubr
          3 -6 9 -4 vhcurveto
          25 -177 rmoveto
          21 hlineto
          17 9 5 -22 callgsubr
          34 52 33 -53 rlineto
          -9 8 8 -5 17 14 callsubr
          3 -3 8 -5 8 hvcurveto
          -46 68 rlineto
          14 -11 -14 7 -22 13 callsubr
          -47 43 callgsubr
          57 -582 -104 callsubr
        </CharString>
        <CharString name="uni1EAC">
          -4 159 752 -107 callgsubr
          -109 -754 -107 callsubr
          -73 -440 -104 callgsubr
          endchar
        </CharString>
        <CharString name="uni1EAD">
          -28 147 575 -107 callgsubr
          44 -582 -106 callgsubr
          21 -264 -104 callgsubr
          endchar
        </CharString>
        <CharString name="uni1EAE">
          -18 233 851 9 callgsubr
          -27 -24 12 callsubr
          13 -92 rmoveto
          72 48 42 53 19 -9 6 -32 callsubr
          -6 -19 -53 48 -42 73 hvcurveto
          -196 -761 -107 callsubr
          endchar
        </CharString>
        <CharString name="uni1EAF">
          -28 230 -92 callgsubr
          11 -177 -90 callgsubr
        </CharString>
        <CharString name="uni1EB0">
          -18 267 851 rmoveto
          17 7 3 9 9 -7 20 -30 70 hvcurveto
          20 -9 -24 7 -27 hhcurveto
          -26 -10 -4 -11 -10 8 45 callsubr
          21 hhcurveto
          -21 -92 rmoveto
          72 48 42 53 19 -9 6 -32 callsubr
          -6 -19 -53 48 -42 73 hvcurveto
          -196 -761 -107 callsubr
          endchar
        </CharString>
        <CharString name="uni1EB1">
          -28 261 759 -98 callsubr
          -20 -177 -90 callgsubr
        </CharString>
        <CharString name="uni1EB2">
          -18 248 858 25 callsubr
          15 18 27 vvcurveto
          48 -48 19 -40 -35 -44 -15 -13 -11 18 -25 8 vhcurveto
          6 -27 callsubr
          -2 -99 rmoveto
          72 48 42 53 19 -9 6 -32 callsubr
          -6 -19 -53 48 -42 73 hvcurveto
          -196 -761 -107 callsubr
          endchar
        </CharString>
        <CharString name="uni1EB3">
          -28 252 742 -96 callgsubr
          -11 -160 -90 callgsubr
        </CharString>
        <CharString name="uni1EB4">
          -18 132 908 rmoveto
          -1 4 4 -1 3 hhcurveto
          7 5 4 10 6 hvcurveto
          19 12 8 5 11 29 47 9 callsubr
          -3 hhcurveto
          -8 -6 -5 -11 -6 hvcurveto
          -18 -11 -9 -5 -11 hhcurveto
          1 -30 -47 36 -36 hhcurveto
          -35 -26 -22 -47 -16 -9 callgsubr
          123 -165 rmoveto
          72 48 42 53 20 -9 5 -32 callsubr
          -5 -20 -53 48 -42 73 hvcurveto
          -196 -748 -107 callsubr
          endchar
        </CharString>
        <CharString name="uni1EB5">
          -28 113 766 rmoveto
          -106 callsubr
          138 -187 -90 callgsubr
        </CharString>
        <CharString name="uni1EB6">
          -4 253 759 -99 callsubr
          -203 -761 -107 callsubr
          -73 -440 -104 callgsubr
          endchar
        </CharString>
        <CharString name="uni1EB7">
          -28 241 582 -90 callsubr
          21 -264 -104 callgsubr
          endchar
        </CharString>
        <CharString name="uni1EB8">
          -52 102 hmoveto
          -103 callsubr
          145 -183 -104 callgsubr
          endchar
        </CharString>
        <CharString name="uni1EB9">
          -55 257 -7 -102 callgsubr
          -85 -480 -104 callgsubr
          endchar
        </CharString>
        <CharString name="uni1EBA">
          -52 258 742 -96 callgsubr
          -156 -742 -101 callsubr
        </CharString>
        <CharString name="uni1EBB">
          -55 243 565 -96 callgsubr
          14 -572 -98 callgsubr
        </CharString>
        <CharString name="uni1EBC">
          -52 119 766 rmoveto
          -106 callsubr
          -7 -769 -101 callsubr
        </CharString>
        <CharString name="uni1EBD">
          -55 104 589 rmoveto
          -106 callsubr
          163 -599 -98 callgsubr
        </CharString>
        <CharString name="uni1EBE">
          -66 338 850 rmoveto
          22 11 6 11 8 hvcurveto
          61 84 10 11 10 vvcurveto
          12 -11 4 -23 -27 -13 callsubr
          -10 vhcurveto
          -31 -71 -10 -19 -9 vvcurveto
          -9 7 -3 16 vhcurveto
          -187 -98 -75 callsubr
        </CharString>
        <CharString name="uni1EBF">
          -69 326 718 -105 callsubr
          -190 -143 -73 callsubr
        </CharString>
        <CharString name="uni1EC0">
          -66 376 850 rmoveto
          17 7 3 9 9 -8 19 -29 45 callgsubr
          -26 -10 -4 -11 -10 9 -9 58 -86 hvcurveto
          -11 9 12 -7 21 hhcurveto
          -225 -98 -75 callsubr
        </CharString>
        <CharString name="uni1EC1">
          -69 357 718 -98 callsubr
          -221 -143 -73 callsubr
        </CharString>
        <CharString name="uni1EC2">
          -66 353 857 25 callsubr
          14 18 27 vvcurveto
          48 -47 19 -41 -35 -43 -15 -13 -11 17 -25 8 vhcurveto
          7 -27 callsubr
          -202 -105 -75 callsubr
        </CharString>
        <CharString name="uni1EC3">
          -69 348 701 -96 callgsubr
          -212 -126 -73 callsubr
        </CharString>
        <CharString name="uni1EC4">
          -66 124 900 29 callsubr
          5 4 10 6 hvcurveto
          19 11 8 5 11 29 48 9 callsubr
          -4 hhcurveto
          -7 -7 -5 -11 -6 hvcurveto
          -17 -11 -8 -6 -12 23 callsubr
          8 -4 vhcurveto
          38 -151 rmoveto
          20 hlineto
          17 9 5 -22 callgsubr
          34 52 34 -53 rlineto
          -9 7 8 -5 17 -7 callsubr
          -50 -65 callsubr
        </CharString>
        <CharString name="uni1EC5">
          -69 117 0 callsubr
          -4 4 -10 4 vhcurveto
          -6 12 callgsubr
          -12 -8 -9 callsubr
          -29 -47 36 -36 hhcurveto
          -35 -26 -22 -47 -16 -9 callgsubr
          29 -177 rmoveto
          20 hlineto
          18 8 5 10 8 hvcurveto
          33 52 34 -53 rlineto
          -9 7 9 -5 16 -7 callsubr
          120 -62 callgsubr
        </CharString>
        <CharString name="uni1EC6">
          -52 callgsubr
          145 -183 -104 callgsubr
          endchar
        </CharString>
        <CharString name="uni1EC7">
          -50 callsubr
          -85 -480 -104 callgsubr
          endchar
        </CharString>
        <CharString name="uni1EC8">
          -247 143 742 -96 callgsubr
          -23 -744 -79 callsubr
          endchar
        </CharString>
        <CharString name="uni1EC9">
          -255 139 565 -96 callgsubr
          -17 -567 -70 callgsubr
        </CharString>
        <CharString name="uni1ECA">
          -247 120 -2 -79 callsubr
          13 -181 -104 callgsubr
          endchar
        </CharString>
        <CharString name="uni1ECB">
          -47 callgsubr
          -5 -181 -104 callgsubr
          endchar
        </CharString>
        <CharString name="uni1ECC">
          90 299 -7 -101 callgsubr
          3 -268 -104 callgsubr
          endchar
        </CharString>
        <CharString name="uni1ECD">
          -32 239 -7 22 callsubr
          174 -67 96 -128 -97 callgsubr
          6 -261 -104 callgsubr
          endchar
        </CharString>
        <CharString name="uni1ECE">
          90 312 742 -96 callgsubr
          -13 -749 -101 callgsubr
          endchar
        </CharString>
        <CharString name="uni1ECF">
          -32 251 565 -96 callgsubr
          -12 -572 22 callsubr
          174 -67 96 -128 -57 callsubr
        </CharString>
        <CharString name="uni1ED0">
          76 392 850 9 callgsubr
          -28 -23 12 callsubr
          -187 -98 -83 callgsubr
          94 -759 -101 callgsubr
          endchar
        </CharString>
        <CharString name="uni1ED1">
          -46 334 718 -105 callsubr
          -190 -143 -83 callgsubr
          95 -582 22 callsubr
          174 -67 96 -128 -57 callsubr
        </CharString>
        <CharString name="uni1ED2">
          76 431 850 rmoveto
          16 7 3 9 9 -7 19 -30 45 callgsubr
          -25 -10 -4 -11 -10 7 45 callsubr
          22 hhcurveto
          -226 -98 -83 callgsubr
          94 -759 -101 callgsubr
          endchar
        </CharString>
        <CharString name="uni1ED3">
          -46 365 718 -98 callsubr
          -221 -143 -83 callgsubr
          95 -582 22 callsubr
          174 -67 96 -128 -57 callsubr
        </CharString>
        <CharString name="uni1ED4">
          76 407 857 25 callsubr
          14 18 27 vvcurveto
          48 -47 19 -41 -35 -43 -15 -13 -11 18 -25 8 vhcurveto
          6 -27 callsubr
          -202 -105 -83 callgsubr
          94 -759 -101 callgsubr
          endchar
        </CharString>
        <CharString name="uni1ED5">
          -46 356 701 -96 callgsubr
          -212 -126 -83 callgsubr
          95 -582 22 callsubr
          174 -67 96 -128 -57 callsubr
        </CharString>
        <CharString name="uni1ED6">
          76 173 900 29 callsubr
          5 5 10 6 hvcurveto
          19 11 9 6 9 30 48 -38 38 hhcurveto
          34 26 23 46 17 hvcurveto
          1 5 2 4 5 vvcurveto
          7 -4 5 7 callgsubr
          -18 -11 -9 -5 -11 27 callgsubr
          -6 9 -4 vhcurveto
          41 -152 -46 callsubr
          94 -759 -101 callgsubr
          endchar
        </CharString>
        <CharString name="uni1ED7">
          -46 125 749 18 callsubr
          34 26 13 callgsubr
          -3 4 -10 4 vhcurveto
          -8 3 rlineto
          2 -4 -3 31 callgsubr
          -11 -9 -5 -11 16 callgsubr
          29 -177 -46 callsubr
          95 -582 22 callsubr
          174 -67 96 -128 -57 callsubr
        </CharString>
        <CharString name="uni1ED8">
          90 206 752 -107 callgsubr
          93 -759 -101 callgsubr
          3 -268 -104 callgsubr
          endchar
        </CharString>
        <CharString name="uni1ED9">
          -32 145 575 -107 callgsubr
          94 -582 22 callsubr
          174 -67 96 -128 -97 callgsubr
          6 -261 -104 callgsubr
          endchar
        </CharString>
        <CharString name="uni1EDA">
          -1 callsubr
          9 -766 -86 callgsubr
        </CharString>
        <CharString name="uni1EDB">
          -1 callgsubr
          10 -589 -86 callsubr
        </CharString>
        <CharString name="uni1EDC">
          90 321 759 -98 callsubr
          -22 -766 -86 callgsubr
        </CharString>
        <CharString name="uni1EDD">
          -32 260 582 -98 callsubr
          -21 -589 -86 callsubr
        </CharString>
        <CharString name="uni1EDE">
          90 312 742 -96 callgsubr
          -13 -749 -86 callgsubr
        </CharString>
        <CharString name="uni1EDF">
          -32 251 565 -96 callgsubr
          -12 -572 -86 callsubr
        </CharString>
        <CharString name="uni1EE0">
          90 173 766 rmoveto
          -106 callsubr
          136 -776 -86 callgsubr
        </CharString>
        <CharString name="uni1EE1">
          -32 112 589 rmoveto
          -106 callsubr
          137 -599 -86 callsubr
        </CharString>
        <CharString name="uni1EE2">
          90 299 -7 rmoveto
          164 90 113 245 122 -23 89 -44 58 hvcurveto
          63 5 29 35 51 vvcurveto
          29 -20 47 -24 -5 -4 -1 -3 -4 vhcurveto
          -27 -18 rlineto
          -6 -4 -3 -6 -7 vvcurveto
          1 -12 26 -19 -29 vvcurveto
          -17 -9 -16 -30 -12 -8 3 8 -13 vhcurveto
          25 -37 -46 16 -58 hhcurveto
          -162 -91 -110 -246 -245 91 -113 162 hvcurveto
          1 92 rmoveto
          -93 -49 78 188 189 49 74 93 92 50 -74 -189 -188 -50 -78 -92 hvcurveto
          3 -268 -104 callgsubr
          endchar
        </CharString>
        <CharString name="uni1EE3">
          -32 239 -7 22 callsubr
          88 -18 68 -35 46 hvcurveto
          61 6 29 35 49 vvcurveto
          -74 callgsubr
          -10 -17 -27 -14 -12 4 6 -12 vhcurveto
          15 -27 -28 8 -35 hhcurveto
          -97 callgsubr
          6 -261 -104 callgsubr
          endchar
        </CharString>
        <CharString name="uni1EE4">
          74 292 -7 rmoveto
          145 83 76 129 hvcurveto
          479 vlineto
          16 -13 9 -31 vhcurveto
          -21 -97 callsubr
          vhcurveto
          4 -176 -104 callgsubr
          endchar
        </CharString>
        <CharString name="uni1EE5">
          188 -8 -99 callgsubr
          42 -175 -104 callgsubr
          endchar
        </CharString>
        <CharString name="uni1EE6">
          74 304 742 -96 callgsubr
          -12 -749 rmoveto
          145 83 76 129 hvcurveto
          479 vlineto
          16 -13 9 -31 vhcurveto
          -21 -97 callsubr
          vhcurveto
          endchar
        </CharString>
        <CharString name="uni1EE7">
          251 565 -96 callgsubr
          -63 -573 -99 callgsubr
          endchar
        </CharString>
        <CharString name="uni1EE8">
          61 275 -92 callgsubr
          317 -2 -88 callsubr
          endchar
        </CharString>
        <CharString name="uni1EE9">
          -41 222 -92 callsubr
          267 -3 -89 callgsubr
          endchar
        </CharString>
        <CharString name="uni1EEA">
          61 306 759 -98 callsubr
          286 -2 -88 callsubr
          endchar
        </CharString>
        <CharString name="uni1EEB">
          -41 253 582 -98 callsubr
          236 -3 -89 callgsubr
          endchar
        </CharString>
        <CharString name="uni1EEC">
          61 297 742 -96 callgsubr
          295 15 -88 callsubr
          endchar
        </CharString>
        <CharString name="uni1EED">
          -41 244 565 -96 callgsubr
          245 14 -89 callgsubr
          endchar
        </CharString>
        <CharString name="uni1EEE">
          61 158 766 rmoveto
          -106 callsubr
          444 -12 -88 callsubr
          endchar
        </CharString>
        <CharString name="uni1EEF">
          -41 108 589 29 callsubr
          4 -25 callsubr
          11 8 5 10 30 48 -37 38 hhcurveto
          34 26 23 46 16 hvcurveto
          2 5 2 -34 callsubr
          7 callgsubr
          -18 -11 -9 -5 -11 23 callsubr
          9 -4 vhcurveto
          390 -13 -89 callgsubr
          endchar
        </CharString>
        <CharString name="uni1EF0">
          61 592 757 -88 callsubr
          -303 -940 -104 callgsubr
          endchar
        </CharString>
        <CharString name="uni1EF1">
          -41 489 579 -89 callgsubr
          -266 -762 -104 callgsubr
          endchar
        </CharString>
        <CharString name="uni1EF4">
          -25 232 -2 rmoveto
          -83 callsubr
          14 -181 -104 callgsubr
          endchar
        </CharString>
        <CharString name="uni1EF4.loclGUA">
          -11 395 702 -95 callgsubr
          -150 -782 -28 callsubr
        </CharString>
        <CharString name="uni1EF5">
          -107 347 525 -96 callsubr
          -36 -640 -28 callsubr
        </CharString>
        <CharString name="uni1EF5.loclGUA">
          411 500 rmoveto
          -95 callsubr
          58 -167 -28 callsubr
        </CharString>
        <CharString name="uni1EF6">
          -25 254 742 -96 callgsubr
          -22 -744 rmoveto
          -88 callgsubr
        </CharString>
        <CharString name="uni1EF6.loclGUA">
          -11 204 861 -28 callgsubr
          191 -159 -95 callgsubr
          endchar
        </CharString>
        <CharString name="uni1EF7">
          -107 159 684 -28 callgsubr
          188 -159 -96 callsubr
          endchar
        </CharString>
        <CharString name="uni1EF7.loclGUA">
          195 684 -28 callgsubr
          216 -611 rmoveto
          427 vlineto
          -95 callsubr
          endchar
        </CharString>
        <CharString name="uni1EF8">
          -25 115 766 rmoveto
          -106 callsubr
          127 -771 rmoveto
          -88 callgsubr
        </CharString>
        <CharString name="uni1EF8.loclGUA">
          -11 111 769 rmoveto
          10 -3 rlineto
          -106 callsubr
          284 -67 -95 callgsubr
          endchar
        </CharString>
        <CharString name="uni1EF9">
          -107 66 592 rmoveto
          10 -3 rlineto
          -106 callsubr
          281 -67 -96 callsubr
          endchar
        </CharString>
        <CharString name="uni1EF9.loclGUA">
          102 592 rmoveto
          10 -3 rlineto
          -106 callsubr
          309 -519 rmoveto
          427 vlineto
          -95 callsubr
          endchar
        </CharString>
        <CharString name="uni2002">
          -23 endchar
        </CharString>
        <CharString name="uni2003">
          377 endchar
        </CharString>
        <CharString name="uni2004">
          -218 endchar
        </CharString>
        <CharString name="uni2005">
          -288 endchar
        </CharString>
        <CharString name="uni20B2">
          29 452 390 rmoveto
          -163 1 callgsubr
          -20 -24 callsubr
          86 -201 hlineto
          -7 -21 -25 -3 -30 hhcurveto
          -108 -40 107 158 167 43 92 114 hvcurveto
          73 35 -36 11 hhcurveto
          17 26 47 20 26 -70 33 -74 5 hvcurveto
          32 vlineto
          21 -9 9 -21 -18 -9 -9 -21 vhcurveto
          -33 vlineto
          -153 -14 -77 -116 -229 vvcurveto
          -227 78 -113 152 -12 vhcurveto
          -45 vlineto
          -21 9 -9 21 18 9 9 21 vhcurveto
          45 vlineto
          74 4 82 22 48 vvcurveto
          289 vlineto
          23 -10 10 -20 vhcurveto
          endchar
        </CharString>
        <CharString name="uni2113">
          -166 174 -7 rmoveto
          40 59 13 33 9 -8 45 -15 hvcurveto
          -11 -15 -15 -27 hhcurveto
          -23 -13 13 48 hvcurveto
          151 vlineto
          90 85 61 137 117 vvcurveto
          70 -30 56 -71 -61 -94 -27 -272 vhcurveto
          -162 vlineto
          -17 -14 -18 -12 -17 -12 rrcurveto
          -12 -8 -5 -11 -10 vvcurveto
          -7 2 -6 4 -6 vhcurveto
          -13 9 7 -6 8 hhcurveto
          5 6 2 4 6 hvcurveto
          22 16 rlineto
          -77 vlineto
          -111 54 -30 64 vhcurveto
          -13 393 rmoveto
          278 35 13 22 20 9 -20 -30 -81 -38 -94 -48 -66 vhcurveto
          endchar
        </CharString>
        <CharString name="uni2126">
          76 -45 callgsubr
        </CharString>
        <CharString name="uni2153">
          125 -63 callgsubr
          360 -6 -72 callgsubr
          endchar
        </CharString>
        <CharString name="uni2154">
          183 35 299 -54 callsubr
          141 -300 rmoveto
          13 hlineto
          15 11 5 14 6 hvcurveto
          298 665 rlineto
          3 4 2 4 3 vvcurveto
          6 -5 2 -10 vhcurveto
          -14 hlineto
          -13 -12 -5 -14 -7 hvcurveto
          -298 -665 rlineto
          -2 -4 -2 -5 -2 vvcurveto
          -6 6 -2 9 vhcurveto
          357 -6 -72 callgsubr
          endchar
        </CharString>
        <CharString name="uni2206">
          57 -29 callsubr
        </CharString>
        <CharString name="uni2215">
          -288 -17 -17 callgsubr
        </CharString>
        <CharString name="uni2219">
          -284 113 303 rmoveto
          30 22 25 32 32 -22 25 -30 -29 -22 -25 -32 -32 22 -25 29 hvcurveto
          endchar
        </CharString>
        <CharString name="uni25CC">
          -29 240 524 rmoveto
          15 11 13 18 18 -11 13 -15 -33 callsubr
          -67 -15 rmoveto
          -10 callgsubr
          135 -1 7 callsubr
          -192 -44 rmoveto
          30 callgsubr
          -33 callsubr
          246 hmoveto
          -10 callgsubr
          -280 -68 rmoveto
          14 11 13 18 18 -11 13 -14 -33 callsubr
          318 hmoveto
          30 callgsubr
          -33 callsubr
          -331 -84 7 callsubr
          343 hmoveto
          15 11 13 18 18 -11 13 -15 -33 callsubr
          -330 -84 7 callsubr
          318 hmoveto
          30 callgsubr
          -33 callsubr
          -37 -68 rmoveto
          -10 callgsubr
          -246 -1 rmoveto
          30 callgsubr
          -33 callsubr
          191 -45 7 callsubr
          -135 -1 rmoveto
          -10 callgsubr
          67 -14 rmoveto
          15 11 13 18 18 -11 13 -15 -33 callsubr
          endchar
        </CharString>
        <CharString name="uogonek">
          483 -90 -6 callsubr
          17 5 25 12 25 hvcurveto
          4 3 3 4 4 9 -10 35 87 vvcurveto
          343 vlineto
          16 -13 9 -30 vhcurveto
          -18 -74 callsubr
          3 hlineto
          -12 -27 -4 -27 -17 -60 callgsubr
          endchar
        </CharString>
        <CharString name="uring">
          237 -6 callgsubr
          -49 -611 -99 callgsubr
          endchar
        </CharString>
        <CharString name="utilde">
          112 589 rmoveto
          -106 callsubr
          86 -600 -99 callgsubr
          endchar
        </CharString>
        <CharString name="v">
          -97 183 -2 rmoveto
          46 hlineto
          21 16 4 13 4 hvcurveto
          121 476 rlineto
          2 7 0 4 5 vvcurveto
          11 -12 7 -28 vhcurveto
          -20 hlineto
          -22 -17 -4 -13 -3 hvcurveto
          -60 -272 -8 -42 -6 -49 -6 -43 rlinecurve
          -6 hlineto
          -6 43 -7 49 -9 42 -60 272 rcurveline
          13 -3 -17 4 -20 hhcurveto
          -22 hlineto
          -30 -13 -7 -11 -5 1 -5 1 -6 hvcurveto
          122 -476 rlineto
          -13 4 16 -4 21 hhcurveto
          endchar
        </CharString>
        <CharString name="w">
          107 161 -2 -93 callsubr
        </CharString>
        <CharString name="wacute">
          107 298 -92 callsubr
          -137 -584 -93 callsubr
        </CharString>
        <CharString name="wcircumflex">
          107 214 575 -107 callgsubr
          -53 -577 -93 callsubr
        </CharString>
        <CharString name="wdieresis">
          107 240 599 -100 callgsubr
          -216 -601 -93 callsubr
        </CharString>
        <CharString name="wgrave">
          107 329 582 -98 callsubr
          -168 -584 -93 callsubr
        </CharString>
        <CharString name="x">
          -105 35 hmoveto
          41 hlineto
          21 16 0 13 6 hvcurveto
          68 155 6 14 4 12 4 12 rlinecurve
          4 -12 4 -12 7 -14 66 -155 rcurveline
          -13 5 17 0 21 hhcurveto
          41 hlineto
          19 7 4 11 6 -3 6 -4 8 hvcurveto
          -126 233 119 219 rlineto
          5 9 3 6 6 vvcurveto
          11 -14 6 -31 vhcurveto
          -19 hlineto
          -21 -18 -1 -15 -6 hvcurveto
          -60 -139 -6 -14 -4 -11 -3 -10 rlinecurve
          -4 10 -4 11 -6 14 -60 139 rcurveline
          15 -6 -16 1 -22 hhcurveto
          -20 hlineto
          -33 -13 -6 -11 -6 3 -6 3 -9 hvcurveto
          119 -220 -126 -232 rlineto
          -4 -8 -4 -6 -6 vvcurveto
          -11 7 -4 17 vhcurveto
          endchar
        </CharString>
        <CharString name="y">
          -107 347 525 -96 callsubr
          endchar
        </CharString>
        <CharString name="y.loclGUA">
          411 73 rmoveto
          427 vlineto
          -95 callsubr
          endchar
        </CharString>
        <CharString name="yacute">
          -107 193 -92 callsubr
          154 -57 -96 callsubr
          endchar
        </CharString>
        <CharString name="yacute.loclGUA">
          -44 callsubr
          182 -509 rmoveto
          427 vlineto
          -95 callsubr
          endchar
        </CharString>
        <CharString name="ycircumflex">
          -107 109 575 -107 callgsubr
          238 -50 -96 callsubr
          endchar
        </CharString>
        <CharString name="ycircumflex.loclGUA">
          145 575 -107 callgsubr
          266 -502 rmoveto
          427 vlineto
          -95 callsubr
          endchar
        </CharString>
        <CharString name="ydieresis">
          -107 135 599 -100 callgsubr
          75 -74 -96 callsubr
          endchar
        </CharString>
        <CharString name="ydieresis.loclGUA">
          171 599 -100 callgsubr
          103 -526 rmoveto
          427 vlineto
          -95 callsubr
          endchar
        </CharString>
        <CharString name="yen">
          -39 469 684 rmoveto
          11 -13 6 -32 1 vhcurveto
          -22 hlineto
          -22 -17 -2 -13 -5 hvcurveto
          -113 -273 -112 272 rlineto
          13 -6 -16 3 -22 hhcurveto
          -27 hlineto
          -33 -14 -7 -11 -5 3 -7 4 -8 hvcurveto
          118 -250 rlineto
          -75 hlineto
          49 callsubr
          107 hlineto
          15 -31 rlineto
          -56 -122 vlineto
          49 callsubr
          122 -164 hlineto
          -16 14 -9 31 20 callgsubr
          164 110 vlineto
          49 callgsubr
          -110 53 hlineto
          16 34 rlineto
          94 hlineto
          49 callgsubr
          -61 hlineto
          117 250 rlineto
          4 8 48 callgsubr
          endchar
        </CharString>
        <CharString name="ygrave">
          -107 224 582 -98 callsubr
          123 -57 -96 callsubr
          endchar
        </CharString>
        <CharString name="ygrave.loclGUA">
          260 582 -98 callsubr
          151 -509 rmoveto
          427 vlineto
          -95 callsubr
          endchar
        </CharString>
        <CharString name="z">
          -104 53 hmoveto
          -94 callsubr
          endchar
        </CharString>
        <CharString name="zacute">
          -104 195 -92 callsubr
          -142 -582 rmoveto
          -94 callsubr
          endchar
        </CharString>
        <CharString name="zacute.loclPLK">
          -104 195 582 -79 callgsubr
          -142 -582 rmoveto
          -94 callsubr
          endchar
        </CharString>
        <CharString name="zcaron">
          -104 199 580 -103 callgsubr
          -146 -580 rmoveto
          -94 callsubr
          endchar
        </CharString>
        <CharString name="zdotaccent">
          -104 206 -78 callsubr
          -153 -599 rmoveto
          -94 callsubr
          endchar
        </CharString>
        <CharString name="zero">
          -50 228 -7 rmoveto
          120 79 111 246 246 -79 111 -120 -118 -79 -111 -246 -246 79 -111 118 hvcurveto
          1 85 rmoveto
          -52 -39 61 211 211 39 61 52 52 40 -61 -211 -211 -40 -61 -52 hvcurveto
          endchar
        </CharString>
      <CharString index="0">
        rmoveto
        21 hlineto
        15 11 5 -22 callgsubr
        39 65 40 -65 6 callgsubr
        11 -5 15 -18 callgsubr
        13 7 5 8 5 -3 6 -4 callsubr
        -55 92 rlineto
        15 -10 -14 6 -22 hhcurveto
        -11 5 callsubr
        -6 -15 -10 hvcurveto
        -54 -92 rlineto
        -3 -6 -4 -8 -4 vvcurveto
        -7 7 -5 13 vhcurveto
        return
      </CharString>
      <CharString index="1">
        rmoveto
        56 40 28 35 27 hvcurveto
        -28 7 6 -29 23 hhcurveto
        16 54 5 21 hvcurveto
        9 -12 34 88 vvcurveto
        216 vlineto
        97 -59 61 -119 -84 -80 -33 -28 -14 24 -44 16 vhcurveto
        12 40 34 68 hhcurveto
        59 21 -33 -41 hvcurveto
        -38 vlineto
        -146 -1 -113 -46 -137 vvcurveto
        -99 55 -57 89 vhcurveto
        25 88 rmoveto
        -46 -22 26 46 87 77 15 81 1 hvcurveto
        -125 vlineto
        -32 -22 -31 -18 -37 hhcurveto
        return
      </CharString>
      <CharString index="2">
        31 14 7 13 9 hvcurveto
        73 99 8 7 11 vvcurveto
        11 -15 3 -30 -30 -13 callsubr
        -10 vhcurveto
        -39 -80 -12 -76 callgsubr
        return
      </CharString>
      <CharString index="3">
        rmoveto
        36 16 -71 callsubr
        51 callgsubr
        -37 -15 -10 -15 vhcurveto
        51 callsubr
        vhcurveto
        return
      </CharString>
      <CharString index="4">
        rmoveto
        13 hlineto
        21 14 5 16 10 hvcurveto
        55 91 rlineto
        4 7 3 6 4 vvcurveto
        9 -7 5 -13 vhcurveto
        -22 hlineto
        -15 -11 -5 -11 -6 hvcurveto
        -40 -64 -39 64 rlineto
        11 -7 -11 5 -15 hhcurveto
        -21 hlineto
        -13 -7 -5 -8 -4 4 -8 3 -6 hvcurveto
        54 -91 rlineto
        -16 10 15 -5 21 hhcurveto
        return
      </CharString>
      <CharString index="5">
        rmoveto
        74 78 35 31 14 -23 44 -17 hvcurveto
        -10 -32 -39 -69 hhcurveto
        -69 -32 42 100 -6 hvcurveto
        232 hlineto
        13 26 33 13 170 -57 94 -122 -127 -73 -86 -186 -177 69 -88 145 hvcurveto
        -107 304 rmoveto
        105 5 30 45 56 hhcurveto
        53 25 -48 -102 hvcurveto
        return
      </CharString>
      <CharString index="6">
        rmoveto
        164 90 113 245 245 -90 111 -164 -162 -91 -110 -246 -245 91 -113 162 hvcurveto
        1 92 rmoveto
        -93 -49 78 188 189 49 74 93 92 50 -74 -189 -188 -50 -78 -92 hvcurveto
        return
      </CharString>
      <CharString index="7">
        rmoveto
        -2 callgsubr
        53 -51 callgsubr
        -32 -12 -10 -15 vhcurveto
        -53 vlineto
        -16 12 -9 31 vhcurveto
        137 hmoveto
        -46 callgsubr
        53 -19 callsubr
        -32 -13 -10 -15 vhcurveto
        -53 -38 callsubr
        31 vhcurveto
        return
      </CharString>
      <CharString index="8">
        rmoveto
        53 44 31 45 29 hvcurveto
        -30 callgsubr
        14 60 5 20 hvcurveto
        9 -10 35 87 vvcurveto
        343 46 callgsubr
        -30 -13 -8 -17 1 callsubr
        -34 -18 -29 -25 -34 hhcurveto
        -41 -20 27 47 hvcurveto
        345 -61 callsubr
        -17 hlineto
        -31 -11 callgsubr
        -363 vlineto
        -91 45 -53 81 vhcurveto
        return
      </CharString>
      <CharString index="9">
        -102 callgsubr
        endchar
      </CharString>
      <CharString index="10">
        -127 -69 -97 -173 -173 68 -94 128 hvcurveto
        -1 85 rmoveto
        -62 -14 callsubr
        128 26 56 62 62 28 -56 -11 callsubr
        -28 -56 -62 hvcurveto
        return
      </CharString>
      <CharString index="11">
        rmoveto
        14 80 50 62 53 -52 20 -45 -35 -44 -18 -13 -11 18 -24 8 hvcurveto
        6 10 12 29 hhcurveto
        19 16 -8 -17 hvcurveto
        -44 -63 -18 -25 vvcurveto
        -9 26 -10 13 vhcurveto
        return
      </CharString>
      <CharString index="12">
        rmoveto
        -11 hlineto
        -32 -32 callgsubr
        -313 vlineto
        -38 -24 -34 -29 -40 hhcurveto
        -51 -30 29 49 hvcurveto
        302 -59 callsubr
        -314 vlineto
        -98 54 -55 96 50 47 22 40 34 vhcurveto
        -11 vlineto
        -135 1 -31 -49 -84 -87 -54 35 -11 hhcurveto
        -5 -7 -8 -25 -6 0 -15 2 -10 hvcurveto
        -28 4 78 -28 99 hhcurveto
        138 60 73 209 hvcurveto
        403 15 callsubr
        return
      </CharString>
      <CharString index="13">
        rmoveto
        128 83 80 122 114 -68 44 -81 43 hvcurveto
        -66 36 -47 26 65 vvcurveto
        58 42 34 59 29 29 -6 -12 27 vhcurveto
        -3 7 6 -3 5 hhcurveto
        16 15 48 20 6 -2 7 -8 5 hvcurveto
        21 -32 -47 11 -46 hhcurveto
        -121 -86 -72 -123 -116 72 -45 89 -46 hvcurveto
        54 -28 46 -27 -65 vvcurveto
        -67 -47 -33 -58 -47 -40 14 23 -31 vhcurveto
        4 -9 -6 5 -7 hhcurveto
        -18 -12 -42 -24 -13 5 -6 7 -7 hvcurveto
        -31 39 59 -17 62 hhcurveto
        return
      </CharString>
      <CharString index="14">
        rmoveto
        128 70 56 97 87 -58 27 -72 13 hvcurveto
        -61 11 -60 0 49 vvcurveto
        37 28 17 42 2 vhcurveto
        98 4 59 66 101 vvcurveto
        34 -8 31 -13 24 vhcurveto
        2 2 rlineto
        -2 13 15 0 21 hhcurveto
        14 6 9 23 hvcurveto
        13 vlineto
        24 -6 10 -16 vhcurveto
        -144 hlineto
        4 -17 -17 3 -18 hhcurveto
        -108 -62 -67 -107 -70 26 -52 48 -28 hvcurveto
        -30 -23 -18 -30 -39 vvcurveto
        -31 13 -26 22 -16 vhcurveto
        -3 vlineto
        -48 -24 -30 -42 -57 vvcurveto
        -92 73 -35 108 vhcurveto
        5 470 rmoveto
        -45 -35 17 80 82 35 18 45 44 37 -18 -82 -80 -37 -17 -44 hvcurveto
        3 -393 rmoveto
        -48 -53 12 56 35 20 24 27 15 hvcurveto
        66 -19 88 12 -68 vvcurveto
        -44 -32 -23 -68 vhcurveto
        endchar
      </CharString>
      <CharString index="15">
        759 -105 callsubr
        return
      </CharString>
      <CharString index="16">
        rmoveto
        -7 callgsubr
        360 vlineto
        34 18 29 25 33 hhcurveto
        43 18 -28 -51 hvcurveto
        -340 15 callgsubr
        -13 callgsubr
        355 vlineto
        96 -44 56 -80 -54 -45 -31 -45 -29 vhcurveto
        33 -6 0 35 -28 hhcurveto
        -14 -60 -6 -20 hvcurveto
        -9 10 -34 -87 vvcurveto
        -343 -38 callsubr
        30 vhcurveto
        return
      </CharString>
      <CharString index="17">
        -90 callsubr
        endchar
      </CharString>
      <CharString index="18">
        rmoveto
        -74 callgsubr
        -9 -17 -34 vhcurveto
        -35 -74 callsubr
        14 60 5 20 hvcurveto
        9 -10 35 87 vvcurveto
        334 vlineto
        57 7 27 34 48 vvcurveto
        return
      </CharString>
      <CharString index="19">
        -83 callsubr
        endchar
      </CharString>
      <CharString index="20">
        rmoveto
        -8 hlineto
        -34 -4 -18 -31 -8 hvcurveto
        23 -20 -36 31 -53 hhcurveto
        -102 -65 -98 -167 -129 39 -135 117 44 40 22 52 25 hvcurveto
        -20 vlineto
        -131 -31 -51 -71 vhcurveto
        -71 -40 41 -11 hhcurveto
        -6 -6 -7 -25 -10 1 -11 2 -12 hvcurveto
        -29 5 64 -32 84 hhcurveto
        124 57 79 215 hvcurveto
        1 421 rlineto
        14 -2 -10 8 -25 hhcurveto
        -66 -336 rmoveto
        -77 -17 -37 -24 -29 hhcurveto
        -63 -14 86 93 111 23 66 69 33 23 -19 -15 15 hvcurveto
        -1 -15 -2 -19 -21 vvcurveto
        endchar
      </CharString>
      <CharString index="21">
        rmoveto
        164 90 113 245 122 -23 89 -44 58 hvcurveto
        63 5 29 35 51 vvcurveto
        29 -20 47 -24 -5 -4 -1 -3 -4 vhcurveto
        -27 -18 rlineto
        -6 -4 -3 -6 -7 vvcurveto
        1 -12 26 -19 -29 vvcurveto
        -17 -9 -16 -30 -12 -8 3 8 -13 vhcurveto
        25 -37 -46 16 -58 hhcurveto
        -58 callsubr
      </CharString>
      <CharString index="22">
        rmoveto
        19 hlineto
        -2 callgsubr
        270 52 vlineto
        51 21 -18 -63 20 hvcurveto
        58 -195 rlineto
        -12 4 17 -7 23 -18 callgsubr
        32 14 7 12 3 -2 5 -1 6 hvcurveto
        -62 195 -19 59 -20 44 -30 15 rlinecurve
        4 vlineto
        55 29 38 53 87 vvcurveto
        133 -73 50 -124 vhcurveto
        -154 hlineto
        -21 -10 14 callgsubr
        32 vhcurveto
        63 391 rmoveto
        219 83 vlineto
        49 33 -32 -74 -65 -35 -48 -42 hvcurveto
        return
      </CharString>
      <CharString index="23">
        hlineto
        -31 -66 callgsubr
        return
      </CharString>
      <CharString index="24">
        3 callgsubr
        6 56 callgsubr
        6 12 -4 15 hhcurveto
        21 hlineto
        12 8 -42 callsubr
        -22 hhcurveto
        -12 hlineto
        -20 -17 -48 callsubr
        return
      </CharString>
      <CharString index="25">
        -589 -106 callgsubr
        return
      </CharString>
      <CharString index="26">
        rmoveto
        52 64 30 111 hvcurveto
        571 -59 callgsubr
        -33 vhcurveto
        -10 hlineto
        -32 -32 callgsubr
        -566 vlineto
        -48 -15 -13 -19 vhcurveto
        -20 -8 5 -6 hhcurveto
        -16 -8 -42 -12 -30 41 -6 37 hvcurveto
        endchar
      </CharString>
      <CharString index="27">
        -83 callgsubr
        -108 -754 -107 callsubr
        endchar
      </CharString>
      <CharString index="28">
        rmoveto
        30 14 8 12 6 hvcurveto
        43 81 14 27 9 vvcurveto
        10 -13 4 -31 -29 -29 -5 -22 -6 vhcurveto
        -21 -80 -6 -23 -9 vvcurveto
        -9 6 -3 22 vhcurveto
        return
      </CharString>
      <CharString index="29">
        rmoveto
        54 83 28 29 16 -20 42 -17 -2 -5 -5 -3 -7 hvcurveto
        -9 -16 -24 -13 -40 hhcurveto
        -77 -31 55 132 131 37 49 70 36 26 -15 -8 15 hvcurveto
        -3 5 4 -2 4 hhcurveto
        13 22 43 17 28 -67 25 -64 -127 -82 -67 -200 -190 70 -80 140 hvcurveto
        endchar
      </CharString>
      <CharString index="30">
        rmoveto
        -153 1 callgsubr
        -20 -24 callsubr
        76 -201 hlineto
        -6 -21 -25 -4 -30 hhcurveto
        -108 -40 107 158 167 43 92 114 hvcurveto
        73 35 -36 11 hhcurveto
        17 26 47 20 29 -85 36 -81 -176 -89 -115 -246 -240 87 -113 171 79 106 21 54 hvcurveto
        289 vlineto
        23 -10 10 -20 vhcurveto
        return
      </CharString>
      <CharString index="31">
        -22 -10 vvcurveto
        -9 6 -3 18 vhcurveto
        return
      </CharString>
      <CharString index="32">
        -84 callgsubr
        -654 -38 callsubr
        return
      </CharString>
      <CharString index="33">
        30 -21 47 -24 -4 -4 -1 -3 -5 vhcurveto
        -26 -18 rlineto
        -7 -4 -3 -7 -6 vvcurveto
        1 -12 26 -20 -28 vvcurveto
        -16 return
      </CharString>
      <CharString index="34">
        28 callgsubr
        -21 -84 callgsubr
        return
      </CharString>
      <CharString index="35">
        rmoveto
        69 54 42 79 61 -34 35 -38 12 hvcurveto
        2 vlineto
        32 13 27 26 45 vvcurveto
        63 -44 38 -68 -39 -55 -13 -21 -11 14 -24 9 vhcurveto
        8 16 19 39 hhcurveto
        46 13 -29 -25 -27 -18 -41 -50 hvcurveto
        -19 hlineto
        -10 -4 -6 -14 hvcurveto
        -8 vlineto
        -14 4 -7 10 vhcurveto
        22 hlineto
        48 30 -19 -52 -57 -40 -18 -32 hvcurveto
        -42 -24 22 -9 hhcurveto
        -8 -15 -22 -11 -22 57 -16 51 hvcurveto
        return
      </CharString>
      <CharString index="36">
        -14 callgsubr
        305 58 vlineto
        -17 callsubr
        -58 102 hlineto
        16 -11 9 -25 vhcurveto
        -16 hlineto
        -24 -13 -9 -16 -1 hvcurveto
        -13 -102 rlineto
        -26 -23 callsubr
        26 -313 hlineto
        return
      </CharString>
      <CharString index="37">
        -85 callsubr
        endchar
      </CharString>
      <CharString index="38">
        199 -7 rmoveto
        46 41 26 48 28 hvcurveto
        -32 5 4 -36 26 hhcurveto
        15 59 6 19 hvcurveto
        11 -11 33 88 vvcurveto
        572 vlineto
        16 -14 9 -30 10 callgsubr
        -243 vlineto
        25 -23 -30 20 -46 hhcurveto
        -100 -65 -96 -170 -165 61 -106 94 hvcurveto
        return
      </CharString>
      <CharString index="39">
        16 -13 18 callgsubr
        -32 callgsubr
        return
      </CharString>
      <CharString index="40">
        54 34 36 52 53 -34 37 -54 -53 -34 -37 -53 -52 34 -36 53 hvcurveto
        43 vmoveto
        -28 -15 16 29 -1 hvcurveto
        29 1 15 17 28 hhcurveto
        28 16 -17 -29 -29 -16 -16 -28 hvcurveto
        return
      </CharString>
      <CharString index="41">
        -13 -66 callsubr
        return
      </CharString>
      <CharString index="42">
        -25 52 11 -36 vvcurveto
        -18 -16 -8 -15 vhcurveto
        -30 -22 21 -16 hhcurveto
        -9 -14 -15 -16 -27 54 -19 44 53 45 21 64 53 -41 15 -30 2 hvcurveto
        return
      </CharString>
      <CharString index="43">
        111 -2 -100 callsubr
        return
      </CharString>
      <CharString index="44">
        140 296 rmoveto
        12 hlineto
        16 8 5 10 hvcurveto
        379 vlineto
        7 -10 6 -7 vhcurveto
        -111 -26 rlineto
        -8 -2 -3 -4 -7 vvcurveto
        -12 3 -24 11 vhcurveto
        64 14 rlineto
        -331 vlineto
        -10 10 -5 15 vhcurveto
        -21 -297 rmoveto
        14 hlineto
        14 11 5 14 7 hvcurveto
        299 665 rlineto
        1 4 2 4 3 vvcurveto
        6 -5 2 -10 vhcurveto
        -13 hlineto
        -14 -12 -5 -14 -6 hvcurveto
        -298 -665 rlineto
        -2 -4 -3 -5 -2 vvcurveto
        -6 6 -2 9 vhcurveto
        return
      </CharString>
      <CharString index="45">
        -582 -98 callgsubr
      </CharString>
      <CharString index="46">
        vlineto
        -73 callgsubr
        return
      </CharString>
      <CharString index="47">
        vvcurveto
        -26 9 -64 84 23 22 5 12 19 vhcurveto
        9 6 5 10 12 vvcurveto
        18 -8 8 -15 vhcurveto
        return
      </CharString>
      <CharString index="48">
        vlineto
        -34 callgsubr
        return
      </CharString>
      <CharString index="49">
        36 77 90 117 20 -16 13 -30 hvcurveto
        -11 hlineto
        -32 -14 -14 -22 -73 -16 -48 -19 -41 hvcurveto
        -4 -9 -4 -9 -7 vvcurveto
        -13 20 -4 13 vhcurveto
        return
      </CharString>
      <CharString index="50">
        hlineto
        -46 callgsubr
        return
      </CharString>
      <CharString index="51">
        92 hlineto
        -52 callsubr
        return
      </CharString>
      <CharString index="52">
        -75 callgsubr
        31 vhcurveto
        return
      </CharString>
</ttFont>
